<mxfile host="app.diagrams.net" modified="2021-07-25T13:48:17.569Z" agent="5.0 (Windows NT 10.0; Win64; x64) AppleWebKit/537.36 (KHTML, like Gecko) Chrome/90.0.4430.93 Safari/537.36" etag="xH1Bpv7hJJ49qaY6pIZh" version="14.8.2" type="github">
  <diagram id="3OUlUPSCiQK2H0YRvn7P" name="Page-1">
    <mxGraphModel dx="916" dy="1683" grid="1" gridSize="10" guides="1" tooltips="1" connect="1" arrows="1" fold="1" page="1" pageScale="1" pageWidth="827" pageHeight="1169" math="0" shadow="0">
      <root>
        <mxCell id="0" />
        <mxCell id="1" parent="0" />
        <mxCell id="fn3hpe5vCrqdeOl8oa49-1" value="" style="rounded=1;whiteSpace=wrap;html=1;strokeColor=#7EA6E0;fillColor=#D4E1F5;" vertex="1" parent="1">
          <mxGeometry x="392.11" y="-351" width="110" height="210" as="geometry" />
        </mxCell>
        <mxCell id="fn3hpe5vCrqdeOl8oa49-16" value="" style="shape=image;imageAspect=0;aspect=fixed;verticalLabelPosition=bottom;verticalAlign=top;image=data:image/png,iVBORw0KGgoAAAANSUhEUgAAAEwAAACSCAYAAADvoyx0AAAAAXNSR0IArs4c6QAAAARnQU1BAACxjwv8YQUAAAAJcEhZcwAAFxEAABcRAcom8z8AAArJSURBVHhe7ZxLjxxXFcf/9a6u7p7uGc8kzsPBgtjZgJXYIRFIoGySWE6iKBEbBEiQKMOKBZ8g4jOwchAPCdixDFIEG5BjIJEcjSCCBUGxE5LYcTLTPf2uJ+fc6hr3tGc8fbp7Bj/ub3T63nuq+tap/z33VrmqZWhkGMPyhrxw6ptPZqn9mGG4gzQ1MsRAmiZIh9thWjCH1Z0otvH+pnmjPeeDRYdItoIjqG0VbT68CiGifSKjmQ28yEjePr/21h/ZuxcTCvbELwOv9P3IArI0Q5qQUQAZ/TGGYVBHO3RFrmJLluX7wtxl37mQ5bFQ93w4dUgaX+VTh6cNJlW4QeeRxAk6WYxW2PvV+bW//YD32IuJIn/h5NM/L9Wsl5LlJjInRpYMN2xjuwwspvJMdIT5og5JIhWDlIcwjIXF4rLjIN500OkZaPcGv3hz7c2X1W57kPe1By88cuast5yuZscuwwhCyveJvjY38tPO4SOPtneH97oWJ+ukvscZR1MyWw8QXQ7Qadpod6PXzq+d+6HacQ8mOvPnT5w5W74/XfW+dhlOPYGV0NykryaUanE2XBxoNFNqp7R4cGbZjkPTNkWSUDrStu3hyylEKgS7cX8US8xGM9AxaN0kD4WR0jRUWcftK2WEH1TR+dxFuxW/dv7vcxTszPEnzx4+4a8eX01x5GgNi0aNjmliPWzhSn9DrRlxFKHb7aLT7cC2bKwsr6DX66HZbCKOw63pMS3jgu3IcCNdj9C5GqH9aYTafS78BQuDVorueoxBJ4FhkXBXKlMJxqmyJw/Wvvjc4gPeqWPPVXHs+GEcPXQv7lpahF21EAUJqvUS/IoL06VArBjBgof7HrgHlkdZiAFML4PjG3ADa2pzyLyx9uh2Nt7u+BZsz0TUzdBvJKjd4yJYstVFKuykiHs0A+jCg7aLZNND1LMQhumFD6988PrwdG+IusDuCacwZUgU0ukPIvQHIfphiJDq8SBGNKCpSWVM25OIpmFIdx5UV201NfiKVEyT6W2vvpSfr+BU8tWcKa7qXM6Y5IrJBLuOYTDbP3KuC+o6x/6yy+HmFcWUgjHDENQqyB+81NMfVZVri7zF/nmxW1fKv7WxqIyXsyEWjGUqjBnKNBIO1ZQ6I55hO7+pnN3o4zqf8qs4inZx3NzLy1bemo0ZMmxn5hHU1PDBtwLIK/OOZ+6CzWutmJ39iWTugt0yTJl6d65gUybgnSsYM4Vod7ZgU6AFE6IFEzKxYDfP7cL/l7ln2LxvFG829JQUMrlg9O8yfuNjGRZsfktkmPkjnzS5ZkmEARmXcRori5IQg5j8MZdyC4d98VuqJImVL6aSn+buaAlbgjiieEKKIc59iSoz2me2xWWiB4jHlr70XPUe69TK4xlqix5ceEosJQ6djG87sElAg4KxaFIGXoBDC4sw+ek1+VzLQcn1yEpk/kQWDM1zXNi2DdOy4FK9Sn04tgvTpoEjH28bN9O0kUYGsthC7W4fftmhOhCHuWgsWdZ2kTblDxAnWnKePf702eUT1urRV1q493gNK/5dqHhlCj5AYPnqyUBCoxtRJrFx9pX8Eo0qZUQ0QEYjnIc5+QrHe/LThlbUxdVBg8oeak4ZX6jchSu9BvmaNBZFv2PQQEW9FCGZX6WcoJHrbHbR3Gih8WkHjY8oSz8IEH+0gM667BH1ZFPSMpFSSrfX+9igA179rIX1jY56Tu72PTg9yro+ZURUwUJWRzVdgEs+PwqwkNaxYCyiZiyRcTm51ek7lawGL6nAjkvw0wpqWEIpq6q2tYvZCe1r04BWqvDMMixq2/BVZlqWTWpalHF06pn8EjXRN54/cfq16hHjlYVvbKB62EfVr6NMGbRM5bJbU/sUGVR0WIy7ao86J46R1kwylWH9JlpxBzWXMqx8N2XYhsq6hJ8536DP/HGYod5c9fs9dHpttGigmx/FSD71kKyX0GmZ6Hajn51bO7eqvrQHE4X/4mNP/7paDb6b+iGtHepxHAVB0yE2MiM2jeJHA/yDgeKhHcPnw83i5wG8KOcP97iPiQ6tpl3Mr++o5KnuGg61aTEfe5vM7xrVyw2C1ymGY1WwrhRMasb8aZgJrbQJnUNsoEPrcLPX/s25C+e/l+98YyaK+ltfP/2dNDZOJ32jl/QxgJPUKbGeWXjAWaweMbFi1ZU4G2kLEZ1Msa7wCfKVrdVu01Sw4Hu+Ei2MQkRke6IE56elucDcL6+V3C/7GC7Ipd4G8VshFqu8Yqv3kN3PKRYKTA0OiWRulpF0zA3Dsn5PF/pGasTeZtYthUn8xrl3/vJb1eEeTCTYOC//+Kklo+H+6cGnKl956JkAXw0eogANvDt4H+2kq0afT8Smq1Wv38elS+/D5yl8aAWDcEACbmJzs6kEGM3IaeCsSgYZ2ldibH48QNRPcf+jZcTk+2Stm2d1Rmtw14H577vR+4/3DzPMnvjdP/+wPuxCxOT3YSO4nqOuT+pNMgWUWlR38ra611HGI8/byXgi8LaiLPy0z8w27Cvv91pb+eh4nPlUVTEoo/h7FgU7JVMJ1v0k8yggI41ofaGRDEmdMKYbxUHe5hFn47pqhwbdF9G0UXU6EZqN6dA3s3FfXPJPsCjLM16b6B6MffwbEM78wlgtujAagZ95+ZnImUqwLUamE9e2FvLRWTZSz3ffYZ85UXQ53vVoe7YTnv37dxxaMCFaMCFaMCFaMCFaMCFaMCFaMCFaMCFaMCFaMCFaMCFaMCFaMCFaMCFaMCFaMCFaMCFaMCFaMCFaMCFaMCFaMCFaMCFaMCFaMCFaMCFaMCFaMCFaMCFaMCFaMCFaMCFaMCFaMCFaMCFaMCFaMCFaMCFaMCFaMCFaMCFaMCFaMCFaMCFaMCFaMCFaMCFaMCFaMCFaMCFaMCFaMCFaMCFaMCFaMCFaMCFaMCFaMCFaMCFaMCFaMCFaMCFaMCFaMCFaMCFaMCFaMCFaMCFaMCFaMCFaMCFaMCFaMCH7L9jU/032zclsgrEYhSA71cm2/b/QI/5blbll2JYOY2Jsa97CQhXMLNi4BtwetW3sw/9wftAc3KK/k7JFOauNs5NvTuyPYKMB73ZSzLxObKd+5tX3GLMLNhoY14v2aH2EXdy3DAc3JW8TtGBCtGBCZhJs6vXoFl7EDjbDbvUVn5hNsEKAQoTR9qgdBOPH2qeb5IPLsHHh9lvIfer/YATbLXj2z8tGGW/PkYNdw24DtGBCtGBCtGBCtGBCtGBCtGBCtGBCtGBCtGBCtGBCtGBCtGBCtGBCtGBCtGBCtGBCphLMsmzTzFALKi4qSx7qVoC6G6BKdW5XFtloG5VlKoOaraxcd8kcqjsoLVgoka+0MKMN+/ArFryyBTcw4VPfftVWdS8gX4nKEpWuww9ja4M4nDpRpnpVsPrtZ5cTJ/3p4cedk19+sdZ8dOU4kBh4d/0SOnEPCf0xtm2j3+/hww8vwfdKOLS0jH4Uot3aRKu9CWQpDGPGJKevp2GK1tUEmx9HiAcJ7nskQBxmuPxuFxmHkhnIeg7ify3Wkv9W34mt/o9ev/Dnz/IOZEwl2Kuvvmq+995blQdPVuyHXyqnD9cfVv61xkX6bNBfTp2sQY2LjTWq01+dPeyjfXjDHOHuGhf5Azj6RD1vr40eo47OX0tmu1GPH3/7jfZPSOfhhn3nNviVl+J2OQ/NbQTwP4Ihl+ZlR7qqAAAAAElFTkSuQmCC;opacity=40;" vertex="1" parent="1">
          <mxGeometry x="523.11" y="-349" width="25.51" height="49" as="geometry" />
        </mxCell>
        <mxCell id="fn3hpe5vCrqdeOl8oa49-18" value="" style="shape=image;imageAspect=0;aspect=fixed;verticalLabelPosition=bottom;verticalAlign=top;image=data:image/png,iVBORw0KGgoAAAANSUhEUgAAAEwAAACQCAYAAACia41/AAAAAXNSR0IArs4c6QAAAARnQU1BAACxjwv8YQUAAAAJcEhZcwAAFxEAABcRAcom8z8AAArPSURBVHhe7Z3JjxxXHce/tfTeM9Mz3sYkColDHGcytkfEMkJckKIkSiYKRJCIE+LABQ6IC8qJf4Bbrkg5cOGAhFgSCcMIpJhDIBJRhASCBGETO4vHPT29V1d1Lfx+r6o6bXvG079e7Mz4fdqvq96vqt979XlLj6usMTR3DiPZ7mfE1zDRRb+08lK2+IhXXPshsLb2IPhVp9fl+mV6Z/i9Eu/V6QjFKxXOD8fonDg7EVwEF8VVXr5cp3ootlZB/d24ngF1OvAuxS+j9+b/3uwl0ZGZSNjXzj/99bnj1o/PfL9gnP/q59yT9oPYdBr40Kmi7rXgRwEsw4BhWKhtb6FWr6FUmqNUhGlaqFY/QavVpnPMpMQxoavgC/E9wNn2cf19B4VFG8srBVT/66H5UR+IQkRWhLCWt/tvH8uF9dyrv/nHhdfiAkZnImEvfOmpHyw/VH713I9KOPfF4ziFE9ikLr4SbKLmNZUwk2SYpomtrSq2alsol1lYCZZl4drmJ2i3mur4hE2hTiFhboRuzcfmvxwUl2wcP1PE9fd6aFwlk0Rkh8BWEcFf7kP74/Anv/7nhVfUAQETda0Jo+d6HrpN6kWvh+2wi0bXQXO7h/a2S8lLti46jT6cpo8ubTt1Th4cFQuS5E+eWj567QCeE8DtxmW6nO+GKu9RcumY16cRB3TVRQiZcC58SpRsDzpTEzbZhNo/TE3YvYIWJkQLE6KFCdHChGhhQrQwIVqYEC1MiBYmRAsTooUJ0cKEaGFCtDAhWpgQLUyIFiZECxOihQnRwoRoYUK0MCFamBAtTIgWJkQLE6KFCdHChGhhQrQwIVqYEC1MiBYmRAsTooUJ0cKEaGFCtDAhWpgQLUyIFiZECxOihQnRwoRoYUK0MCFamBAtTIgWJkQLE6KFCdHChGhhQrQwIVqYEC1MiBYmRAsTooUJ0cKEaGFCtDAhWpgQLUyIFiZECxOihQnRwoRoYUK0MCGzE3ZAf7GrHmFCZidsr9+1vE9/F/PUhKXXP/DAO2najdsd+4wyFWHRsJih/cEyNnx8nzOTKZn6SR3t6Wr45EnYrYwpfgHNbA1LHezpYfiE4Q+Nk3Ziyt/WMxPG/4PC7Rp7u2ucCnuJHJOZCbuhsVNu9N1kOsJ2EzIs7YAwuxF2QLl7wvbpyLu7I2wfSpuKMLVUDV+8CsS7ijSfxm4+vo+Y3aKfSkmPDefT2D5kdlNyt5/BUlnp8ZtFTiOlDO9PiTu/hu3xA+1nnTsnbJ+LSrnzI2yfo4UJ0cKEaGFCtDAhWpgQLUyIFiZECxOihQnRwoRoYUK0MCFamBAtTMiowna8k2UZpqsO8R9+1K22vKE3Qu0n8QG8n+SHwxORFjRUtrrdOogP3XpNYkZkqP9/X8qowtIa+fzBZ/wwyKeHInpxWzjH+2pLb9ENT0eI+ITB7lRIC7qhwIE5ig/tJ4QIs8kuc+sJuzDylFxZeeKBx8+svbZy+uyFldNrv3p05cwvan3ne1HI7SRZpkmjyYRJ2zgZMC2qwKLxRvtcU0Q9TaeokaeaqPTTVartZClKtqpsZnjL9ao8vVEHhkGIhuF869HTZ3+5snp249HVs9/hownpJ3fktgeHOb92/ixNr7/m8/mcH/YRUsUlI4ujhwt48NlcdOKxReM++yiaXhdbbgNt36FzQjUlTbLUarfQ7rSQzxeQy+ZVvNmqo9dz1PGJoSsJ/QheJ0Tz4z6yRQuV+7NoXeuju+3H51DnRK0sgvcXolYvNNqWB5t61Xf7F48VKq8c6dl//+nf3ujGJ+/MyMJe/PL6qhEFG5mCseyZPYrEU5B7zsyQFBpF8doVT8hbZyIFODaokXboJBWfJlwNjXouXvUDz4C0irh5FDPUhuNGQK0OMuh7qJLQb/z2rY2LfOpuDJq/Fy+fW1+lVX7DPtZd7lWqiCwfAa8EAYkLTES0DagZZjKiOEXUcl7D1CjjKUsplkRwYynOwlV+CqiLUaJICBcaRrCyvFTQbkB5bgtPW1q9eLmAT21sZSKzMW90qzYCL3jmjXc2/sDF7MbIwl48QyMsE27MrznL9uNbyOQNGs7UGFo83NBDwNOPXrRCIKA1IvAD2LYFy7IQhCyW9Kquv4OQNN+jN/pjZrgT45EfUIzXUxYWVgvAR4voflBw4FvPv/7O7/6UfHpHRha2fuqpVeqtjcdeLi6f/GYWywtLOJKvIIcM3mtdRc1rwjYs9H1PrVe12hYOLx1BpbKIRrOOVqsJx+nGFY5c663QZQ4+zvu7weewmM1/95S0pYeopQUTXjtA7RJ1cD+gzrYQbtEX/Sck7Ep+JGGjr7Yej+gImZyNUqWAymIZhysLOEpC5hdLKC0UUKZ4aSGPQjmLbMFCYS6LMsUL5RxyJZtiJjJFUx2baaIFn1Mmb8XrGNnL5KjuvBlPUQqpKTsGowsjeC3g6eb2fBotLrpuDx2vR3kPntuH1+Pko+8G1IMhLaS+inPed2ma9mmdo95W21mmpA7+1kzF8Bqm8rTW8o9lvH6Og0jYToxX7Z1h10E05uhiJhaW1h3/SBFvufPifBqjRME0zZq4irgd8V6KakkSH8/aRMLiKvnnsbhJ6VY1jOWofHosfh8WN6sU16PeP82rl9pVadxBNvEI252dmjRuMz87zFAYc/CkzVjYwePeFsaDfZDUCrcneoQxglVCCxOihQnRwoRoYUJEwtIvlHsZ8Qgb7cv3VqJE9X4XPsaUNOhD8S1oK/m7Gz8Q4bupgxQGCDjRfpw4T1uOBQE/nhMn/mxIZfBt77QsznN9fJ8uvh2eJmpPmLQpSJI6l87jeEDdxj03Ru/zne2ROHns4aOmZX770IpdXjwFFLIZ5KwsCTPR8R1Vf97KwOY+4DvR1KjFuQXMF8q0H6qeyZgWfS4/VsraWVi2BdOyUExitmWrW+Bx4v0k2TZsSibfAe4YsDM25o7kkM3ZJMyA2wmUOPgGIscG2gX0mxmffnj9+Xsf/+cSX+9ujOx4/dT6qpUNNh5+0Vr+/AsBjiwt4lCpgvn8XNxz1JuMTyOoxzcWnTbmimUU8iU4rkMxB/2+R2dQlYKe5XsMPGJ6gYd230E3cHEoO48CdU7d66AXevBpBO9UKN8s5MdsfOOweNiGYUVw2i6qHzbQuu7CrdE56S3qqwUHgTnNe/rrq3Y+3Lj/OW/52HMdLC5VsLhQwaHyIh4oHsOcXVRTj65tMPXspPfVQ5BkCsWMbiye8iGa/Q42nW1UvQYembsflUwZH3SuoU5xlqnu4twMDyKXO5OmUpbKoTZ0u1TOteu4fqmNxiUSvV0kYUvoXslN9yEIPzWK7HDj0BPecmmthdJcCcVSCQuleZwoHcdCpqTWKwWVqkYGt5j+pPlxYGE8wlp+F1W3gZrbwom546qDPupW0eh34YXxP5O4pQaul4NcBq9dJMzpOai36ti+2kHzSgijnYPRmIOzaTuRH5GwjSkJO/fUqmEZG9lsZtkHNTBpjHoOSS9V0MilCWDhyYY7gJZ0Wnj5WWM88jiWnLI3qv/oxVtew7h/6S/dJq2tnh84tLQ8//rbUxK2/pWnz0aW+VbBLhX4QUf8zRSntOGzhAXxizuIRzLXxt0UxyVwGfRJ+rpT/+bDoA6wTfT8Ho1A/5kLf57Sg9wnn3z2JPXGz2hwf4GyzTh6MKBOL1Gnb5mh8d0/Xvz9W0l4B4D/A4EARQUv/LPpAAAAAElFTkSuQmCC;opacity=40;" vertex="1" parent="1">
          <mxGeometry x="574.36" y="-236.65" width="28.16" height="53.36" as="geometry" />
        </mxCell>
        <mxCell id="fn3hpe5vCrqdeOl8oa49-20" value="" style="shape=image;imageAspect=0;aspect=fixed;verticalLabelPosition=bottom;verticalAlign=top;image=data:image/png,iVBORw0KGgoAAAANSUhEUgAAAEwAAADXCAYAAACwNrerAAAAAXNSR0IArs4c6QAAAARnQU1BAACxjwv8YQUAAAAJcEhZcwAAFxEAABcRAcom8z8AAAviSURBVHhe7ZtbjxxHFYBPX+fSsztre+31xheIDZYdASIyCZcIgaIYKyEBRQIeIBIElEXiL0T8ECcC5wVekEAgXiK/BDlGCVIusuABEHFuvsSxvTs7O9O3qm7Oqe6xx5vx7py5bLT2+VZnqqu6u7rq66pq7/QaRsAq0+3OSP0Y6aRnnjkRVH3vh/sf8fc9+KMd0UPBUcgygH+GF2AtC0FhxsbjbNeFJArhwrsXoFqrwc6d8xDHMbQ7bei0VgBPMceNhQuQJQDtywpWLsWg4gz2PxSACgGunO+AxrY42gYduqD/tbuavRdcXMmzP5w5f6ZT1sBiJGHPPXdyMVfu2QeebB4+9r0AHnaPQY5VnVfvwJrugsq1qdh1XAhR2LskrFqD+fndECcxrLZb0G618Bw8yxpvwFpoXMU5tK8oaF1MII01HHy4ASrK4NJbXch1DpBbkHd9sP+9F9r/cf+X2fDNP7358uWyChaj3eAutiEDleDdjLsaQkhN0HbcwaC0W+xLME2x8QlFiPkQ82GOZWXQ9jgRoTCsh6RpHGkUVK6wXKe472bgfp2hO0uVvRiJkYQlrpNneZ6qhERoiDIFUaIgjpTJp0ZMGZRHsXTHSVqKedpOsYPUyfGD7hymJAQjIzlUjm0zZYoC5WFKSwUqS13HwWE3GqMvITST+mYTzSyrV0Dbvf2miArKstu2i+xY0U+Z79Xd292fjrtmjnv+PYcIYyLCmIgwJiKMiQhjIsKYiDAmIoyJCGMiwpiIMCYijIkIYyLCmIgwJiKMiQhjIsKYiDAmIoyJCGMiwpiIMCYijIkIYyLCmIgwJiKMiQhjIsKYiDAmIoyJCGMiwpiIMCYijIkIYyLCmIgwJiKMiQhjIsKYiDAmIoyJCGMiwpiIMCYijIkIYyLCmIgwJiKMiQhjIsKYiDAmIoyJCGMiwpiIMCYijIkIYyLCmIgwJiKMiQhjIsKYiDAmIoyJCGMiwpiIMCYijIkIYyLCmIgwJiKMiQhjIsKYiDAmIoyJCGMiwpiIMCYijIkIYyLCmIgwJiKMiQhjIsKYiDAmIoyJCGMiwpiIMCYijIkIYyLCmIgwJiKMiQhjIsKYiDAmIoyJCGMiwpiIMCYijIkIYyLCmIgwJiKMiQhjIsKYiDAmIoyJCGMiwpiIMCYijIkIYyLCmExHWF6mxJ22tynTG2EkZ5CgO5VvE8YT1t/59WmJVaZ3CxMbYcbdOlnEgKJtzdjC1gsx4vribmN6a9iwrDc8SmwhWydsUMcm1dktlLY1wqYpaxBTrHs6wqjBvUYPaPw0Xd1kSheZ7gj7tGRNkfGF9Rug7e1uZBO2btG/SxBhTEQYExHGRIQxGUvYyA/Fbfwknc4I20jINv9nx/SmZG/4bXNB65mMsH4pGwkatK8ndZwgeumUGU9Yf4OJjRq9/lhio+M59OpZn06B6U3JfgZ1YIqdmiZbI+wuYmuF3QVvRGSEMRFhTEQYExHGRIQxEWFMRBgTEcZEhDERYUxEGBMRxkSEMRFhTEQYExHGRIQxEWFMRBgTEcZEhDERYUxEGBMRxkSEMRFhTMYTRq/++1//323/OXIAkxlho0hbL3ubsJmwgV16/vmTy3iitnBvERZYNm3gzl7gARbVTsV2frPclPXKy7Jxolffzbro76jK+m9F7/rmAP3s8uFl2ujD7BgGp0w35IvIzsXFRxYWFj7nu3P3vfLKf7++o1n77s77/eauIz7c15jHNlnwcbgCaa6wyblpge04oLSG1dUWeJ4L9Vrd5JMkNkF/Ikayb3VstMg1QNLNIG5ryHQOs4u+SdeuYluMKxvy1AbregDJspP8xX/nij8/t3dx797PXjtw9UO4DFjDcNC92BTbdn5Vs70/Opbz5+Zc9UwcqdNJrA8kocZGZtBpJSYS3DaxVgZ2IMVUdS1IOxaWAaYACrepTIdFOk5oSrEeHZEUx4ihejPKJzgesAywjFKtsC22PqBBnZ71qy97tnv6C/Hxw2U3h4Lu0aY89pVvvVSrVn6qIIEsz1CgBY26B409bj6z6Fo7Kg28zRasJh1QeLvz8j9/0zTNdAbdsAuObYPvVyDLMkhVCgpjEtAIzbMcVJxDGmU42nKozbmmLGphW+gY/MkVdnXNz1XoWLGlsNQGlaBAnf1N5fDi2TfP/s5UuAlDCfvBQ0+c8gNrSTVbkDk4zDNcCLDjGV43x36TJMK1nGKKITelYd5GWQTJpsabNa88blwKIcUHrWdUP01H2rYdFFU0A3dgmUOB5XTt0Mt1x7NCHH2tTvf3r7716k/KIzdkqFY//eUnT1X2pEv6gfchr0XYoKKcTu7veLGNgY3MoZBDebMwbzE0umkmUFvp5tEzyTwcaAPl5VdxPfuwAZ0bHqx11Ivn3j67VJy5MVTNpjx57OSpXUfdpf0/DmFhXw0aEOC1LWinXVhO2lgLriG4mMdRCFEc4fRzoNmcgziOodvFaapp8e3d6uGhxrHOKk+gERa1MghXFATzHvh1G9Jusd7StAUcafmVBiTvzUDnWgXW2uqFc+fP/rKoZGOGEnby0GOnDn4tWPrqrxvwwNFFWITd+Hi14XJ8Ay6sXcK7hg1COa3VFVjB8D0fDhz4DLRXV+HatasQ4xMxw1s96jTsl7apRNyp0xxW3k/gxrsx7Dlag/q8C+F1Ba1LCYTLCiwXD/sIR9gHKOy6zxI21GQxB+EIUSnepTiBKI0hUgmKSCFN8EkYK0hThQt5ZhqrUlxMY3wWYUr5DNPMpFMOXL01BqW0zppm4+KfUxmmvOE6mOFWFzqKrkcXx6AnHT39TEpl2LreviLIb7lNKZ07RphrDxMkyVwbo7RTXL/cNp/jMZywfnqzqpxeRdI31XCzL7e10IVvXrzYmHRb2MLoLhVR3C96Et5qWpnrPS0NWIL5UQM/TAza94no/Zg8nVa0g34onQT8ETaQolGTadLtsOq8zUux0d8qVl13YELCiEmsEIMZraO99pQzYRK2kAkK22aMKPDeFTbihLh3hREjSLu3hY2ACGMiwpgMLWx6/2jYXsgIYyLCmDCE4S8Zvd/XTFqQ5bn56vlW2gvKF2Xm62wqM99uMKOsq/etg8a8+Xakr2xgZPStShFFHpcVXFcoxoEhjC7e60Qhg6Q5ln1buLZjwuRtCsw7VOYWKTPofHonQF9SUuqZfFH2icBrWhhm28Fwy9SU4022KYrejMpQ7yU/v/PwU429zvG54wnUZrETuQOozdw5D0UEXhWqjm8icKswV5+F+ZkdULM9UzZbDaBZn4Fm0MR0duigeuqVunmn6WI0agEsNObB932wPAc8TGn7VlRM6nk+3iDP7J9bqEOt4WMvbNNeuuH0pWbe9iFbrUAaOpAk2RsffPT+X4vebsxQv1E9ceTkqT1fcpbuX1qDfUeaMF/bDY1KAA2vDoFTNcfoTBevz9LU3OFatQapVtiYxOwrnrO8X+Do7U476cK1qAVt1YWmH8DBYAGuhsvwcdwy03MQNB3TCKObQWXGwVGVwdpqCK3lVVi52oHWxQTUB3VQF2fZX1EPNcKO7TnylL8zP+4eWgHwNd4heilqQcMKYJc1BxWNdzbzoYY/gdOAuh2YfDWvQoDbM87MSNF0Z8HKXYg1dh7d7PDn4FCwH2KVQZgqFOphB3AkWRVwLRxVZXg2tserQK2OI9+vmjpIos6U+Tq9ew37sOxDvlbFEWZPfoQ9/eDJU7U5e8nZ1wU/cMB3sUGuZ6ZfHYMq6a2lvQpvz+PnUFfqAyugU+Isha6OTVq1fWh6AXRUBB0dmSl2x5FLl8SgQ3KchjTaUxz9SZSaPynIOy7oyIVOkkE3Sl44+/a5yb01+v43Tvym4tR+HuMQ1/rWU4rWMXqKTQ2Shr2mRZumJz1o6Ilr8rSAl4dtSOmzeLLTwwM/XXpniU94C2VZCXTj7m9ffePvvyhO2Jihrvmdbz9+ulKt/Uyp9e8X+7enSX8zSwNjQCOP6qAbn2gUFnVeeu21c8+anZsw1JUfffTxE3jow3hXYky3ytLUwEFqRpjW2orTbkWn+h+vv37uTLlbED41AP4PdT9s8rw1WZ4AAAAASUVORK5CYII=;base64,iVBORw0KGgoAAAANSUhEUgAAAEwAAACSCAYAAADvoyx0AAAAAXNSR0IArs4c6QAAAARnQU1BAACxjwv8YQUAAAAJcEhZcwAAFxEAABcRAcom8z8AAArJSURBVHhe7ZxLjxxXFcf/9a6u7p7uGc8kzsPBgtjZgJXYIRFIoGySWE6iKBEbBEiQKMOKBZ8g4jOwchAPCdixDFIEG5BjIJEcjSCCBUGxE5LYcTLTPf2uJ+fc6hr3tGc8fbp7Bj/ub3T63nuq+tap/z33VrmqZWhkGMPyhrxw6ptPZqn9mGG4gzQ1MsRAmiZIh9thWjCH1Z0otvH+pnmjPeeDRYdItoIjqG0VbT68CiGifSKjmQ28yEjePr/21h/ZuxcTCvbELwOv9P3IArI0Q5qQUQAZ/TGGYVBHO3RFrmJLluX7wtxl37mQ5bFQ93w4dUgaX+VTh6cNJlW4QeeRxAk6WYxW2PvV+bW//YD32IuJIn/h5NM/L9Wsl5LlJjInRpYMN2xjuwwspvJMdIT5og5JIhWDlIcwjIXF4rLjIN500OkZaPcGv3hz7c2X1W57kPe1By88cuast5yuZscuwwhCyveJvjY38tPO4SOPtneH97oWJ+ukvscZR1MyWw8QXQ7Qadpod6PXzq+d+6HacQ8mOvPnT5w5W74/XfW+dhlOPYGV0NykryaUanE2XBxoNFNqp7R4cGbZjkPTNkWSUDrStu3hyylEKgS7cX8US8xGM9AxaN0kD4WR0jRUWcftK2WEH1TR+dxFuxW/dv7vcxTszPEnzx4+4a8eX01x5GgNi0aNjmliPWzhSn9DrRlxFKHb7aLT7cC2bKwsr6DX66HZbCKOw63pMS3jgu3IcCNdj9C5GqH9aYTafS78BQuDVorueoxBJ4FhkXBXKlMJxqmyJw/Wvvjc4gPeqWPPVXHs+GEcPXQv7lpahF21EAUJqvUS/IoL06VArBjBgof7HrgHlkdZiAFML4PjG3ADa2pzyLyx9uh2Nt7u+BZsz0TUzdBvJKjd4yJYstVFKuykiHs0A+jCg7aLZNND1LMQhumFD6988PrwdG+IusDuCacwZUgU0ukPIvQHIfphiJDq8SBGNKCpSWVM25OIpmFIdx5UV201NfiKVEyT6W2vvpSfr+BU8tWcKa7qXM6Y5IrJBLuOYTDbP3KuC+o6x/6yy+HmFcWUgjHDENQqyB+81NMfVZVri7zF/nmxW1fKv7WxqIyXsyEWjGUqjBnKNBIO1ZQ6I55hO7+pnN3o4zqf8qs4inZx3NzLy1bemo0ZMmxn5hHU1PDBtwLIK/OOZ+6CzWutmJ39iWTugt0yTJl6d65gUybgnSsYM4Vod7ZgU6AFE6IFEzKxYDfP7cL/l7ln2LxvFG829JQUMrlg9O8yfuNjGRZsfktkmPkjnzS5ZkmEARmXcRori5IQg5j8MZdyC4d98VuqJImVL6aSn+buaAlbgjiieEKKIc59iSoz2me2xWWiB4jHlr70XPUe69TK4xlqix5ceEosJQ6djG87sElAg4KxaFIGXoBDC4sw+ek1+VzLQcn1yEpk/kQWDM1zXNi2DdOy4FK9Sn04tgvTpoEjH28bN9O0kUYGsthC7W4fftmhOhCHuWgsWdZ2kTblDxAnWnKePf702eUT1urRV1q493gNK/5dqHhlCj5AYPnqyUBCoxtRJrFx9pX8Eo0qZUQ0QEYjnIc5+QrHe/LThlbUxdVBg8oeak4ZX6jchSu9BvmaNBZFv2PQQEW9FCGZX6WcoJHrbHbR3Gih8WkHjY8oSz8IEH+0gM667BH1ZFPSMpFSSrfX+9igA179rIX1jY56Tu72PTg9yro+ZURUwUJWRzVdgEs+PwqwkNaxYCyiZiyRcTm51ek7lawGL6nAjkvw0wpqWEIpq6q2tYvZCe1r04BWqvDMMixq2/BVZlqWTWpalHF06pn8EjXRN54/cfq16hHjlYVvbKB62EfVr6NMGbRM5bJbU/sUGVR0WIy7ao86J46R1kwylWH9JlpxBzWXMqx8N2XYhsq6hJ8536DP/HGYod5c9fs9dHpttGigmx/FSD71kKyX0GmZ6Hajn51bO7eqvrQHE4X/4mNP/7paDb6b+iGtHepxHAVB0yE2MiM2jeJHA/yDgeKhHcPnw83i5wG8KOcP97iPiQ6tpl3Mr++o5KnuGg61aTEfe5vM7xrVyw2C1ymGY1WwrhRMasb8aZgJrbQJnUNsoEPrcLPX/s25C+e/l+98YyaK+ltfP/2dNDZOJ32jl/QxgJPUKbGeWXjAWaweMbFi1ZU4G2kLEZ1Msa7wCfKVrdVu01Sw4Hu+Ei2MQkRke6IE56elucDcL6+V3C/7GC7Ipd4G8VshFqu8Yqv3kN3PKRYKTA0OiWRulpF0zA3Dsn5PF/pGasTeZtYthUn8xrl3/vJb1eEeTCTYOC//+Kklo+H+6cGnKl956JkAXw0eogANvDt4H+2kq0afT8Smq1Wv38elS+/D5yl8aAWDcEACbmJzs6kEGM3IaeCsSgYZ2ldibH48QNRPcf+jZcTk+2Stm2d1Rmtw14H577vR+4/3DzPMnvjdP/+wPuxCxOT3YSO4nqOuT+pNMgWUWlR38ra611HGI8/byXgi8LaiLPy0z8w27Cvv91pb+eh4nPlUVTEoo/h7FgU7JVMJ1v0k8yggI41ofaGRDEmdMKYbxUHe5hFn47pqhwbdF9G0UXU6EZqN6dA3s3FfXPJPsCjLM16b6B6MffwbEM78wlgtujAagZ95+ZnImUqwLUamE9e2FvLRWTZSz3ffYZ85UXQ53vVoe7YTnv37dxxaMCFaMCFaMCFaMCFaMCFaMCFaMCFaMCFaMCFaMCFaMCFaMCFaMCFaMCFaMCFaMCFaMCFaMCFaMCFaMCFaMCFaMCFaMCFaMCFaMCFaMCFaMCFaMCFaMCFaMCFaMCFaMCFaMCFaMCFaMCFaMCFaMCFaMCFaMCFaMCFaMCFaMCFaMCFaMCFaMCFaMCFaMCFaMCFaMCFaMCFaMCFaMCFaMCFaMCFaMCFaMCFaMCFaMCFaMCFaMCFaMCFaMCFaMCFaMCFaMCFaMCFaMCFaMCFaMCFaMCFaMCFaMCFaMCH7L9jU/032zclsgrEYhSA71cm2/b/QI/5blbll2JYOY2Jsa97CQhXMLNi4BtwetW3sw/9wftAc3KK/k7JFOauNs5NvTuyPYKMB73ZSzLxObKd+5tX3GLMLNhoY14v2aH2EXdy3DAc3JW8TtGBCtGBCZhJs6vXoFl7EDjbDbvUVn5hNsEKAQoTR9qgdBOPH2qeb5IPLsHHh9lvIfer/YATbLXj2z8tGGW/PkYNdw24DtGBCtGBCtGBCtGBCtGBCtGBCtGBCtGBCtGBCtGBCtGBCtGBCtGBCtGBCtGBCtGBCphLMsmzTzFALKi4qSx7qVoC6G6BKdW5XFtloG5VlKoOaraxcd8kcqjsoLVgoka+0MKMN+/ArFryyBTcw4VPfftVWdS8gX4nKEpWuww9ja4M4nDpRpnpVsPrtZ5cTJ/3p4cedk19+sdZ8dOU4kBh4d/0SOnEPCf0xtm2j3+/hww8vwfdKOLS0jH4Uot3aRKu9CWQpDGPGJKevp2GK1tUEmx9HiAcJ7nskQBxmuPxuFxmHkhnIeg7ify3Wkv9W34mt/o9ev/Dnz/IOZEwl2Kuvvmq+995blQdPVuyHXyqnD9cfVv61xkX6bNBfTp2sQY2LjTWq01+dPeyjfXjDHOHuGhf5Azj6RD1vr40eo47OX0tmu1GPH3/7jfZPSOfhhn3nNviVl+J2OQ/NbQTwP4Ihl+ZlR7qqAAAAAElFTkSuQmCC;base64,iVBORw0KGgoAAAANSUhEUgAAAEwAAADYCAYAAABBYAV+AAAAAXNSR0IArs4c6QAAAARnQU1BAACxjwv8YQUAAAAJcEhZcwAAFxEAABcRAcom8z8AAAwTSURBVHhe7ZrbjxtXGcC/uY/H9q6zCZs2vW0SWi6iVVpKK5DaQtqU5iFCpUWV+oTECw9I/QeQQsVfwTOPfaAVyUNbKvEAL7SAChUVFEEEJNkkuxsnXl/mevi+M55d27G9/mzvptl8v823Z86Z8bn85pwzjr0wBqOb3g1MPNaxF7725DMPJIb7ssqsIAMrghggyyjw1xZmN9kuM4uyQUyrezBf8tZSDKyfmqDDIo/Q+QwPdWpiOfY/NRJPqeS6bdtvvf3hB+v6wgkYK+z7Tz7/gmHA+57vQ6wyUJnSwpRSOggtB2vJc4TCLBbof3n1+lo8NI18aPhqnc4L3UrRHv7DriJ5m1RGP4qODRwDladK96UZtm4YWfrsr//8u7/QKyYBqxnNK9946Xkw1XveF1IzKTexhJrDBvvGm3eyqKg4leeHl+4KPX0gqMVbWjOxNMXSlgNGuwTNG+mGmapvv/OnD/7avWJHxo7g1SfOnFROes472iily9d1gzjj+ujrWE+mUEQH+jWYbpXtAd0m+yFhsQWq7oGxsQita/Yqbi+nzn/0/ifdK3ZkYPj9vPzYmZOml5yrPLFZso5fB8s2wMKpTFM8yhKgCa47hkuO9jUK27LAMA1I8ZiWMMX4VnaGBl5UsaN07Esa5TfWxP7S62gbyRJ8JQmLLMjWSgCXl6B10VnFXs5P2JlHTp20q9a5h3/glO77jglLQRWWvCq2a8C/m6vQSjoo0IA4TmCzuanj4IElKJUC2NxsQKvVhCiMdCtjGxoDCZpEmD6Pv5Iwg40Lob5pi/e6Wlq4mULjcgwZbm5G0iPsfy5b2NjH1vHF40ct33j9oWcqzrFv1eChew7DscNH4PBBbCyIwF6wYOFAGfwK7glOCqkZwT33L8Oh5RoYNt5WOwHDTcErW+AGs4U3pGwwqB3LMqFxJdaiFu/1wK3gEsQHY2sj0bPdwMelwj0MGgHEDWsTb8AvP7v0r6vdIe9I/tjagTTNII5SCMMYwiiCDkaMx0mY5oHnkhiXJEaKx3QtRUpluBT2NPAJqMEkoy0B85RqBjfgKZhIGDWev40YfEpuHfQdzhNutX3XY0bn6VcRMzKZsAG2292+Y7Pfu+HMWq9+/RxmVgFLGD0Tc1n0O38C5W8L8Qg7ZeiOFaXdc93yaQN/3VI2UfT+bHVr9ik21QzbhnoxhDlM/YIRLYxk6/rBF3IrGsGMwkYwp859HtkdYfuYu1wYfyncncJoj93aZ91uOhmyJJmIMCYijIkIY7KjML0/7uP3VVyYM2yOb+H3gl240RMJo/+PmaYFFoaNYeJ/zujT1SRLeyKBKI0hxrQ3HyYUEURTRJzmdVFbMdZF9VG9xae7wyJN6aOmPNIEg8pTjBhv9/YXW1MzkbAMOxHHNIh88IlKwbUcKNke+BiUlt0SLPgVKDs+lCwXAsxX/DKWlaHKjopOy34JfNcDx3Gg7AVQwfBdHxzX0WV9UZR5LpQq2K+yBy4eO44Ntovh4023Zp9yY2s4/cjpk14Vzh17LS3d90IKS4sHYKlag5q/AGXbB9uwcJEqfVcjFBpHkf542rYdiKJQS05xlnDXBs3gFKdDM2nDRtjAtAMPVpbBMWy42rmh84miegfAZlSioF1P9ScWbsXE3mWw2WjBtUsbUL/YgfYVvG49ALh8MP9M37BPnf/o/Hw+ov7K4YePmi68HqyEjnmojVPewCWBCzSz4JBZgwoEYCUWOKkLvvIgsHAGKB/czAEX8yWjBGUTZ4qFM8+idNKo6NeCsnFG03IEeDA4AhUsb9FSo6WlcHsABwfQE8rBm4gzy/GAvkt1caYbeF2GSzPEG9hBkeEGWm3ju/vNEiSb9BF1wvqIeuytP/PY6ZO42s4f+mbHr3ytA0GlDEG5DAeCRThaPoyCfL08810up3gs8OZUPzQ7aIY1YpwZnTps4kz7YvU+cEwbLrXWMN/Re+V2qwNgMZ2hD4lTvK7daUK9fh2u/7cDzct4oumDcX0B2mvGapbN8VujV5566UXLsd8NlnAi+rHe+PVbjBTvfewa9KUCbsm4EeL+0P36rRf65oaWV/5NeV5mYtkOzebQYPFmxLj0Ety4aZ+kukLc+Kk8/8gcW+xWR/tT8c08/UUCSdfgdTgn8RURLg8sS3DbTk0wMxduNlphquDp83947+P84p0Z2/NXnz39aJaon2ahuZh2oAWZSpWpHvUWjC9VjgEsVksQqBJ0VISBexYOrjsM/fp8H4vBxs2YnrBEGIb6ro+cHUheRz5ofRswpRlHjuhrvS0ZCD350lBB2EzB8U1wyyaEDVQUUS0IXmpEDsANH681PjYd8x/4jHdSMytnZnYxs7Kz537/m//kF+/M6F7nGGfhrL7mTXhTP5Rfefq7Pzv0Zf/s42+U4PGv3g8ryf1wKV2Dy8k61JMGOs3/boFmw7VrV+HmzRtQWViEAB8GpOLK1VVotdsokPkWcBjYs6SjoLmewNpnHVg84sDB4z5c/bQNzTV8KJBhB+NKFaIPlyG5afz4V5+8+wt6KY4LO4CjwjcBuq4JGddrEqVIVCGLwD0/ojMm3jTbM8DBO2oHJlgeluFeSoF7rU4NN++wSYHHugyP6TvLmcPpObZoHeJe2i3H3R/zOCOxXFFKf4SC8nCGdbrD0BOgR9ZOE2eLccK6c7ofbNah7/5ivLMhPn3aCt+bdfBNagufZi185mBQqvNtWi64dWA34zaWY+DShqyDSwzLZwqqo6gHtyeF+5OK83yGaUZ53K8o1cf5aPC2DmXoWIcx+7rQTfXcIDrsZvtv28A186Cvne1Ke6un4978rMxhI7m7EGFMRBgTEcZEhDERYUxEGBMRxkSEMRFhTEQYExHGRIQxEWFMRBgTEcZEhDERYUxEGBMRxkSEMRFhTEQYExHGRIQxEWFMRBgTEcZEhDERYUxEGBMRxkSEMRFhTEQYExHGRIQxEWFMRBgTEcZEhDERYUxEGBMRxkSEMRFhTEQYExHGRIQxEWFMRBgTEcZEhDERYUxEGBMRxkSEMRFhTEQYExHGRIQxEWFMRBgTEcZEhDERYUxEGBMRxkSEMRFhTEQYExHGRIQxEWFMRBgTEcZEhDERYUxEGBMRxkSEMRFhTEQYExHGRIQxEWFMRBgTEcZEhDERYUxEGBMRxkSEMRFhTEQYExHGRIQxEWFMRBgTEcZEhDERYUxEGBMRxkSEMRFhTEQYExHGRIQxEWFMRBgTEcZEhDERYUxEGBMRxkSEMRFhTEQYExHGRIQxEWFMRBgTEcZEhDGZWpjRTW9BdWOfMrUw1SumOO4V1XtcMKzsDmOmJVmMf9DVfmbue9h+lzdXYb2i9kwcbaYjN9T5M/cZ1scwa0XZrEGMyu8iuytsNxknZhdn3e4K2+PlshfMR1ivlD1YFreT6YUNk9Ira4i4YS+507hz97DbxPyF7bM9axCZYUxEGBMRxmTvhA15at6JTC2MPfZ98jCYbYYV1nrtDZocds0dzPyWJAnplTOY3y1629kDphc2qpPDynvLigHOGkSRDjKqfA5ML2zSPWmnwU3LbZBFzG9JjoLEFrEP2H1h+wwRxkSEMRFhTEQYExHGRIQxEWFMRBgTEcZEhDERYUxEGBMRxkSEMRFhTEQYExHGRIQxEWFMRBgTEcZEhDERYUxEGBMRxkSEMZle2C7/0cfnlemFdf+4xMC07+9MigylfSfmzC1153dQFw+em2M/ZluSRUcoHYxRDLt2miD68nmhKs4VDOZnhC9MQeC5LpSqLlSdEiwaAVQrPlQWPCgvulBeyKOCx0HVgVLF1mmwQOGCj3m/bOXpDEH1lsp4jOFRlCzwAirHlI59G1xMddCx7UCmlN8dxdSw/X/vqVM/qq04b5z4STn8+pMPJCvWEVhtrsOl9jrciBugMgWGaeqlura2Bo3NBlSrVRxEAJABXLu2Cp12S18zK1RFFCpobaSw/s8QFo84sHTUhat/j6C1FueL1EkhvVT24j8uK9Wwfv7Op++9rV88JWxhzz33nL+yUvNP/BDgxIkVWIEaXIA61OsY+LNNDeoX9Bmo1Wo6T9TrWNZ72TzA+i5coHawlRVql9rpaaSOJ35bAzdebr31t7eibumeMOcd4bawH8ZwpwDwf1CUNKSGzc2tAAAAAElFTkSuQmCC;base64,iVBORw0KGgoAAAANSUhEUgAAAEwAAACQCAYAAACia41/AAAAAXNSR0IArs4c6QAAAARnQU1BAACxjwv8YQUAAAAJcEhZcwAAFxEAABcRAcom8z8AAArPSURBVHhe7Z3JjxxXHce/tfTeM9Mz3sYkColDHGcytkfEMkJckKIkSiYKRJCIE+LABQ6IC8qJf4Bbrkg5cOGAhFgSCcMIpJhDIBJRhASCBGETO4vHPT29V1d1Lfx+r6o6bXvG079e7Mz4fdqvq96vqt979XlLj6usMTR3DiPZ7mfE1zDRRb+08lK2+IhXXPshsLb2IPhVp9fl+mV6Z/i9Eu/V6QjFKxXOD8fonDg7EVwEF8VVXr5cp3ootlZB/d24ngF1OvAuxS+j9+b/3uwl0ZGZSNjXzj/99bnj1o/PfL9gnP/q59yT9oPYdBr40Kmi7rXgRwEsw4BhWKhtb6FWr6FUmqNUhGlaqFY/QavVpnPMpMQxoavgC/E9wNn2cf19B4VFG8srBVT/66H5UR+IQkRWhLCWt/tvH8uF9dyrv/nHhdfiAkZnImEvfOmpHyw/VH713I9KOPfF4ziFE9ikLr4SbKLmNZUwk2SYpomtrSq2alsol1lYCZZl4drmJ2i3mur4hE2hTiFhboRuzcfmvxwUl2wcP1PE9fd6aFwlk0Rkh8BWEcFf7kP74/Anv/7nhVfUAQETda0Jo+d6HrpN6kWvh+2wi0bXQXO7h/a2S8lLti46jT6cpo8ubTt1Th4cFQuS5E+eWj567QCeE8DtxmW6nO+GKu9RcumY16cRB3TVRQiZcC58SpRsDzpTEzbZhNo/TE3YvYIWJkQLE6KFCdHChGhhQrQwIVqYEC1MiBYmRAsTooUJ0cKEaGFCtDAhWpgQLUyIFiZECxOihQnRwoRoYUK0MCFamBAtTIgWJkQLE6KFCdHChGhhQrQwIVqYEC1MiBYmRAsTooUJ0cKEaGFCtDAhWpgQLUyIFiZECxOihQnRwoRoYUK0MCFamBAtTIgWJkQLE6KFCdHChGhhQrQwIVqYEC1MiBYmRAsTooUJ0cKEaGFCtDAhWpgQLUyIFiZECxOihQnRwoRoYUK0MCGzE3ZAf7GrHmFCZidsr9+1vE9/F/PUhKXXP/DAO2najdsd+4wyFWHRsJih/cEyNnx8nzOTKZn6SR3t6Wr45EnYrYwpfgHNbA1LHezpYfiE4Q+Nk3Ziyt/WMxPG/4PC7Rp7u2ucCnuJHJOZCbuhsVNu9N1kOsJ2EzIs7YAwuxF2QLl7wvbpyLu7I2wfSpuKMLVUDV+8CsS7ijSfxm4+vo+Y3aKfSkmPDefT2D5kdlNyt5/BUlnp8ZtFTiOlDO9PiTu/hu3xA+1nnTsnbJ+LSrnzI2yfo4UJ0cKEaGFCtDAhWpgQLUyIFiZECxOihQnRwoRoYUK0MCFamBAtTMiowna8k2UZpqsO8R9+1K22vKE3Qu0n8QG8n+SHwxORFjRUtrrdOogP3XpNYkZkqP9/X8qowtIa+fzBZ/wwyKeHInpxWzjH+2pLb9ENT0eI+ITB7lRIC7qhwIE5ig/tJ4QIs8kuc+sJuzDylFxZeeKBx8+svbZy+uyFldNrv3p05cwvan3ne1HI7SRZpkmjyYRJ2zgZMC2qwKLxRvtcU0Q9TaeokaeaqPTTVartZClKtqpsZnjL9ao8vVEHhkGIhuF869HTZ3+5snp249HVs9/hownpJ3fktgeHOb92/ixNr7/m8/mcH/YRUsUlI4ujhwt48NlcdOKxReM++yiaXhdbbgNt36FzQjUlTbLUarfQ7rSQzxeQy+ZVvNmqo9dz1PGJoSsJ/QheJ0Tz4z6yRQuV+7NoXeuju+3H51DnRK0sgvcXolYvNNqWB5t61Xf7F48VKq8c6dl//+nf3ujGJ+/MyMJe/PL6qhEFG5mCseyZPYrEU5B7zsyQFBpF8doVT8hbZyIFODaokXboJBWfJlwNjXouXvUDz4C0irh5FDPUhuNGQK0OMuh7qJLQb/z2rY2LfOpuDJq/Fy+fW1+lVX7DPtZd7lWqiCwfAa8EAYkLTES0DagZZjKiOEXUcl7D1CjjKUsplkRwYynOwlV+CqiLUaJICBcaRrCyvFTQbkB5bgtPW1q9eLmAT21sZSKzMW90qzYCL3jmjXc2/sDF7MbIwl48QyMsE27MrznL9uNbyOQNGs7UGFo83NBDwNOPXrRCIKA1IvAD2LYFy7IQhCyW9Kquv4OQNN+jN/pjZrgT45EfUIzXUxYWVgvAR4voflBw4FvPv/7O7/6UfHpHRha2fuqpVeqtjcdeLi6f/GYWywtLOJKvIIcM3mtdRc1rwjYs9H1PrVe12hYOLx1BpbKIRrOOVqsJx+nGFY5c663QZQ4+zvu7weewmM1/95S0pYeopQUTXjtA7RJ1cD+gzrYQbtEX/Sck7Ep+JGGjr7Yej+gImZyNUqWAymIZhysLOEpC5hdLKC0UUKZ4aSGPQjmLbMFCYS6LMsUL5RxyJZtiJjJFUx2baaIFn1Mmb8XrGNnL5KjuvBlPUQqpKTsGowsjeC3g6eb2fBotLrpuDx2vR3kPntuH1+Pko+8G1IMhLaS+inPed2ma9mmdo95W21mmpA7+1kzF8Bqm8rTW8o9lvH6Og0jYToxX7Z1h10E05uhiJhaW1h3/SBFvufPifBqjRME0zZq4irgd8V6KakkSH8/aRMLiKvnnsbhJ6VY1jOWofHosfh8WN6sU16PeP82rl9pVadxBNvEI252dmjRuMz87zFAYc/CkzVjYwePeFsaDfZDUCrcneoQxglVCCxOihQnRwoRoYUJEwtIvlHsZ8Qgb7cv3VqJE9X4XPsaUNOhD8S1oK/m7Gz8Q4bupgxQGCDjRfpw4T1uOBQE/nhMn/mxIZfBt77QsznN9fJ8uvh2eJmpPmLQpSJI6l87jeEDdxj03Ru/zne2ROHns4aOmZX770IpdXjwFFLIZ5KwsCTPR8R1Vf97KwOY+4DvR1KjFuQXMF8q0H6qeyZgWfS4/VsraWVi2BdOyUExitmWrW+Bx4v0k2TZsSibfAe4YsDM25o7kkM3ZJMyA2wmUOPgGIscG2gX0mxmffnj9+Xsf/+cSX+9ujOx4/dT6qpUNNh5+0Vr+/AsBjiwt4lCpgvn8XNxz1JuMTyOoxzcWnTbmimUU8iU4rkMxB/2+R2dQlYKe5XsMPGJ6gYd230E3cHEoO48CdU7d66AXevBpBO9UKN8s5MdsfOOweNiGYUVw2i6qHzbQuu7CrdE56S3qqwUHgTnNe/rrq3Y+3Lj/OW/52HMdLC5VsLhQwaHyIh4oHsOcXVRTj65tMPXspPfVQ5BkCsWMbiye8iGa/Q42nW1UvQYembsflUwZH3SuoU5xlqnu4twMDyKXO5OmUpbKoTZ0u1TOteu4fqmNxiUSvV0kYUvoXslN9yEIPzWK7HDj0BPecmmthdJcCcVSCQuleZwoHcdCpqTWKwWVqkYGt5j+pPlxYGE8wlp+F1W3gZrbwom546qDPupW0eh34YXxP5O4pQaul4NcBq9dJMzpOai36ti+2kHzSgijnYPRmIOzaTuRH5GwjSkJO/fUqmEZG9lsZtkHNTBpjHoOSS9V0MilCWDhyYY7gJZ0Wnj5WWM88jiWnLI3qv/oxVtew7h/6S/dJq2tnh84tLQ8//rbUxK2/pWnz0aW+VbBLhX4QUf8zRSntOGzhAXxizuIRzLXxt0UxyVwGfRJ+rpT/+bDoA6wTfT8Ho1A/5kLf57Sg9wnn3z2JPXGz2hwf4GyzTh6MKBOL1Gnb5mh8d0/Xvz9W0l4B4D/A4EARQUv/LPpAAAAAElFTkSuQmCC;opacity=40;" vertex="1" parent="1">
          <mxGeometry x="523.11" y="-264" width="28.88" height="81.71" as="geometry" />
        </mxCell>
        <mxCell id="fn3hpe5vCrqdeOl8oa49-21" value="" style="shape=image;imageAspect=0;aspect=fixed;verticalLabelPosition=bottom;verticalAlign=top;image=data:image/png,iVBORw0KGgoAAAANSUhEUgAAAEwAAADYCAYAAABBYAV+AAAAAXNSR0IArs4c6QAAAARnQU1BAACxjwv8YQUAAAAJcEhZcwAAFxEAABcRAcom8z8AAAwTSURBVHhe7ZrbjxtXGcC/uY/H9q6zCZs2vW0SWi6iVVpKK5DaQtqU5iFCpUWV+oTECw9I/QeQQsVfwTOPfaAVyUNbKvEAL7SAChUVFEEEJNkkuxsnXl/mevi+M55d27G9/mzvptl8v823Z86Z8bn85pwzjr0wBqOb3g1MPNaxF7725DMPJIb7ssqsIAMrghggyyjw1xZmN9kuM4uyQUyrezBf8tZSDKyfmqDDIo/Q+QwPdWpiOfY/NRJPqeS6bdtvvf3hB+v6wgkYK+z7Tz7/gmHA+57vQ6wyUJnSwpRSOggtB2vJc4TCLBbof3n1+lo8NI18aPhqnc4L3UrRHv7DriJ5m1RGP4qODRwDladK96UZtm4YWfrsr//8u7/QKyYBqxnNK9946Xkw1XveF1IzKTexhJrDBvvGm3eyqKg4leeHl+4KPX0gqMVbWjOxNMXSlgNGuwTNG+mGmapvv/OnD/7avWJHxo7g1SfOnFROes472iily9d1gzjj+ujrWE+mUEQH+jWYbpXtAd0m+yFhsQWq7oGxsQita/Yqbi+nzn/0/ifdK3ZkYPj9vPzYmZOml5yrPLFZso5fB8s2wMKpTFM8yhKgCa47hkuO9jUK27LAMA1I8ZiWMMX4VnaGBl5UsaN07Esa5TfWxP7S62gbyRJ8JQmLLMjWSgCXl6B10VnFXs5P2JlHTp20q9a5h3/glO77jglLQRWWvCq2a8C/m6vQSjoo0IA4TmCzuanj4IElKJUC2NxsQKvVhCiMdCtjGxoDCZpEmD6Pv5Iwg40Lob5pi/e6Wlq4mULjcgwZbm5G0iPsfy5b2NjH1vHF40ct33j9oWcqzrFv1eChew7DscNH4PBBbCyIwF6wYOFAGfwK7glOCqkZwT33L8Oh5RoYNt5WOwHDTcErW+AGs4U3pGwwqB3LMqFxJdaiFu/1wK3gEsQHY2sj0bPdwMelwj0MGgHEDWsTb8AvP7v0r6vdIe9I/tjagTTNII5SCMMYwiiCDkaMx0mY5oHnkhiXJEaKx3QtRUpluBT2NPAJqMEkoy0B85RqBjfgKZhIGDWev40YfEpuHfQdzhNutX3XY0bn6VcRMzKZsAG2292+Y7Pfu+HMWq9+/RxmVgFLGD0Tc1n0O38C5W8L8Qg7ZeiOFaXdc93yaQN/3VI2UfT+bHVr9ik21QzbhnoxhDlM/YIRLYxk6/rBF3IrGsGMwkYwp859HtkdYfuYu1wYfyncncJoj93aZ91uOhmyJJmIMCYijIkIY7KjML0/7uP3VVyYM2yOb+H3gl240RMJo/+PmaYFFoaNYeJ/zujT1SRLeyKBKI0hxrQ3HyYUEURTRJzmdVFbMdZF9VG9xae7wyJN6aOmPNIEg8pTjBhv9/YXW1MzkbAMOxHHNIh88IlKwbUcKNke+BiUlt0SLPgVKDs+lCwXAsxX/DKWlaHKjopOy34JfNcDx3Gg7AVQwfBdHxzX0WV9UZR5LpQq2K+yBy4eO44Ntovh4023Zp9yY2s4/cjpk14Vzh17LS3d90IKS4sHYKlag5q/AGXbB9uwcJEqfVcjFBpHkf542rYdiKJQS05xlnDXBs3gFKdDM2nDRtjAtAMPVpbBMWy42rmh84miegfAZlSioF1P9ScWbsXE3mWw2WjBtUsbUL/YgfYVvG49ALh8MP9M37BPnf/o/Hw+ov7K4YePmi68HqyEjnmojVPewCWBCzSz4JBZgwoEYCUWOKkLvvIgsHAGKB/czAEX8yWjBGUTZ4qFM8+idNKo6NeCsnFG03IEeDA4AhUsb9FSo6WlcHsABwfQE8rBm4gzy/GAvkt1caYbeF2GSzPEG9hBkeEGWm3ju/vNEiSb9BF1wvqIeuytP/PY6ZO42s4f+mbHr3ytA0GlDEG5DAeCRThaPoyCfL08810up3gs8OZUPzQ7aIY1YpwZnTps4kz7YvU+cEwbLrXWMN/Re+V2qwNgMZ2hD4lTvK7daUK9fh2u/7cDzct4oumDcX0B2mvGapbN8VujV5566UXLsd8NlnAi+rHe+PVbjBTvfewa9KUCbsm4EeL+0P36rRf65oaWV/5NeV5mYtkOzebQYPFmxLj0Ety4aZ+kukLc+Kk8/8gcW+xWR/tT8c08/UUCSdfgdTgn8RURLg8sS3DbTk0wMxduNlphquDp83947+P84p0Z2/NXnz39aJaon2ahuZh2oAWZSpWpHvUWjC9VjgEsVksQqBJ0VISBexYOrjsM/fp8H4vBxs2YnrBEGIb6ro+cHUheRz5ofRswpRlHjuhrvS0ZCD350lBB2EzB8U1wyyaEDVQUUS0IXmpEDsANH681PjYd8x/4jHdSMytnZnYxs7Kz537/m//kF+/M6F7nGGfhrL7mTXhTP5Rfefq7Pzv0Zf/s42+U4PGv3g8ryf1wKV2Dy8k61JMGOs3/boFmw7VrV+HmzRtQWViEAB8GpOLK1VVotdsokPkWcBjYs6SjoLmewNpnHVg84sDB4z5c/bQNzTV8KJBhB+NKFaIPlyG5afz4V5+8+wt6KY4LO4CjwjcBuq4JGddrEqVIVCGLwD0/ojMm3jTbM8DBO2oHJlgeluFeSoF7rU4NN++wSYHHugyP6TvLmcPpObZoHeJe2i3H3R/zOCOxXFFKf4SC8nCGdbrD0BOgR9ZOE2eLccK6c7ofbNah7/5ivLMhPn3aCt+bdfBNagufZi185mBQqvNtWi64dWA34zaWY+DShqyDSwzLZwqqo6gHtyeF+5OK83yGaUZ53K8o1cf5aPC2DmXoWIcx+7rQTfXcIDrsZvtv28A186Cvne1Ke6un4978rMxhI7m7EGFMRBgTEcZEhDERYUxEGBMRxkSEMRFhTEQYExHGRIQxEWFMRBgTEcZEhDERYUxEGBMRxkSEMRFhTEQYExHGRIQxEWFMRBgTEcZEhDERYUxEGBMRxkSEMRFhTEQYExHGRIQxEWFMRBgTEcZEhDERYUxEGBMRxkSEMRFhTEQYExHGRIQxEWFMRBgTEcZEhDERYUxEGBMRxkSEMRFhTEQYExHGRIQxEWFMRBgTEcZEhDERYUxEGBMRxkSEMRFhTEQYExHGRIQxEWFMRBgTEcZEhDERYUxEGBMRxkSEMRFhTEQYExHGRIQxEWFMRBgTEcZEhDERYUxEGBMRxkSEMRFhTEQYExHGRIQxEWFMRBgTEcZEhDERYUxEGBMRxkSEMRFhTEQYExHGRIQxEWFMRBgTEcZEhDERYUxEGBMRxkSEMRFhTEQYExHGRIQxEWFMRBgTEcZEhDGZWpjRTW9BdWOfMrUw1SumOO4V1XtcMKzsDmOmJVmMf9DVfmbue9h+lzdXYb2i9kwcbaYjN9T5M/cZ1scwa0XZrEGMyu8iuytsNxknZhdn3e4K2+PlshfMR1ivlD1YFreT6YUNk9Ira4i4YS+507hz97DbxPyF7bM9axCZYUxEGBMRxmTvhA15at6JTC2MPfZ98jCYbYYV1nrtDZocds0dzPyWJAnplTOY3y1629kDphc2qpPDynvLigHOGkSRDjKqfA5ML2zSPWmnwU3LbZBFzG9JjoLEFrEP2H1h+wwRxkSEMRFhTEQYExHGRIQxEWFMRBgTEcZEhDERYUxEGBMRxkSEMRFhTEQYExHGRIQxEWFMRBgTEcZEhDERYUxEGBMRxkSEMZle2C7/0cfnlemFdf+4xMC07+9MigylfSfmzC1153dQFw+em2M/ZluSRUcoHYxRDLt2miD68nmhKs4VDOZnhC9MQeC5LpSqLlSdEiwaAVQrPlQWPCgvulBeyKOCx0HVgVLF1mmwQOGCj3m/bOXpDEH1lsp4jOFRlCzwAirHlI59G1xMddCx7UCmlN8dxdSw/X/vqVM/qq04b5z4STn8+pMPJCvWEVhtrsOl9jrciBugMgWGaeqlura2Bo3NBlSrVRxEAJABXLu2Cp12S18zK1RFFCpobaSw/s8QFo84sHTUhat/j6C1FueL1EkhvVT24j8uK9Wwfv7Op++9rV88JWxhzz33nL+yUvNP/BDgxIkVWIEaXIA61OsY+LNNDeoX9Bmo1Wo6T9TrWNZ72TzA+i5coHawlRVql9rpaaSOJ35bAzdebr31t7eibumeMOcd4bawH8ZwpwDwf1CUNKSGzc2tAAAAAElFTkSuQmCC;opacity=40;" vertex="1" parent="1">
          <mxGeometry x="575.7900000000001" y="-350" width="28.15" height="80" as="geometry" />
        </mxCell>
        <mxCell id="fn3hpe5vCrqdeOl8oa49-46" value="" style="endArrow=none;html=1;fillColor=#dae8fc;strokeColor=#6c8ebf;strokeWidth=1;" edge="1" parent="1">
          <mxGeometry width="50" height="50" relative="1" as="geometry">
            <mxPoint x="392.11" y="-184.5" as="sourcePoint" />
            <mxPoint x="502.11" y="-184" as="targetPoint" />
          </mxGeometry>
        </mxCell>
        <mxCell id="fn3hpe5vCrqdeOl8oa49-58" value="" style="rounded=1;whiteSpace=wrap;html=1;strokeColor=#7EA6E0;fillColor=#D4E1F5;" vertex="1" parent="1">
          <mxGeometry x="393.11" y="-130" width="110" height="210" as="geometry" />
        </mxCell>
        <mxCell id="fn3hpe5vCrqdeOl8oa49-59" value="" style="shape=image;imageAspect=0;aspect=fixed;verticalLabelPosition=bottom;verticalAlign=top;image=data:image/png,iVBORw0KGgoAAAANSUhEUgAAAEwAAACSCAYAAADvoyx0AAAAAXNSR0IArs4c6QAAAARnQU1BAACxjwv8YQUAAAAJcEhZcwAAFxEAABcRAcom8z8AAArJSURBVHhe7ZxLjxxXFcf/9a6u7p7uGc8kzsPBgtjZgJXYIRFIoGySWE6iKBEbBEiQKMOKBZ8g4jOwchAPCdixDFIEG5BjIJEcjSCCBUGxE5LYcTLTPf2uJ+fc6hr3tGc8fbp7Bj/ub3T63nuq+tap/z33VrmqZWhkGMPyhrxw6ptPZqn9mGG4gzQ1MsRAmiZIh9thWjCH1Z0otvH+pnmjPeeDRYdItoIjqG0VbT68CiGifSKjmQ28yEjePr/21h/ZuxcTCvbELwOv9P3IArI0Q5qQUQAZ/TGGYVBHO3RFrmJLluX7wtxl37mQ5bFQ93w4dUgaX+VTh6cNJlW4QeeRxAk6WYxW2PvV+bW//YD32IuJIn/h5NM/L9Wsl5LlJjInRpYMN2xjuwwspvJMdIT5og5JIhWDlIcwjIXF4rLjIN500OkZaPcGv3hz7c2X1W57kPe1By88cuast5yuZscuwwhCyveJvjY38tPO4SOPtneH97oWJ+ukvscZR1MyWw8QXQ7Qadpod6PXzq+d+6HacQ8mOvPnT5w5W74/XfW+dhlOPYGV0NykryaUanE2XBxoNFNqp7R4cGbZjkPTNkWSUDrStu3hyylEKgS7cX8US8xGM9AxaN0kD4WR0jRUWcftK2WEH1TR+dxFuxW/dv7vcxTszPEnzx4+4a8eX01x5GgNi0aNjmliPWzhSn9DrRlxFKHb7aLT7cC2bKwsr6DX66HZbCKOw63pMS3jgu3IcCNdj9C5GqH9aYTafS78BQuDVorueoxBJ4FhkXBXKlMJxqmyJw/Wvvjc4gPeqWPPVXHs+GEcPXQv7lpahF21EAUJqvUS/IoL06VArBjBgof7HrgHlkdZiAFML4PjG3ADa2pzyLyx9uh2Nt7u+BZsz0TUzdBvJKjd4yJYstVFKuykiHs0A+jCg7aLZNND1LMQhumFD6988PrwdG+IusDuCacwZUgU0ukPIvQHIfphiJDq8SBGNKCpSWVM25OIpmFIdx5UV201NfiKVEyT6W2vvpSfr+BU8tWcKa7qXM6Y5IrJBLuOYTDbP3KuC+o6x/6yy+HmFcWUgjHDENQqyB+81NMfVZVri7zF/nmxW1fKv7WxqIyXsyEWjGUqjBnKNBIO1ZQ6I55hO7+pnN3o4zqf8qs4inZx3NzLy1bemo0ZMmxn5hHU1PDBtwLIK/OOZ+6CzWutmJ39iWTugt0yTJl6d65gUybgnSsYM4Vod7ZgU6AFE6IFEzKxYDfP7cL/l7ln2LxvFG829JQUMrlg9O8yfuNjGRZsfktkmPkjnzS5ZkmEARmXcRori5IQg5j8MZdyC4d98VuqJImVL6aSn+buaAlbgjiieEKKIc59iSoz2me2xWWiB4jHlr70XPUe69TK4xlqix5ceEosJQ6djG87sElAg4KxaFIGXoBDC4sw+ek1+VzLQcn1yEpk/kQWDM1zXNi2DdOy4FK9Sn04tgvTpoEjH28bN9O0kUYGsthC7W4fftmhOhCHuWgsWdZ2kTblDxAnWnKePf702eUT1urRV1q493gNK/5dqHhlCj5AYPnqyUBCoxtRJrFx9pX8Eo0qZUQ0QEYjnIc5+QrHe/LThlbUxdVBg8oeak4ZX6jchSu9BvmaNBZFv2PQQEW9FCGZX6WcoJHrbHbR3Gih8WkHjY8oSz8IEH+0gM667BH1ZFPSMpFSSrfX+9igA179rIX1jY56Tu72PTg9yro+ZURUwUJWRzVdgEs+PwqwkNaxYCyiZiyRcTm51ek7lawGL6nAjkvw0wpqWEIpq6q2tYvZCe1r04BWqvDMMixq2/BVZlqWTWpalHF06pn8EjXRN54/cfq16hHjlYVvbKB62EfVr6NMGbRM5bJbU/sUGVR0WIy7ao86J46R1kwylWH9JlpxBzWXMqx8N2XYhsq6hJ8536DP/HGYod5c9fs9dHpttGigmx/FSD71kKyX0GmZ6Hajn51bO7eqvrQHE4X/4mNP/7paDb6b+iGtHepxHAVB0yE2MiM2jeJHA/yDgeKhHcPnw83i5wG8KOcP97iPiQ6tpl3Mr++o5KnuGg61aTEfe5vM7xrVyw2C1ymGY1WwrhRMasb8aZgJrbQJnUNsoEPrcLPX/s25C+e/l+98YyaK+ltfP/2dNDZOJ32jl/QxgJPUKbGeWXjAWaweMbFi1ZU4G2kLEZ1Msa7wCfKVrdVu01Sw4Hu+Ei2MQkRke6IE56elucDcL6+V3C/7GC7Ipd4G8VshFqu8Yqv3kN3PKRYKTA0OiWRulpF0zA3Dsn5PF/pGasTeZtYthUn8xrl3/vJb1eEeTCTYOC//+Kklo+H+6cGnKl956JkAXw0eogANvDt4H+2kq0afT8Smq1Wv38elS+/D5yl8aAWDcEACbmJzs6kEGM3IaeCsSgYZ2ldibH48QNRPcf+jZcTk+2Stm2d1Rmtw14H577vR+4/3DzPMnvjdP/+wPuxCxOT3YSO4nqOuT+pNMgWUWlR38ra611HGI8/byXgi8LaiLPy0z8w27Cvv91pb+eh4nPlUVTEoo/h7FgU7JVMJ1v0k8yggI41ofaGRDEmdMKYbxUHe5hFn47pqhwbdF9G0UXU6EZqN6dA3s3FfXPJPsCjLM16b6B6MffwbEM78wlgtujAagZ95+ZnImUqwLUamE9e2FvLRWTZSz3ffYZ85UXQ53vVoe7YTnv37dxxaMCFaMCFaMCFaMCFaMCFaMCFaMCFaMCFaMCFaMCFaMCFaMCFaMCFaMCFaMCFaMCFaMCFaMCFaMCFaMCFaMCFaMCFaMCFaMCFaMCFaMCFaMCFaMCFaMCFaMCFaMCFaMCFaMCFaMCFaMCFaMCFaMCFaMCFaMCFaMCFaMCFaMCFaMCFaMCFaMCFaMCFaMCFaMCFaMCFaMCFaMCFaMCFaMCFaMCFaMCFaMCFaMCFaMCFaMCFaMCFaMCFaMCFaMCFaMCFaMCFaMCFaMCFaMCFaMCFaMCFaMCFaMCFaMCH7L9jU/032zclsgrEYhSA71cm2/b/QI/5blbll2JYOY2Jsa97CQhXMLNi4BtwetW3sw/9wftAc3KK/k7JFOauNs5NvTuyPYKMB73ZSzLxObKd+5tX3GLMLNhoY14v2aH2EXdy3DAc3JW8TtGBCtGBCZhJs6vXoFl7EDjbDbvUVn5hNsEKAQoTR9qgdBOPH2qeb5IPLsHHh9lvIfer/YATbLXj2z8tGGW/PkYNdw24DtGBCtGBCtGBCtGBCtGBCtGBCtGBCtGBCtGBCtGBCtGBCtGBCtGBCtGBCtGBCtGBCphLMsmzTzFALKi4qSx7qVoC6G6BKdW5XFtloG5VlKoOaraxcd8kcqjsoLVgoka+0MKMN+/ArFryyBTcw4VPfftVWdS8gX4nKEpWuww9ja4M4nDpRpnpVsPrtZ5cTJ/3p4cedk19+sdZ8dOU4kBh4d/0SOnEPCf0xtm2j3+/hww8vwfdKOLS0jH4Uot3aRKu9CWQpDGPGJKevp2GK1tUEmx9HiAcJ7nskQBxmuPxuFxmHkhnIeg7ify3Wkv9W34mt/o9ev/Dnz/IOZEwl2Kuvvmq+995blQdPVuyHXyqnD9cfVv61xkX6bNBfTp2sQY2LjTWq01+dPeyjfXjDHOHuGhf5Azj6RD1vr40eo47OX0tmu1GPH3/7jfZPSOfhhn3nNviVl+J2OQ/NbQTwP4Ihl+ZlR7qqAAAAAElFTkSuQmCC;opacity=80;" vertex="1" parent="1">
          <mxGeometry x="409.08000000000004" y="-131" width="25.51" height="49" as="geometry" />
        </mxCell>
        <mxCell id="fn3hpe5vCrqdeOl8oa49-60" value="" style="shape=image;imageAspect=0;aspect=fixed;verticalLabelPosition=bottom;verticalAlign=top;image=data:image/png,iVBORw0KGgoAAAANSUhEUgAAAEwAAACQCAYAAACia41/AAAAAXNSR0IArs4c6QAAAARnQU1BAACxjwv8YQUAAAAJcEhZcwAAFxEAABcRAcom8z8AAArPSURBVHhe7Z3JjxxXHce/tfTeM9Mz3sYkColDHGcytkfEMkJckKIkSiYKRJCIE+LABQ6IC8qJf4Bbrkg5cOGAhFgSCcMIpJhDIBJRhASCBGETO4vHPT29V1d1Lfx+r6o6bXvG079e7Mz4fdqvq96vqt979XlLj6usMTR3DiPZ7mfE1zDRRb+08lK2+IhXXPshsLb2IPhVp9fl+mV6Z/i9Eu/V6QjFKxXOD8fonDg7EVwEF8VVXr5cp3ootlZB/d24ngF1OvAuxS+j9+b/3uwl0ZGZSNjXzj/99bnj1o/PfL9gnP/q59yT9oPYdBr40Kmi7rXgRwEsw4BhWKhtb6FWr6FUmqNUhGlaqFY/QavVpnPMpMQxoavgC/E9wNn2cf19B4VFG8srBVT/66H5UR+IQkRWhLCWt/tvH8uF9dyrv/nHhdfiAkZnImEvfOmpHyw/VH713I9KOPfF4ziFE9ikLr4SbKLmNZUwk2SYpomtrSq2alsol1lYCZZl4drmJ2i3mur4hE2hTiFhboRuzcfmvxwUl2wcP1PE9fd6aFwlk0Rkh8BWEcFf7kP74/Anv/7nhVfUAQETda0Jo+d6HrpN6kWvh+2wi0bXQXO7h/a2S8lLti46jT6cpo8ubTt1Th4cFQuS5E+eWj567QCeE8DtxmW6nO+GKu9RcumY16cRB3TVRQiZcC58SpRsDzpTEzbZhNo/TE3YvYIWJkQLE6KFCdHChGhhQrQwIVqYEC1MiBYmRAsTooUJ0cKEaGFCtDAhWpgQLUyIFiZECxOihQnRwoRoYUK0MCFamBAtTIgWJkQLE6KFCdHChGhhQrQwIVqYEC1MiBYmRAsTooUJ0cKEaGFCtDAhWpgQLUyIFiZECxOihQnRwoRoYUK0MCFamBAtTIgWJkQLE6KFCdHChGhhQrQwIVqYEC1MiBYmRAsTooUJ0cKEaGFCtDAhWpgQLUyIFiZECxOihQnRwoRoYUK0MCGzE3ZAf7GrHmFCZidsr9+1vE9/F/PUhKXXP/DAO2najdsd+4wyFWHRsJih/cEyNnx8nzOTKZn6SR3t6Wr45EnYrYwpfgHNbA1LHezpYfiE4Q+Nk3Ziyt/WMxPG/4PC7Rp7u2ucCnuJHJOZCbuhsVNu9N1kOsJ2EzIs7YAwuxF2QLl7wvbpyLu7I2wfSpuKMLVUDV+8CsS7ijSfxm4+vo+Y3aKfSkmPDefT2D5kdlNyt5/BUlnp8ZtFTiOlDO9PiTu/hu3xA+1nnTsnbJ+LSrnzI2yfo4UJ0cKEaGFCtDAhWpgQLUyIFiZECxOihQnRwoRoYUK0MCFamBAtTMiowna8k2UZpqsO8R9+1K22vKE3Qu0n8QG8n+SHwxORFjRUtrrdOogP3XpNYkZkqP9/X8qowtIa+fzBZ/wwyKeHInpxWzjH+2pLb9ENT0eI+ITB7lRIC7qhwIE5ig/tJ4QIs8kuc+sJuzDylFxZeeKBx8+svbZy+uyFldNrv3p05cwvan3ne1HI7SRZpkmjyYRJ2zgZMC2qwKLxRvtcU0Q9TaeokaeaqPTTVartZClKtqpsZnjL9ao8vVEHhkGIhuF869HTZ3+5snp249HVs9/hownpJ3fktgeHOb92/ixNr7/m8/mcH/YRUsUlI4ujhwt48NlcdOKxReM++yiaXhdbbgNt36FzQjUlTbLUarfQ7rSQzxeQy+ZVvNmqo9dz1PGJoSsJ/QheJ0Tz4z6yRQuV+7NoXeuju+3H51DnRK0sgvcXolYvNNqWB5t61Xf7F48VKq8c6dl//+nf3ujGJ+/MyMJe/PL6qhEFG5mCseyZPYrEU5B7zsyQFBpF8doVT8hbZyIFODaokXboJBWfJlwNjXouXvUDz4C0irh5FDPUhuNGQK0OMuh7qJLQb/z2rY2LfOpuDJq/Fy+fW1+lVX7DPtZd7lWqiCwfAa8EAYkLTES0DagZZjKiOEXUcl7D1CjjKUsplkRwYynOwlV+CqiLUaJICBcaRrCyvFTQbkB5bgtPW1q9eLmAT21sZSKzMW90qzYCL3jmjXc2/sDF7MbIwl48QyMsE27MrznL9uNbyOQNGs7UGFo83NBDwNOPXrRCIKA1IvAD2LYFy7IQhCyW9Kquv4OQNN+jN/pjZrgT45EfUIzXUxYWVgvAR4voflBw4FvPv/7O7/6UfHpHRha2fuqpVeqtjcdeLi6f/GYWywtLOJKvIIcM3mtdRc1rwjYs9H1PrVe12hYOLx1BpbKIRrOOVqsJx+nGFY5c663QZQ4+zvu7weewmM1/95S0pYeopQUTXjtA7RJ1cD+gzrYQbtEX/Sck7Ep+JGGjr7Yej+gImZyNUqWAymIZhysLOEpC5hdLKC0UUKZ4aSGPQjmLbMFCYS6LMsUL5RxyJZtiJjJFUx2baaIFn1Mmb8XrGNnL5KjuvBlPUQqpKTsGowsjeC3g6eb2fBotLrpuDx2vR3kPntuH1+Pko+8G1IMhLaS+inPed2ma9mmdo95W21mmpA7+1kzF8Bqm8rTW8o9lvH6Og0jYToxX7Z1h10E05uhiJhaW1h3/SBFvufPifBqjRME0zZq4irgd8V6KakkSH8/aRMLiKvnnsbhJ6VY1jOWofHosfh8WN6sU16PeP82rl9pVadxBNvEI252dmjRuMz87zFAYc/CkzVjYwePeFsaDfZDUCrcneoQxglVCCxOihQnRwoRoYUJEwtIvlHsZ8Qgb7cv3VqJE9X4XPsaUNOhD8S1oK/m7Gz8Q4bupgxQGCDjRfpw4T1uOBQE/nhMn/mxIZfBt77QsznN9fJ8uvh2eJmpPmLQpSJI6l87jeEDdxj03Ru/zne2ROHns4aOmZX770IpdXjwFFLIZ5KwsCTPR8R1Vf97KwOY+4DvR1KjFuQXMF8q0H6qeyZgWfS4/VsraWVi2BdOyUExitmWrW+Bx4v0k2TZsSibfAe4YsDM25o7kkM3ZJMyA2wmUOPgGIscG2gX0mxmffnj9+Xsf/+cSX+9ujOx4/dT6qpUNNh5+0Vr+/AsBjiwt4lCpgvn8XNxz1JuMTyOoxzcWnTbmimUU8iU4rkMxB/2+R2dQlYKe5XsMPGJ6gYd230E3cHEoO48CdU7d66AXevBpBO9UKN8s5MdsfOOweNiGYUVw2i6qHzbQuu7CrdE56S3qqwUHgTnNe/rrq3Y+3Lj/OW/52HMdLC5VsLhQwaHyIh4oHsOcXVRTj65tMPXspPfVQ5BkCsWMbiye8iGa/Q42nW1UvQYembsflUwZH3SuoU5xlqnu4twMDyKXO5OmUpbKoTZ0u1TOteu4fqmNxiUSvV0kYUvoXslN9yEIPzWK7HDj0BPecmmthdJcCcVSCQuleZwoHcdCpqTWKwWVqkYGt5j+pPlxYGE8wlp+F1W3gZrbwom546qDPupW0eh34YXxP5O4pQaul4NcBq9dJMzpOai36ti+2kHzSgijnYPRmIOzaTuRH5GwjSkJO/fUqmEZG9lsZtkHNTBpjHoOSS9V0MilCWDhyYY7gJZ0Wnj5WWM88jiWnLI3qv/oxVtew7h/6S/dJq2tnh84tLQ8//rbUxK2/pWnz0aW+VbBLhX4QUf8zRSntOGzhAXxizuIRzLXxt0UxyVwGfRJ+rpT/+bDoA6wTfT8Ho1A/5kLf57Sg9wnn3z2JPXGz2hwf4GyzTh6MKBOL1Gnb5mh8d0/Xvz9W0l4B4D/A4EARQUv/LPpAAAAAElFTkSuQmCC;opacity=80;" vertex="1" parent="1">
          <mxGeometry x="460.33000000000004" y="-15.650000000000006" width="28.16" height="53.36" as="geometry" />
        </mxCell>
        <mxCell id="fn3hpe5vCrqdeOl8oa49-61" value="" style="shape=image;imageAspect=0;aspect=fixed;verticalLabelPosition=bottom;verticalAlign=top;image=data:image/png,iVBORw0KGgoAAAANSUhEUgAAAEwAAADXCAYAAACwNrerAAAAAXNSR0IArs4c6QAAAARnQU1BAACxjwv8YQUAAAAJcEhZcwAAFxEAABcRAcom8z8AAAviSURBVHhe7ZtbjxxHFYBPX+fSsztre+31xheIDZYdASIyCZcIgaIYKyEBRQIeIBIElEXiL0T8ECcC5wVekEAgXiK/BDlGCVIusuABEHFuvsSxvTs7O9O3qm7Oqe6xx5vx7py5bLT2+VZnqqu6u7rq66pq7/QaRsAq0+3OSP0Y6aRnnjkRVH3vh/sf8fc9+KMd0UPBUcgygH+GF2AtC0FhxsbjbNeFJArhwrsXoFqrwc6d8xDHMbQ7bei0VgBPMceNhQuQJQDtywpWLsWg4gz2PxSACgGunO+AxrY42gYduqD/tbuavRdcXMmzP5w5f6ZT1sBiJGHPPXdyMVfu2QeebB4+9r0AHnaPQY5VnVfvwJrugsq1qdh1XAhR2LskrFqD+fndECcxrLZb0G618Bw8yxpvwFpoXMU5tK8oaF1MII01HHy4ASrK4NJbXch1DpBbkHd9sP+9F9r/cf+X2fDNP7358uWyChaj3eAutiEDleDdjLsaQkhN0HbcwaC0W+xLME2x8QlFiPkQ82GOZWXQ9jgRoTCsh6RpHGkUVK6wXKe472bgfp2hO0uVvRiJkYQlrpNneZ6qhERoiDIFUaIgjpTJp0ZMGZRHsXTHSVqKedpOsYPUyfGD7hymJAQjIzlUjm0zZYoC5WFKSwUqS13HwWE3GqMvITST+mYTzSyrV0Dbvf2miArKstu2i+xY0U+Z79Xd292fjrtmjnv+PYcIYyLCmIgwJiKMiQhjIsKYiDAmIoyJCGMiwpiIMCYijIkIYyLCmIgwJiKMiQhjIsKYiDAmIoyJCGMiwpiIMCYijIkIYyLCmIgwJiKMiQhjIsKYiDAmIoyJCGMiwpiIMCYijIkIYyLCmIgwJiKMiQhjIsKYiDAmIoyJCGMiwpiIMCYijIkIYyLCmIgwJiKMiQhjIsKYiDAmIoyJCGMiwpiIMCYijIkIYyLCmIgwJiKMiQhjIsKYiDAmIoyJCGMiwpiIMCYijIkIYyLCmIgwJiKMiQhjIsKYiDAmIoyJCGMiwpiIMCYijIkIYyLCmIgwJiKMiQhjIsKYiDAmIoyJCGMiwpiIMCYijIkIYyLCmIgwJiKMiQhjIsKYiDAmIoyJCGMiwpiIMCYijIkIYyLCmIgwJiKMiQhjIsKYiDAmIoyJCGMiwpiIMCYijIkIYyLCmExHWF6mxJ22tynTG2EkZ5CgO5VvE8YT1t/59WmJVaZ3CxMbYcbdOlnEgKJtzdjC1gsx4vribmN6a9iwrDc8SmwhWydsUMcm1dktlLY1wqYpaxBTrHs6wqjBvUYPaPw0Xd1kSheZ7gj7tGRNkfGF9Rug7e1uZBO2btG/SxBhTEQYExHGRIQxGUvYyA/Fbfwknc4I20jINv9nx/SmZG/4bXNB65mMsH4pGwkatK8ndZwgeumUGU9Yf4OJjRq9/lhio+M59OpZn06B6U3JfgZ1YIqdmiZbI+wuYmuF3QVvRGSEMRFhTEQYExHGRIQxEWFMRBgTEcZEhDERYUxEGBMRxkSEMRFhTEQYExHGRIQxEWFMRBgTEcZEhDERYUxEGBMRxkSEMRFhTMYTRq/++1//323/OXIAkxlho0hbL3ubsJmwgV16/vmTy3iitnBvERZYNm3gzl7gARbVTsV2frPclPXKy7Jxolffzbro76jK+m9F7/rmAP3s8uFl2ujD7BgGp0w35IvIzsXFRxYWFj7nu3P3vfLKf7++o1n77s77/eauIz7c15jHNlnwcbgCaa6wyblpge04oLSG1dUWeJ4L9Vrd5JMkNkF/Ikayb3VstMg1QNLNIG5ryHQOs4u+SdeuYluMKxvy1AbregDJspP8xX/nij8/t3dx797PXjtw9UO4DFjDcNC92BTbdn5Vs70/Opbz5+Zc9UwcqdNJrA8kocZGZtBpJSYS3DaxVgZ2IMVUdS1IOxaWAaYACrepTIdFOk5oSrEeHZEUx4ihejPKJzgesAywjFKtsC22PqBBnZ71qy97tnv6C/Hxw2U3h4Lu0aY89pVvvVSrVn6qIIEsz1CgBY26B409bj6z6Fo7Kg28zRasJh1QeLvz8j9/0zTNdAbdsAuObYPvVyDLMkhVCgpjEtAIzbMcVJxDGmU42nKozbmmLGphW+gY/MkVdnXNz1XoWLGlsNQGlaBAnf1N5fDi2TfP/s5UuAlDCfvBQ0+c8gNrSTVbkDk4zDNcCLDjGV43x36TJMK1nGKKITelYd5GWQTJpsabNa88blwKIcUHrWdUP01H2rYdFFU0A3dgmUOB5XTt0Mt1x7NCHH2tTvf3r7716k/KIzdkqFY//eUnT1X2pEv6gfchr0XYoKKcTu7veLGNgY3MoZBDebMwbzE0umkmUFvp5tEzyTwcaAPl5VdxPfuwAZ0bHqx11Ivn3j67VJy5MVTNpjx57OSpXUfdpf0/DmFhXw0aEOC1LWinXVhO2lgLriG4mMdRCFEc4fRzoNmcgziOodvFaapp8e3d6uGhxrHOKk+gERa1MghXFATzHvh1G9Jusd7StAUcafmVBiTvzUDnWgXW2uqFc+fP/rKoZGOGEnby0GOnDn4tWPrqrxvwwNFFWITd+Hi14XJ8Ay6sXcK7hg1COa3VFVjB8D0fDhz4DLRXV+HatasQ4xMxw1s96jTsl7apRNyp0xxW3k/gxrsx7Dlag/q8C+F1Ba1LCYTLCiwXD/sIR9gHKOy6zxI21GQxB+EIUSnepTiBKI0hUgmKSCFN8EkYK0hThQt5ZhqrUlxMY3wWYUr5DNPMpFMOXL01BqW0zppm4+KfUxmmvOE6mOFWFzqKrkcXx6AnHT39TEpl2LreviLIb7lNKZ07RphrDxMkyVwbo7RTXL/cNp/jMZywfnqzqpxeRdI31XCzL7e10IVvXrzYmHRb2MLoLhVR3C96Et5qWpnrPS0NWIL5UQM/TAza94no/Zg8nVa0g34onQT8ETaQolGTadLtsOq8zUux0d8qVl13YELCiEmsEIMZraO99pQzYRK2kAkK22aMKPDeFTbihLh3hREjSLu3hY2ACGMiwpgMLWx6/2jYXsgIYyLCmDCE4S8Zvd/XTFqQ5bn56vlW2gvKF2Xm62wqM99uMKOsq/etg8a8+Xakr2xgZPStShFFHpcVXFcoxoEhjC7e60Qhg6Q5ln1buLZjwuRtCsw7VOYWKTPofHonQF9SUuqZfFH2icBrWhhm28Fwy9SU4022KYrejMpQ7yU/v/PwU429zvG54wnUZrETuQOozdw5D0UEXhWqjm8icKswV5+F+ZkdULM9UzZbDaBZn4Fm0MR0duigeuqVunmn6WI0agEsNObB932wPAc8TGn7VlRM6nk+3iDP7J9bqEOt4WMvbNNeuuH0pWbe9iFbrUAaOpAk2RsffPT+X4vebsxQv1E9ceTkqT1fcpbuX1qDfUeaMF/bDY1KAA2vDoFTNcfoTBevz9LU3OFatQapVtiYxOwrnrO8X+Do7U476cK1qAVt1YWmH8DBYAGuhsvwcdwy03MQNB3TCKObQWXGwVGVwdpqCK3lVVi52oHWxQTUB3VQF2fZX1EPNcKO7TnylL8zP+4eWgHwNd4heilqQcMKYJc1BxWNdzbzoYY/gdOAuh2YfDWvQoDbM87MSNF0Z8HKXYg1dh7d7PDn4FCwH2KVQZgqFOphB3AkWRVwLRxVZXg2tserQK2OI9+vmjpIos6U+Tq9ew37sOxDvlbFEWZPfoQ9/eDJU7U5e8nZ1wU/cMB3sUGuZ6ZfHYMq6a2lvQpvz+PnUFfqAyugU+Isha6OTVq1fWh6AXRUBB0dmSl2x5FLl8SgQ3KchjTaUxz9SZSaPynIOy7oyIVOkkE3Sl44+/a5yb01+v43Tvym4tR+HuMQ1/rWU4rWMXqKTQ2Shr2mRZumJz1o6Ilr8rSAl4dtSOmzeLLTwwM/XXpniU94C2VZCXTj7m9ffePvvyhO2Jihrvmdbz9+ulKt/Uyp9e8X+7enSX8zSwNjQCOP6qAbn2gUFnVeeu21c8+anZsw1JUfffTxE3jow3hXYky3ytLUwEFqRpjW2orTbkWn+h+vv37uTLlbED41AP4PdT9s8rw1WZ4AAAAASUVORK5CYII=;base64,iVBORw0KGgoAAAANSUhEUgAAAEwAAACSCAYAAADvoyx0AAAAAXNSR0IArs4c6QAAAARnQU1BAACxjwv8YQUAAAAJcEhZcwAAFxEAABcRAcom8z8AAArJSURBVHhe7ZxLjxxXFcf/9a6u7p7uGc8kzsPBgtjZgJXYIRFIoGySWE6iKBEbBEiQKMOKBZ8g4jOwchAPCdixDFIEG5BjIJEcjSCCBUGxE5LYcTLTPf2uJ+fc6hr3tGc8fbp7Bj/ub3T63nuq+tap/z33VrmqZWhkGMPyhrxw6ptPZqn9mGG4gzQ1MsRAmiZIh9thWjCH1Z0otvH+pnmjPeeDRYdItoIjqG0VbT68CiGifSKjmQ28yEjePr/21h/ZuxcTCvbELwOv9P3IArI0Q5qQUQAZ/TGGYVBHO3RFrmJLluX7wtxl37mQ5bFQ93w4dUgaX+VTh6cNJlW4QeeRxAk6WYxW2PvV+bW//YD32IuJIn/h5NM/L9Wsl5LlJjInRpYMN2xjuwwspvJMdIT5og5JIhWDlIcwjIXF4rLjIN500OkZaPcGv3hz7c2X1W57kPe1By88cuast5yuZscuwwhCyveJvjY38tPO4SOPtneH97oWJ+ukvscZR1MyWw8QXQ7Qadpod6PXzq+d+6HacQ8mOvPnT5w5W74/XfW+dhlOPYGV0NykryaUanE2XBxoNFNqp7R4cGbZjkPTNkWSUDrStu3hyylEKgS7cX8US8xGM9AxaN0kD4WR0jRUWcftK2WEH1TR+dxFuxW/dv7vcxTszPEnzx4+4a8eX01x5GgNi0aNjmliPWzhSn9DrRlxFKHb7aLT7cC2bKwsr6DX66HZbCKOw63pMS3jgu3IcCNdj9C5GqH9aYTafS78BQuDVorueoxBJ4FhkXBXKlMJxqmyJw/Wvvjc4gPeqWPPVXHs+GEcPXQv7lpahF21EAUJqvUS/IoL06VArBjBgof7HrgHlkdZiAFML4PjG3ADa2pzyLyx9uh2Nt7u+BZsz0TUzdBvJKjd4yJYstVFKuykiHs0A+jCg7aLZNND1LMQhumFD6988PrwdG+IusDuCacwZUgU0ukPIvQHIfphiJDq8SBGNKCpSWVM25OIpmFIdx5UV201NfiKVEyT6W2vvpSfr+BU8tWcKa7qXM6Y5IrJBLuOYTDbP3KuC+o6x/6yy+HmFcWUgjHDENQqyB+81NMfVZVri7zF/nmxW1fKv7WxqIyXsyEWjGUqjBnKNBIO1ZQ6I55hO7+pnN3o4zqf8qs4inZx3NzLy1bemo0ZMmxn5hHU1PDBtwLIK/OOZ+6CzWutmJ39iWTugt0yTJl6d65gUybgnSsYM4Vod7ZgU6AFE6IFEzKxYDfP7cL/l7ln2LxvFG829JQUMrlg9O8yfuNjGRZsfktkmPkjnzS5ZkmEARmXcRori5IQg5j8MZdyC4d98VuqJImVL6aSn+buaAlbgjiieEKKIc59iSoz2me2xWWiB4jHlr70XPUe69TK4xlqix5ceEosJQ6djG87sElAg4KxaFIGXoBDC4sw+ek1+VzLQcn1yEpk/kQWDM1zXNi2DdOy4FK9Sn04tgvTpoEjH28bN9O0kUYGsthC7W4fftmhOhCHuWgsWdZ2kTblDxAnWnKePf702eUT1urRV1q493gNK/5dqHhlCj5AYPnqyUBCoxtRJrFx9pX8Eo0qZUQ0QEYjnIc5+QrHe/LThlbUxdVBg8oeak4ZX6jchSu9BvmaNBZFv2PQQEW9FCGZX6WcoJHrbHbR3Gih8WkHjY8oSz8IEH+0gM667BH1ZFPSMpFSSrfX+9igA179rIX1jY56Tu72PTg9yro+ZURUwUJWRzVdgEs+PwqwkNaxYCyiZiyRcTm51ek7lawGL6nAjkvw0wpqWEIpq6q2tYvZCe1r04BWqvDMMixq2/BVZlqWTWpalHF06pn8EjXRN54/cfq16hHjlYVvbKB62EfVr6NMGbRM5bJbU/sUGVR0WIy7ao86J46R1kwylWH9JlpxBzWXMqx8N2XYhsq6hJ8536DP/HGYod5c9fs9dHpttGigmx/FSD71kKyX0GmZ6Hajn51bO7eqvrQHE4X/4mNP/7paDb6b+iGtHepxHAVB0yE2MiM2jeJHA/yDgeKhHcPnw83i5wG8KOcP97iPiQ6tpl3Mr++o5KnuGg61aTEfe5vM7xrVyw2C1ymGY1WwrhRMasb8aZgJrbQJnUNsoEPrcLPX/s25C+e/l+98YyaK+ltfP/2dNDZOJ32jl/QxgJPUKbGeWXjAWaweMbFi1ZU4G2kLEZ1Msa7wCfKVrdVu01Sw4Hu+Ei2MQkRke6IE56elucDcL6+V3C/7GC7Ipd4G8VshFqu8Yqv3kN3PKRYKTA0OiWRulpF0zA3Dsn5PF/pGasTeZtYthUn8xrl3/vJb1eEeTCTYOC//+Kklo+H+6cGnKl956JkAXw0eogANvDt4H+2kq0afT8Smq1Wv38elS+/D5yl8aAWDcEACbmJzs6kEGM3IaeCsSgYZ2ldibH48QNRPcf+jZcTk+2Stm2d1Rmtw14H577vR+4/3DzPMnvjdP/+wPuxCxOT3YSO4nqOuT+pNMgWUWlR38ra611HGI8/byXgi8LaiLPy0z8w27Cvv91pb+eh4nPlUVTEoo/h7FgU7JVMJ1v0k8yggI41ofaGRDEmdMKYbxUHe5hFn47pqhwbdF9G0UXU6EZqN6dA3s3FfXPJPsCjLM16b6B6MffwbEM78wlgtujAagZ95+ZnImUqwLUamE9e2FvLRWTZSz3ffYZ85UXQ53vVoe7YTnv37dxxaMCFaMCFaMCFaMCFaMCFaMCFaMCFaMCFaMCFaMCFaMCFaMCFaMCFaMCFaMCFaMCFaMCFaMCFaMCFaMCFaMCFaMCFaMCFaMCFaMCFaMCFaMCFaMCFaMCFaMCFaMCFaMCFaMCFaMCFaMCFaMCFaMCFaMCFaMCFaMCFaMCFaMCFaMCFaMCFaMCFaMCFaMCFaMCFaMCFaMCFaMCFaMCFaMCFaMCFaMCFaMCFaMCFaMCFaMCFaMCFaMCFaMCFaMCFaMCFaMCFaMCFaMCFaMCFaMCFaMCFaMCFaMCFaMCH7L9jU/032zclsgrEYhSA71cm2/b/QI/5blbll2JYOY2Jsa97CQhXMLNi4BtwetW3sw/9wftAc3KK/k7JFOauNs5NvTuyPYKMB73ZSzLxObKd+5tX3GLMLNhoY14v2aH2EXdy3DAc3JW8TtGBCtGBCZhJs6vXoFl7EDjbDbvUVn5hNsEKAQoTR9qgdBOPH2qeb5IPLsHHh9lvIfer/YATbLXj2z8tGGW/PkYNdw24DtGBCtGBCtGBCtGBCtGBCtGBCtGBCtGBCtGBCtGBCtGBCtGBCtGBCtGBCtGBCtGBCphLMsmzTzFALKi4qSx7qVoC6G6BKdW5XFtloG5VlKoOaraxcd8kcqjsoLVgoka+0MKMN+/ArFryyBTcw4VPfftVWdS8gX4nKEpWuww9ja4M4nDpRpnpVsPrtZ5cTJ/3p4cedk19+sdZ8dOU4kBh4d/0SOnEPCf0xtm2j3+/hww8vwfdKOLS0jH4Uot3aRKu9CWQpDGPGJKevp2GK1tUEmx9HiAcJ7nskQBxmuPxuFxmHkhnIeg7ify3Wkv9W34mt/o9ev/Dnz/IOZEwl2Kuvvmq+995blQdPVuyHXyqnD9cfVv61xkX6bNBfTp2sQY2LjTWq01+dPeyjfXjDHOHuGhf5Azj6RD1vr40eo47OX0tmu1GPH3/7jfZPSOfhhn3nNviVl+J2OQ/NbQTwP4Ihl+ZlR7qqAAAAAElFTkSuQmCC;base64,iVBORw0KGgoAAAANSUhEUgAAAEwAAADYCAYAAABBYAV+AAAAAXNSR0IArs4c6QAAAARnQU1BAACxjwv8YQUAAAAJcEhZcwAAFxEAABcRAcom8z8AAAwTSURBVHhe7ZrbjxtXGcC/uY/H9q6zCZs2vW0SWi6iVVpKK5DaQtqU5iFCpUWV+oTECw9I/QeQQsVfwTOPfaAVyUNbKvEAL7SAChUVFEEEJNkkuxsnXl/mevi+M55d27G9/mzvptl8v823Z86Z8bn85pwzjr0wBqOb3g1MPNaxF7725DMPJIb7ssqsIAMrghggyyjw1xZmN9kuM4uyQUyrezBf8tZSDKyfmqDDIo/Q+QwPdWpiOfY/NRJPqeS6bdtvvf3hB+v6wgkYK+z7Tz7/gmHA+57vQ6wyUJnSwpRSOggtB2vJc4TCLBbof3n1+lo8NI18aPhqnc4L3UrRHv7DriJ5m1RGP4qODRwDladK96UZtm4YWfrsr//8u7/QKyYBqxnNK9946Xkw1XveF1IzKTexhJrDBvvGm3eyqKg4leeHl+4KPX0gqMVbWjOxNMXSlgNGuwTNG+mGmapvv/OnD/7avWJHxo7g1SfOnFROes472iily9d1gzjj+ujrWE+mUEQH+jWYbpXtAd0m+yFhsQWq7oGxsQita/Yqbi+nzn/0/ifdK3ZkYPj9vPzYmZOml5yrPLFZso5fB8s2wMKpTFM8yhKgCa47hkuO9jUK27LAMA1I8ZiWMMX4VnaGBl5UsaN07Esa5TfWxP7S62gbyRJ8JQmLLMjWSgCXl6B10VnFXs5P2JlHTp20q9a5h3/glO77jglLQRWWvCq2a8C/m6vQSjoo0IA4TmCzuanj4IElKJUC2NxsQKvVhCiMdCtjGxoDCZpEmD6Pv5Iwg40Lob5pi/e6Wlq4mULjcgwZbm5G0iPsfy5b2NjH1vHF40ct33j9oWcqzrFv1eChew7DscNH4PBBbCyIwF6wYOFAGfwK7glOCqkZwT33L8Oh5RoYNt5WOwHDTcErW+AGs4U3pGwwqB3LMqFxJdaiFu/1wK3gEsQHY2sj0bPdwMelwj0MGgHEDWsTb8AvP7v0r6vdIe9I/tjagTTNII5SCMMYwiiCDkaMx0mY5oHnkhiXJEaKx3QtRUpluBT2NPAJqMEkoy0B85RqBjfgKZhIGDWev40YfEpuHfQdzhNutX3XY0bn6VcRMzKZsAG2292+Y7Pfu+HMWq9+/RxmVgFLGD0Tc1n0O38C5W8L8Qg7ZeiOFaXdc93yaQN/3VI2UfT+bHVr9ik21QzbhnoxhDlM/YIRLYxk6/rBF3IrGsGMwkYwp859HtkdYfuYu1wYfyncncJoj93aZ91uOhmyJJmIMCYijIkIY7KjML0/7uP3VVyYM2yOb+H3gl240RMJo/+PmaYFFoaNYeJ/zujT1SRLeyKBKI0hxrQ3HyYUEURTRJzmdVFbMdZF9VG9xae7wyJN6aOmPNIEg8pTjBhv9/YXW1MzkbAMOxHHNIh88IlKwbUcKNke+BiUlt0SLPgVKDs+lCwXAsxX/DKWlaHKjopOy34JfNcDx3Gg7AVQwfBdHxzX0WV9UZR5LpQq2K+yBy4eO44Ntovh4023Zp9yY2s4/cjpk14Vzh17LS3d90IKS4sHYKlag5q/AGXbB9uwcJEqfVcjFBpHkf542rYdiKJQS05xlnDXBs3gFKdDM2nDRtjAtAMPVpbBMWy42rmh84miegfAZlSioF1P9ScWbsXE3mWw2WjBtUsbUL/YgfYVvG49ALh8MP9M37BPnf/o/Hw+ov7K4YePmi68HqyEjnmojVPewCWBCzSz4JBZgwoEYCUWOKkLvvIgsHAGKB/czAEX8yWjBGUTZ4qFM8+idNKo6NeCsnFG03IEeDA4AhUsb9FSo6WlcHsABwfQE8rBm4gzy/GAvkt1caYbeF2GSzPEG9hBkeEGWm3ju/vNEiSb9BF1wvqIeuytP/PY6ZO42s4f+mbHr3ytA0GlDEG5DAeCRThaPoyCfL08810up3gs8OZUPzQ7aIY1YpwZnTps4kz7YvU+cEwbLrXWMN/Re+V2qwNgMZ2hD4lTvK7daUK9fh2u/7cDzct4oumDcX0B2mvGapbN8VujV5566UXLsd8NlnAi+rHe+PVbjBTvfewa9KUCbsm4EeL+0P36rRf65oaWV/5NeV5mYtkOzebQYPFmxLj0Ety4aZ+kukLc+Kk8/8gcW+xWR/tT8c08/UUCSdfgdTgn8RURLg8sS3DbTk0wMxduNlphquDp83947+P84p0Z2/NXnz39aJaon2ahuZh2oAWZSpWpHvUWjC9VjgEsVksQqBJ0VISBexYOrjsM/fp8H4vBxs2YnrBEGIb6ro+cHUheRz5ofRswpRlHjuhrvS0ZCD350lBB2EzB8U1wyyaEDVQUUS0IXmpEDsANH681PjYd8x/4jHdSMytnZnYxs7Kz537/m//kF+/M6F7nGGfhrL7mTXhTP5Rfefq7Pzv0Zf/s42+U4PGv3g8ryf1wKV2Dy8k61JMGOs3/boFmw7VrV+HmzRtQWViEAB8GpOLK1VVotdsokPkWcBjYs6SjoLmewNpnHVg84sDB4z5c/bQNzTV8KJBhB+NKFaIPlyG5afz4V5+8+wt6KY4LO4CjwjcBuq4JGddrEqVIVCGLwD0/ojMm3jTbM8DBO2oHJlgeluFeSoF7rU4NN++wSYHHugyP6TvLmcPpObZoHeJe2i3H3R/zOCOxXFFKf4SC8nCGdbrD0BOgR9ZOE2eLccK6c7ofbNah7/5ivLMhPn3aCt+bdfBNagufZi185mBQqvNtWi64dWA34zaWY+DShqyDSwzLZwqqo6gHtyeF+5OK83yGaUZ53K8o1cf5aPC2DmXoWIcx+7rQTfXcIDrsZvtv28A186Cvne1Ke6un4978rMxhI7m7EGFMRBgTEcZEhDERYUxEGBMRxkSEMRFhTEQYExHGRIQxEWFMRBgTEcZEhDERYUxEGBMRxkSEMRFhTEQYExHGRIQxEWFMRBgTEcZEhDERYUxEGBMRxkSEMRFhTEQYExHGRIQxEWFMRBgTEcZEhDERYUxEGBMRxkSEMRFhTEQYExHGRIQxEWFMRBgTEcZEhDERYUxEGBMRxkSEMRFhTEQYExHGRIQxEWFMRBgTEcZEhDERYUxEGBMRxkSEMRFhTEQYExHGRIQxEWFMRBgTEcZEhDERYUxEGBMRxkSEMRFhTEQYExHGRIQxEWFMRBgTEcZEhDERYUxEGBMRxkSEMRFhTEQYExHGRIQxEWFMRBgTEcZEhDERYUxEGBMRxkSEMRFhTEQYExHGRIQxEWFMRBgTEcZEhDERYUxEGBMRxkSEMRFhTEQYExHGRIQxEWFMRBgTEcZEhDGZWpjRTW9BdWOfMrUw1SumOO4V1XtcMKzsDmOmJVmMf9DVfmbue9h+lzdXYb2i9kwcbaYjN9T5M/cZ1scwa0XZrEGMyu8iuytsNxknZhdn3e4K2+PlshfMR1ivlD1YFreT6YUNk9Ira4i4YS+507hz97DbxPyF7bM9axCZYUxEGBMRxmTvhA15at6JTC2MPfZ98jCYbYYV1nrtDZocds0dzPyWJAnplTOY3y1629kDphc2qpPDynvLigHOGkSRDjKqfA5ML2zSPWmnwU3LbZBFzG9JjoLEFrEP2H1h+wwRxkSEMRFhTEQYExHGRIQxEWFMRBgTEcZEhDERYUxEGBMRxkSEMRFhTEQYExHGRIQxEWFMRBgTEcZEhDERYUxEGBMRxkSEMZle2C7/0cfnlemFdf+4xMC07+9MigylfSfmzC1153dQFw+em2M/ZluSRUcoHYxRDLt2miD68nmhKs4VDOZnhC9MQeC5LpSqLlSdEiwaAVQrPlQWPCgvulBeyKOCx0HVgVLF1mmwQOGCj3m/bOXpDEH1lsp4jOFRlCzwAirHlI59G1xMddCx7UCmlN8dxdSw/X/vqVM/qq04b5z4STn8+pMPJCvWEVhtrsOl9jrciBugMgWGaeqlura2Bo3NBlSrVRxEAJABXLu2Cp12S18zK1RFFCpobaSw/s8QFo84sHTUhat/j6C1FueL1EkhvVT24j8uK9Wwfv7Op++9rV88JWxhzz33nL+yUvNP/BDgxIkVWIEaXIA61OsY+LNNDeoX9Bmo1Wo6T9TrWNZ72TzA+i5coHawlRVql9rpaaSOJ35bAzdebr31t7eibumeMOcd4bawH8ZwpwDwf1CUNKSGzc2tAAAAAElFTkSuQmCC;base64,iVBORw0KGgoAAAANSUhEUgAAAEwAAACQCAYAAACia41/AAAAAXNSR0IArs4c6QAAAARnQU1BAACxjwv8YQUAAAAJcEhZcwAAFxEAABcRAcom8z8AAArPSURBVHhe7Z3JjxxXHce/tfTeM9Mz3sYkColDHGcytkfEMkJckKIkSiYKRJCIE+LABQ6IC8qJf4Bbrkg5cOGAhFgSCcMIpJhDIBJRhASCBGETO4vHPT29V1d1Lfx+r6o6bXvG079e7Mz4fdqvq96vqt979XlLj6usMTR3DiPZ7mfE1zDRRb+08lK2+IhXXPshsLb2IPhVp9fl+mV6Z/i9Eu/V6QjFKxXOD8fonDg7EVwEF8VVXr5cp3ootlZB/d24ngF1OvAuxS+j9+b/3uwl0ZGZSNjXzj/99bnj1o/PfL9gnP/q59yT9oPYdBr40Kmi7rXgRwEsw4BhWKhtb6FWr6FUmqNUhGlaqFY/QavVpnPMpMQxoavgC/E9wNn2cf19B4VFG8srBVT/66H5UR+IQkRWhLCWt/tvH8uF9dyrv/nHhdfiAkZnImEvfOmpHyw/VH713I9KOPfF4ziFE9ikLr4SbKLmNZUwk2SYpomtrSq2alsol1lYCZZl4drmJ2i3mur4hE2hTiFhboRuzcfmvxwUl2wcP1PE9fd6aFwlk0Rkh8BWEcFf7kP74/Anv/7nhVfUAQETda0Jo+d6HrpN6kWvh+2wi0bXQXO7h/a2S8lLti46jT6cpo8ubTt1Th4cFQuS5E+eWj567QCeE8DtxmW6nO+GKu9RcumY16cRB3TVRQiZcC58SpRsDzpTEzbZhNo/TE3YvYIWJkQLE6KFCdHChGhhQrQwIVqYEC1MiBYmRAsTooUJ0cKEaGFCtDAhWpgQLUyIFiZECxOihQnRwoRoYUK0MCFamBAtTIgWJkQLE6KFCdHChGhhQrQwIVqYEC1MiBYmRAsTooUJ0cKEaGFCtDAhWpgQLUyIFiZECxOihQnRwoRoYUK0MCFamBAtTIgWJkQLE6KFCdHChGhhQrQwIVqYEC1MiBYmRAsTooUJ0cKEaGFCtDAhWpgQLUyIFiZECxOihQnRwoRoYUK0MCGzE3ZAf7GrHmFCZidsr9+1vE9/F/PUhKXXP/DAO2najdsd+4wyFWHRsJih/cEyNnx8nzOTKZn6SR3t6Wr45EnYrYwpfgHNbA1LHezpYfiE4Q+Nk3Ziyt/WMxPG/4PC7Rp7u2ucCnuJHJOZCbuhsVNu9N1kOsJ2EzIs7YAwuxF2QLl7wvbpyLu7I2wfSpuKMLVUDV+8CsS7ijSfxm4+vo+Y3aKfSkmPDefT2D5kdlNyt5/BUlnp8ZtFTiOlDO9PiTu/hu3xA+1nnTsnbJ+LSrnzI2yfo4UJ0cKEaGFCtDAhWpgQLUyIFiZECxOihQnRwoRoYUK0MCFamBAtTMiowna8k2UZpqsO8R9+1K22vKE3Qu0n8QG8n+SHwxORFjRUtrrdOogP3XpNYkZkqP9/X8qowtIa+fzBZ/wwyKeHInpxWzjH+2pLb9ENT0eI+ITB7lRIC7qhwIE5ig/tJ4QIs8kuc+sJuzDylFxZeeKBx8+svbZy+uyFldNrv3p05cwvan3ne1HI7SRZpkmjyYRJ2zgZMC2qwKLxRvtcU0Q9TaeokaeaqPTTVartZClKtqpsZnjL9ao8vVEHhkGIhuF869HTZ3+5snp249HVs9/hownpJ3fktgeHOb92/ixNr7/m8/mcH/YRUsUlI4ujhwt48NlcdOKxReM++yiaXhdbbgNt36FzQjUlTbLUarfQ7rSQzxeQy+ZVvNmqo9dz1PGJoSsJ/QheJ0Tz4z6yRQuV+7NoXeuju+3H51DnRK0sgvcXolYvNNqWB5t61Xf7F48VKq8c6dl//+nf3ujGJ+/MyMJe/PL6qhEFG5mCseyZPYrEU5B7zsyQFBpF8doVT8hbZyIFODaokXboJBWfJlwNjXouXvUDz4C0irh5FDPUhuNGQK0OMuh7qJLQb/z2rY2LfOpuDJq/Fy+fW1+lVX7DPtZd7lWqiCwfAa8EAYkLTES0DagZZjKiOEXUcl7D1CjjKUsplkRwYynOwlV+CqiLUaJICBcaRrCyvFTQbkB5bgtPW1q9eLmAT21sZSKzMW90qzYCL3jmjXc2/sDF7MbIwl48QyMsE27MrznL9uNbyOQNGs7UGFo83NBDwNOPXrRCIKA1IvAD2LYFy7IQhCyW9Kquv4OQNN+jN/pjZrgT45EfUIzXUxYWVgvAR4voflBw4FvPv/7O7/6UfHpHRha2fuqpVeqtjcdeLi6f/GYWywtLOJKvIIcM3mtdRc1rwjYs9H1PrVe12hYOLx1BpbKIRrOOVqsJx+nGFY5c663QZQ4+zvu7weewmM1/95S0pYeopQUTXjtA7RJ1cD+gzrYQbtEX/Sck7Ep+JGGjr7Yej+gImZyNUqWAymIZhysLOEpC5hdLKC0UUKZ4aSGPQjmLbMFCYS6LMsUL5RxyJZtiJjJFUx2baaIFn1Mmb8XrGNnL5KjuvBlPUQqpKTsGowsjeC3g6eb2fBotLrpuDx2vR3kPntuH1+Pko+8G1IMhLaS+inPed2ma9mmdo95W21mmpA7+1kzF8Bqm8rTW8o9lvH6Og0jYToxX7Z1h10E05uhiJhaW1h3/SBFvufPifBqjRME0zZq4irgd8V6KakkSH8/aRMLiKvnnsbhJ6VY1jOWofHosfh8WN6sU16PeP82rl9pVadxBNvEI252dmjRuMz87zFAYc/CkzVjYwePeFsaDfZDUCrcneoQxglVCCxOihQnRwoRoYUJEwtIvlHsZ8Qgb7cv3VqJE9X4XPsaUNOhD8S1oK/m7Gz8Q4bupgxQGCDjRfpw4T1uOBQE/nhMn/mxIZfBt77QsznN9fJ8uvh2eJmpPmLQpSJI6l87jeEDdxj03Ru/zne2ROHns4aOmZX770IpdXjwFFLIZ5KwsCTPR8R1Vf97KwOY+4DvR1KjFuQXMF8q0H6qeyZgWfS4/VsraWVi2BdOyUExitmWrW+Bx4v0k2TZsSibfAe4YsDM25o7kkM3ZJMyA2wmUOPgGIscG2gX0mxmffnj9+Xsf/+cSX+9ujOx4/dT6qpUNNh5+0Vr+/AsBjiwt4lCpgvn8XNxz1JuMTyOoxzcWnTbmimUU8iU4rkMxB/2+R2dQlYKe5XsMPGJ6gYd230E3cHEoO48CdU7d66AXevBpBO9UKN8s5MdsfOOweNiGYUVw2i6qHzbQuu7CrdE56S3qqwUHgTnNe/rrq3Y+3Lj/OW/52HMdLC5VsLhQwaHyIh4oHsOcXVRTj65tMPXspPfVQ5BkCsWMbiye8iGa/Q42nW1UvQYembsflUwZH3SuoU5xlqnu4twMDyKXO5OmUpbKoTZ0u1TOteu4fqmNxiUSvV0kYUvoXslN9yEIPzWK7HDj0BPecmmthdJcCcVSCQuleZwoHcdCpqTWKwWVqkYGt5j+pPlxYGE8wlp+F1W3gZrbwom546qDPupW0eh34YXxP5O4pQaul4NcBq9dJMzpOai36ti+2kHzSgijnYPRmIOzaTuRH5GwjSkJO/fUqmEZG9lsZtkHNTBpjHoOSS9V0MilCWDhyYY7gJZ0Wnj5WWM88jiWnLI3qv/oxVtew7h/6S/dJq2tnh84tLQ8//rbUxK2/pWnz0aW+VbBLhX4QUf8zRSntOGzhAXxizuIRzLXxt0UxyVwGfRJ+rpT/+bDoA6wTfT8Ho1A/5kLf57Sg9wnn3z2JPXGz2hwf4GyzTh6MKBOL1Gnb5mh8d0/Xvz9W0l4B4D/A4EARQUv/LPpAAAAAElFTkSuQmCC;opacity=80;" vertex="1" parent="1">
          <mxGeometry x="409.08000000000004" y="-44" width="28.88" height="81.71" as="geometry" />
        </mxCell>
        <mxCell id="fn3hpe5vCrqdeOl8oa49-62" value="" style="shape=image;imageAspect=0;aspect=fixed;verticalLabelPosition=bottom;verticalAlign=top;image=data:image/png,iVBORw0KGgoAAAANSUhEUgAAAEwAAADYCAYAAABBYAV+AAAAAXNSR0IArs4c6QAAAARnQU1BAACxjwv8YQUAAAAJcEhZcwAAFxEAABcRAcom8z8AAAwTSURBVHhe7ZrbjxtXGcC/uY/H9q6zCZs2vW0SWi6iVVpKK5DaQtqU5iFCpUWV+oTECw9I/QeQQsVfwTOPfaAVyUNbKvEAL7SAChUVFEEEJNkkuxsnXl/mevi+M55d27G9/mzvptl8v823Z86Z8bn85pwzjr0wBqOb3g1MPNaxF7725DMPJIb7ssqsIAMrghggyyjw1xZmN9kuM4uyQUyrezBf8tZSDKyfmqDDIo/Q+QwPdWpiOfY/NRJPqeS6bdtvvf3hB+v6wgkYK+z7Tz7/gmHA+57vQ6wyUJnSwpRSOggtB2vJc4TCLBbof3n1+lo8NI18aPhqnc4L3UrRHv7DriJ5m1RGP4qODRwDladK96UZtm4YWfrsr//8u7/QKyYBqxnNK9946Xkw1XveF1IzKTexhJrDBvvGm3eyqKg4leeHl+4KPX0gqMVbWjOxNMXSlgNGuwTNG+mGmapvv/OnD/7avWJHxo7g1SfOnFROes472iily9d1gzjj+ujrWE+mUEQH+jWYbpXtAd0m+yFhsQWq7oGxsQita/Yqbi+nzn/0/ifdK3ZkYPj9vPzYmZOml5yrPLFZso5fB8s2wMKpTFM8yhKgCa47hkuO9jUK27LAMA1I8ZiWMMX4VnaGBl5UsaN07Esa5TfWxP7S62gbyRJ8JQmLLMjWSgCXl6B10VnFXs5P2JlHTp20q9a5h3/glO77jglLQRWWvCq2a8C/m6vQSjoo0IA4TmCzuanj4IElKJUC2NxsQKvVhCiMdCtjGxoDCZpEmD6Pv5Iwg40Lob5pi/e6Wlq4mULjcgwZbm5G0iPsfy5b2NjH1vHF40ct33j9oWcqzrFv1eChew7DscNH4PBBbCyIwF6wYOFAGfwK7glOCqkZwT33L8Oh5RoYNt5WOwHDTcErW+AGs4U3pGwwqB3LMqFxJdaiFu/1wK3gEsQHY2sj0bPdwMelwj0MGgHEDWsTb8AvP7v0r6vdIe9I/tjagTTNII5SCMMYwiiCDkaMx0mY5oHnkhiXJEaKx3QtRUpluBT2NPAJqMEkoy0B85RqBjfgKZhIGDWev40YfEpuHfQdzhNutX3XY0bn6VcRMzKZsAG2292+Y7Pfu+HMWq9+/RxmVgFLGD0Tc1n0O38C5W8L8Qg7ZeiOFaXdc93yaQN/3VI2UfT+bHVr9ik21QzbhnoxhDlM/YIRLYxk6/rBF3IrGsGMwkYwp859HtkdYfuYu1wYfyncncJoj93aZ91uOhmyJJmIMCYijIkIY7KjML0/7uP3VVyYM2yOb+H3gl240RMJo/+PmaYFFoaNYeJ/zujT1SRLeyKBKI0hxrQ3HyYUEURTRJzmdVFbMdZF9VG9xae7wyJN6aOmPNIEg8pTjBhv9/YXW1MzkbAMOxHHNIh88IlKwbUcKNke+BiUlt0SLPgVKDs+lCwXAsxX/DKWlaHKjopOy34JfNcDx3Gg7AVQwfBdHxzX0WV9UZR5LpQq2K+yBy4eO44Ntovh4023Zp9yY2s4/cjpk14Vzh17LS3d90IKS4sHYKlag5q/AGXbB9uwcJEqfVcjFBpHkf542rYdiKJQS05xlnDXBs3gFKdDM2nDRtjAtAMPVpbBMWy42rmh84miegfAZlSioF1P9ScWbsXE3mWw2WjBtUsbUL/YgfYVvG49ALh8MP9M37BPnf/o/Hw+ov7K4YePmi68HqyEjnmojVPewCWBCzSz4JBZgwoEYCUWOKkLvvIgsHAGKB/czAEX8yWjBGUTZ4qFM8+idNKo6NeCsnFG03IEeDA4AhUsb9FSo6WlcHsABwfQE8rBm4gzy/GAvkt1caYbeF2GSzPEG9hBkeEGWm3ju/vNEiSb9BF1wvqIeuytP/PY6ZO42s4f+mbHr3ytA0GlDEG5DAeCRThaPoyCfL08810up3gs8OZUPzQ7aIY1YpwZnTps4kz7YvU+cEwbLrXWMN/Re+V2qwNgMZ2hD4lTvK7daUK9fh2u/7cDzct4oumDcX0B2mvGapbN8VujV5566UXLsd8NlnAi+rHe+PVbjBTvfewa9KUCbsm4EeL+0P36rRf65oaWV/5NeV5mYtkOzebQYPFmxLj0Ety4aZ+kukLc+Kk8/8gcW+xWR/tT8c08/UUCSdfgdTgn8RURLg8sS3DbTk0wMxduNlphquDp83947+P84p0Z2/NXnz39aJaon2ahuZh2oAWZSpWpHvUWjC9VjgEsVksQqBJ0VISBexYOrjsM/fp8H4vBxs2YnrBEGIb6ro+cHUheRz5ofRswpRlHjuhrvS0ZCD350lBB2EzB8U1wyyaEDVQUUS0IXmpEDsANH681PjYd8x/4jHdSMytnZnYxs7Kz537/m//kF+/M6F7nGGfhrL7mTXhTP5Rfefq7Pzv0Zf/s42+U4PGv3g8ryf1wKV2Dy8k61JMGOs3/boFmw7VrV+HmzRtQWViEAB8GpOLK1VVotdsokPkWcBjYs6SjoLmewNpnHVg84sDB4z5c/bQNzTV8KJBhB+NKFaIPlyG5afz4V5+8+wt6KY4LO4CjwjcBuq4JGddrEqVIVCGLwD0/ojMm3jTbM8DBO2oHJlgeluFeSoF7rU4NN++wSYHHugyP6TvLmcPpObZoHeJe2i3H3R/zOCOxXFFKf4SC8nCGdbrD0BOgR9ZOE2eLccK6c7ofbNah7/5ivLMhPn3aCt+bdfBNagufZi185mBQqvNtWi64dWA34zaWY+DShqyDSwzLZwqqo6gHtyeF+5OK83yGaUZ53K8o1cf5aPC2DmXoWIcx+7rQTfXcIDrsZvtv28A186Cvne1Ke6un4978rMxhI7m7EGFMRBgTEcZEhDERYUxEGBMRxkSEMRFhTEQYExHGRIQxEWFMRBgTEcZEhDERYUxEGBMRxkSEMRFhTEQYExHGRIQxEWFMRBgTEcZEhDERYUxEGBMRxkSEMRFhTEQYExHGRIQxEWFMRBgTEcZEhDERYUxEGBMRxkSEMRFhTEQYExHGRIQxEWFMRBgTEcZEhDERYUxEGBMRxkSEMRFhTEQYExHGRIQxEWFMRBgTEcZEhDERYUxEGBMRxkSEMRFhTEQYExHGRIQxEWFMRBgTEcZEhDERYUxEGBMRxkSEMRFhTEQYExHGRIQxEWFMRBgTEcZEhDERYUxEGBMRxkSEMRFhTEQYExHGRIQxEWFMRBgTEcZEhDERYUxEGBMRxkSEMRFhTEQYExHGRIQxEWFMRBgTEcZEhDERYUxEGBMRxkSEMRFhTEQYExHGRIQxEWFMRBgTEcZEhDGZWpjRTW9BdWOfMrUw1SumOO4V1XtcMKzsDmOmJVmMf9DVfmbue9h+lzdXYb2i9kwcbaYjN9T5M/cZ1scwa0XZrEGMyu8iuytsNxknZhdn3e4K2+PlshfMR1ivlD1YFreT6YUNk9Ira4i4YS+507hz97DbxPyF7bM9axCZYUxEGBMRxmTvhA15at6JTC2MPfZ98jCYbYYV1nrtDZocds0dzPyWJAnplTOY3y1629kDphc2qpPDynvLigHOGkSRDjKqfA5ML2zSPWmnwU3LbZBFzG9JjoLEFrEP2H1h+wwRxkSEMRFhTEQYExHGRIQxEWFMRBgTEcZEhDERYUxEGBMRxkSEMRFhTEQYExHGRIQxEWFMRBgTEcZEhDERYUxEGBMRxkSEMZle2C7/0cfnlemFdf+4xMC07+9MigylfSfmzC1153dQFw+em2M/ZluSRUcoHYxRDLt2miD68nmhKs4VDOZnhC9MQeC5LpSqLlSdEiwaAVQrPlQWPCgvulBeyKOCx0HVgVLF1mmwQOGCj3m/bOXpDEH1lsp4jOFRlCzwAirHlI59G1xMddCx7UCmlN8dxdSw/X/vqVM/qq04b5z4STn8+pMPJCvWEVhtrsOl9jrciBugMgWGaeqlura2Bo3NBlSrVRxEAJABXLu2Cp12S18zK1RFFCpobaSw/s8QFo84sHTUhat/j6C1FueL1EkhvVT24j8uK9Wwfv7Op++9rV88JWxhzz33nL+yUvNP/BDgxIkVWIEaXIA61OsY+LNNDeoX9Bmo1Wo6T9TrWNZ72TzA+i5coHawlRVql9rpaaSOJ35bAzdebr31t7eibumeMOcd4bawH8ZwpwDwf1CUNKSGzc2tAAAAAElFTkSuQmCC;opacity=80;" vertex="1" parent="1">
          <mxGeometry x="461.7600000000001" y="-131" width="28.15" height="80" as="geometry" />
        </mxCell>
        <mxCell id="fn3hpe5vCrqdeOl8oa49-63" value="" style="endArrow=none;html=1;fillColor=#dae8fc;strokeColor=#6c8ebf;strokeWidth=1;" edge="1" parent="1">
          <mxGeometry width="50" height="50" relative="1" as="geometry">
            <mxPoint x="393.1100000000001" y="36.5" as="sourcePoint" />
            <mxPoint x="503.1100000000001" y="37" as="targetPoint" />
          </mxGeometry>
        </mxCell>
        <mxCell id="fn3hpe5vCrqdeOl8oa49-64" value="" style="rounded=1;whiteSpace=wrap;html=1;strokeColor=#7EA6E0;fillColor=#D4E1F5;" vertex="1" parent="1">
          <mxGeometry x="393.11" y="91" width="110" height="210" as="geometry" />
        </mxCell>
        <mxCell id="fn3hpe5vCrqdeOl8oa49-66" value="" style="shape=image;imageAspect=0;aspect=fixed;verticalLabelPosition=bottom;verticalAlign=top;image=data:image/png,iVBORw0KGgoAAAANSUhEUgAAAEwAAACQCAYAAACia41/AAAAAXNSR0IArs4c6QAAAARnQU1BAACxjwv8YQUAAAAJcEhZcwAAFxEAABcRAcom8z8AAArPSURBVHhe7Z3JjxxXHce/tfTeM9Mz3sYkColDHGcytkfEMkJckKIkSiYKRJCIE+LABQ6IC8qJf4Bbrkg5cOGAhFgSCcMIpJhDIBJRhASCBGETO4vHPT29V1d1Lfx+r6o6bXvG079e7Mz4fdqvq96vqt979XlLj6usMTR3DiPZ7mfE1zDRRb+08lK2+IhXXPshsLb2IPhVp9fl+mV6Z/i9Eu/V6QjFKxXOD8fonDg7EVwEF8VVXr5cp3ootlZB/d24ngF1OvAuxS+j9+b/3uwl0ZGZSNjXzj/99bnj1o/PfL9gnP/q59yT9oPYdBr40Kmi7rXgRwEsw4BhWKhtb6FWr6FUmqNUhGlaqFY/QavVpnPMpMQxoavgC/E9wNn2cf19B4VFG8srBVT/66H5UR+IQkRWhLCWt/tvH8uF9dyrv/nHhdfiAkZnImEvfOmpHyw/VH713I9KOPfF4ziFE9ikLr4SbKLmNZUwk2SYpomtrSq2alsol1lYCZZl4drmJ2i3mur4hE2hTiFhboRuzcfmvxwUl2wcP1PE9fd6aFwlk0Rkh8BWEcFf7kP74/Anv/7nhVfUAQETda0Jo+d6HrpN6kWvh+2wi0bXQXO7h/a2S8lLti46jT6cpo8ubTt1Th4cFQuS5E+eWj567QCeE8DtxmW6nO+GKu9RcumY16cRB3TVRQiZcC58SpRsDzpTEzbZhNo/TE3YvYIWJkQLE6KFCdHChGhhQrQwIVqYEC1MiBYmRAsTooUJ0cKEaGFCtDAhWpgQLUyIFiZECxOihQnRwoRoYUK0MCFamBAtTIgWJkQLE6KFCdHChGhhQrQwIVqYEC1MiBYmRAsTooUJ0cKEaGFCtDAhWpgQLUyIFiZECxOihQnRwoRoYUK0MCFamBAtTIgWJkQLE6KFCdHChGhhQrQwIVqYEC1MiBYmRAsTooUJ0cKEaGFCtDAhWpgQLUyIFiZECxOihQnRwoRoYUK0MCGzE3ZAf7GrHmFCZidsr9+1vE9/F/PUhKXXP/DAO2najdsd+4wyFWHRsJih/cEyNnx8nzOTKZn6SR3t6Wr45EnYrYwpfgHNbA1LHezpYfiE4Q+Nk3Ziyt/WMxPG/4PC7Rp7u2ucCnuJHJOZCbuhsVNu9N1kOsJ2EzIs7YAwuxF2QLl7wvbpyLu7I2wfSpuKMLVUDV+8CsS7ijSfxm4+vo+Y3aKfSkmPDefT2D5kdlNyt5/BUlnp8ZtFTiOlDO9PiTu/hu3xA+1nnTsnbJ+LSrnzI2yfo4UJ0cKEaGFCtDAhWpgQLUyIFiZECxOihQnRwoRoYUK0MCFamBAtTMiowna8k2UZpqsO8R9+1K22vKE3Qu0n8QG8n+SHwxORFjRUtrrdOogP3XpNYkZkqP9/X8qowtIa+fzBZ/wwyKeHInpxWzjH+2pLb9ENT0eI+ITB7lRIC7qhwIE5ig/tJ4QIs8kuc+sJuzDylFxZeeKBx8+svbZy+uyFldNrv3p05cwvan3ne1HI7SRZpkmjyYRJ2zgZMC2qwKLxRvtcU0Q9TaeokaeaqPTTVartZClKtqpsZnjL9ao8vVEHhkGIhuF869HTZ3+5snp249HVs9/hownpJ3fktgeHOb92/ixNr7/m8/mcH/YRUsUlI4ujhwt48NlcdOKxReM++yiaXhdbbgNt36FzQjUlTbLUarfQ7rSQzxeQy+ZVvNmqo9dz1PGJoSsJ/QheJ0Tz4z6yRQuV+7NoXeuju+3H51DnRK0sgvcXolYvNNqWB5t61Xf7F48VKq8c6dl//+nf3ujGJ+/MyMJe/PL6qhEFG5mCseyZPYrEU5B7zsyQFBpF8doVT8hbZyIFODaokXboJBWfJlwNjXouXvUDz4C0irh5FDPUhuNGQK0OMuh7qJLQb/z2rY2LfOpuDJq/Fy+fW1+lVX7DPtZd7lWqiCwfAa8EAYkLTES0DagZZjKiOEXUcl7D1CjjKUsplkRwYynOwlV+CqiLUaJICBcaRrCyvFTQbkB5bgtPW1q9eLmAT21sZSKzMW90qzYCL3jmjXc2/sDF7MbIwl48QyMsE27MrznL9uNbyOQNGs7UGFo83NBDwNOPXrRCIKA1IvAD2LYFy7IQhCyW9Kquv4OQNN+jN/pjZrgT45EfUIzXUxYWVgvAR4voflBw4FvPv/7O7/6UfHpHRha2fuqpVeqtjcdeLi6f/GYWywtLOJKvIIcM3mtdRc1rwjYs9H1PrVe12hYOLx1BpbKIRrOOVqsJx+nGFY5c663QZQ4+zvu7weewmM1/95S0pYeopQUTXjtA7RJ1cD+gzrYQbtEX/Sck7Ep+JGGjr7Yej+gImZyNUqWAymIZhysLOEpC5hdLKC0UUKZ4aSGPQjmLbMFCYS6LMsUL5RxyJZtiJjJFUx2baaIFn1Mmb8XrGNnL5KjuvBlPUQqpKTsGowsjeC3g6eb2fBotLrpuDx2vR3kPntuH1+Pko+8G1IMhLaS+inPed2ma9mmdo95W21mmpA7+1kzF8Bqm8rTW8o9lvH6Og0jYToxX7Z1h10E05uhiJhaW1h3/SBFvufPifBqjRME0zZq4irgd8V6KakkSH8/aRMLiKvnnsbhJ6VY1jOWofHosfh8WN6sU16PeP82rl9pVadxBNvEI252dmjRuMz87zFAYc/CkzVjYwePeFsaDfZDUCrcneoQxglVCCxOihQnRwoRoYUJEwtIvlHsZ8Qgb7cv3VqJE9X4XPsaUNOhD8S1oK/m7Gz8Q4bupgxQGCDjRfpw4T1uOBQE/nhMn/mxIZfBt77QsznN9fJ8uvh2eJmpPmLQpSJI6l87jeEDdxj03Ru/zne2ROHns4aOmZX770IpdXjwFFLIZ5KwsCTPR8R1Vf97KwOY+4DvR1KjFuQXMF8q0H6qeyZgWfS4/VsraWVi2BdOyUExitmWrW+Bx4v0k2TZsSibfAe4YsDM25o7kkM3ZJMyA2wmUOPgGIscG2gX0mxmffnj9+Xsf/+cSX+9ujOx4/dT6qpUNNh5+0Vr+/AsBjiwt4lCpgvn8XNxz1JuMTyOoxzcWnTbmimUU8iU4rkMxB/2+R2dQlYKe5XsMPGJ6gYd230E3cHEoO48CdU7d66AXevBpBO9UKN8s5MdsfOOweNiGYUVw2i6qHzbQuu7CrdE56S3qqwUHgTnNe/rrq3Y+3Lj/OW/52HMdLC5VsLhQwaHyIh4oHsOcXVRTj65tMPXspPfVQ5BkCsWMbiye8iGa/Q42nW1UvQYembsflUwZH3SuoU5xlqnu4twMDyKXO5OmUpbKoTZ0u1TOteu4fqmNxiUSvV0kYUvoXslN9yEIPzWK7HDj0BPecmmthdJcCcVSCQuleZwoHcdCpqTWKwWVqkYGt5j+pPlxYGE8wlp+F1W3gZrbwom546qDPupW0eh34YXxP5O4pQaul4NcBq9dJMzpOai36ti+2kHzSgijnYPRmIOzaTuRH5GwjSkJO/fUqmEZG9lsZtkHNTBpjHoOSS9V0MilCWDhyYY7gJZ0Wnj5WWM88jiWnLI3qv/oxVtew7h/6S/dJq2tnh84tLQ8//rbUxK2/pWnz0aW+VbBLhX4QUf8zRSntOGzhAXxizuIRzLXxt0UxyVwGfRJ+rpT/+bDoA6wTfT8Ho1A/5kLf57Sg9wnn3z2JPXGz2hwf4GyzTh6MKBOL1Gnb5mh8d0/Xvz9W0l4B4D/A4EARQUv/LPpAAAAAElFTkSuQmCC;opacity=40;" vertex="1" parent="1">
          <mxGeometry x="522.91" y="207.68" width="24.65" height="46.71" as="geometry" />
        </mxCell>
        <mxCell id="fn3hpe5vCrqdeOl8oa49-68" value="" style="shape=image;imageAspect=0;aspect=fixed;verticalLabelPosition=bottom;verticalAlign=top;image=data:image/png,iVBORw0KGgoAAAANSUhEUgAAAEwAAADYCAYAAABBYAV+AAAAAXNSR0IArs4c6QAAAARnQU1BAACxjwv8YQUAAAAJcEhZcwAAFxEAABcRAcom8z8AAAwTSURBVHhe7ZrbjxtXGcC/uY/H9q6zCZs2vW0SWi6iVVpKK5DaQtqU5iFCpUWV+oTECw9I/QeQQsVfwTOPfaAVyUNbKvEAL7SAChUVFEEEJNkkuxsnXl/mevi+M55d27G9/mzvptl8v823Z86Z8bn85pwzjr0wBqOb3g1MPNaxF7725DMPJIb7ssqsIAMrghggyyjw1xZmN9kuM4uyQUyrezBf8tZSDKyfmqDDIo/Q+QwPdWpiOfY/NRJPqeS6bdtvvf3hB+v6wgkYK+z7Tz7/gmHA+57vQ6wyUJnSwpRSOggtB2vJc4TCLBbof3n1+lo8NI18aPhqnc4L3UrRHv7DriJ5m1RGP4qODRwDladK96UZtm4YWfrsr//8u7/QKyYBqxnNK9946Xkw1XveF1IzKTexhJrDBvvGm3eyqKg4leeHl+4KPX0gqMVbWjOxNMXSlgNGuwTNG+mGmapvv/OnD/7avWJHxo7g1SfOnFROes472iily9d1gzjj+ujrWE+mUEQH+jWYbpXtAd0m+yFhsQWq7oGxsQita/Yqbi+nzn/0/ifdK3ZkYPj9vPzYmZOml5yrPLFZso5fB8s2wMKpTFM8yhKgCa47hkuO9jUK27LAMA1I8ZiWMMX4VnaGBl5UsaN07Esa5TfWxP7S62gbyRJ8JQmLLMjWSgCXl6B10VnFXs5P2JlHTp20q9a5h3/glO77jglLQRWWvCq2a8C/m6vQSjoo0IA4TmCzuanj4IElKJUC2NxsQKvVhCiMdCtjGxoDCZpEmD6Pv5Iwg40Lob5pi/e6Wlq4mULjcgwZbm5G0iPsfy5b2NjH1vHF40ct33j9oWcqzrFv1eChew7DscNH4PBBbCyIwF6wYOFAGfwK7glOCqkZwT33L8Oh5RoYNt5WOwHDTcErW+AGs4U3pGwwqB3LMqFxJdaiFu/1wK3gEsQHY2sj0bPdwMelwj0MGgHEDWsTb8AvP7v0r6vdIe9I/tjagTTNII5SCMMYwiiCDkaMx0mY5oHnkhiXJEaKx3QtRUpluBT2NPAJqMEkoy0B85RqBjfgKZhIGDWev40YfEpuHfQdzhNutX3XY0bn6VcRMzKZsAG2292+Y7Pfu+HMWq9+/RxmVgFLGD0Tc1n0O38C5W8L8Qg7ZeiOFaXdc93yaQN/3VI2UfT+bHVr9ik21QzbhnoxhDlM/YIRLYxk6/rBF3IrGsGMwkYwp859HtkdYfuYu1wYfyncncJoj93aZ91uOhmyJJmIMCYijIkIY7KjML0/7uP3VVyYM2yOb+H3gl240RMJo/+PmaYFFoaNYeJ/zujT1SRLeyKBKI0hxrQ3HyYUEURTRJzmdVFbMdZF9VG9xae7wyJN6aOmPNIEg8pTjBhv9/YXW1MzkbAMOxHHNIh88IlKwbUcKNke+BiUlt0SLPgVKDs+lCwXAsxX/DKWlaHKjopOy34JfNcDx3Gg7AVQwfBdHxzX0WV9UZR5LpQq2K+yBy4eO44Ntovh4023Zp9yY2s4/cjpk14Vzh17LS3d90IKS4sHYKlag5q/AGXbB9uwcJEqfVcjFBpHkf542rYdiKJQS05xlnDXBs3gFKdDM2nDRtjAtAMPVpbBMWy42rmh84miegfAZlSioF1P9ScWbsXE3mWw2WjBtUsbUL/YgfYVvG49ALh8MP9M37BPnf/o/Hw+ov7K4YePmi68HqyEjnmojVPewCWBCzSz4JBZgwoEYCUWOKkLvvIgsHAGKB/czAEX8yWjBGUTZ4qFM8+idNKo6NeCsnFG03IEeDA4AhUsb9FSo6WlcHsABwfQE8rBm4gzy/GAvkt1caYbeF2GSzPEG9hBkeEGWm3ju/vNEiSb9BF1wvqIeuytP/PY6ZO42s4f+mbHr3ytA0GlDEG5DAeCRThaPoyCfL08810up3gs8OZUPzQ7aIY1YpwZnTps4kz7YvU+cEwbLrXWMN/Re+V2qwNgMZ2hD4lTvK7daUK9fh2u/7cDzct4oumDcX0B2mvGapbN8VujV5566UXLsd8NlnAi+rHe+PVbjBTvfewa9KUCbsm4EeL+0P36rRf65oaWV/5NeV5mYtkOzebQYPFmxLj0Ety4aZ+kukLc+Kk8/8gcW+xWR/tT8c08/UUCSdfgdTgn8RURLg8sS3DbTk0wMxduNlphquDp83947+P84p0Z2/NXnz39aJaon2ahuZh2oAWZSpWpHvUWjC9VjgEsVksQqBJ0VISBexYOrjsM/fp8H4vBxs2YnrBEGIb6ro+cHUheRz5ofRswpRlHjuhrvS0ZCD350lBB2EzB8U1wyyaEDVQUUS0IXmpEDsANH681PjYd8x/4jHdSMytnZnYxs7Kz537/m//kF+/M6F7nGGfhrL7mTXhTP5Rfefq7Pzv0Zf/s42+U4PGv3g8ryf1wKV2Dy8k61JMGOs3/boFmw7VrV+HmzRtQWViEAB8GpOLK1VVotdsokPkWcBjYs6SjoLmewNpnHVg84sDB4z5c/bQNzTV8KJBhB+NKFaIPlyG5afz4V5+8+wt6KY4LO4CjwjcBuq4JGddrEqVIVCGLwD0/ojMm3jTbM8DBO2oHJlgeluFeSoF7rU4NN++wSYHHugyP6TvLmcPpObZoHeJe2i3H3R/zOCOxXFFKf4SC8nCGdbrD0BOgR9ZOE2eLccK6c7ofbNah7/5ivLMhPn3aCt+bdfBNagufZi185mBQqvNtWi64dWA34zaWY+DShqyDSwzLZwqqo6gHtyeF+5OK83yGaUZ53K8o1cf5aPC2DmXoWIcx+7rQTfXcIDrsZvtv28A186Cvne1Ke6un4978rMxhI7m7EGFMRBgTEcZEhDERYUxEGBMRxkSEMRFhTEQYExHGRIQxEWFMRBgTEcZEhDERYUxEGBMRxkSEMRFhTEQYExHGRIQxEWFMRBgTEcZEhDERYUxEGBMRxkSEMRFhTEQYExHGRIQxEWFMRBgTEcZEhDERYUxEGBMRxkSEMRFhTEQYExHGRIQxEWFMRBgTEcZEhDERYUxEGBMRxkSEMRFhTEQYExHGRIQxEWFMRBgTEcZEhDERYUxEGBMRxkSEMRFhTEQYExHGRIQxEWFMRBgTEcZEhDERYUxEGBMRxkSEMRFhTEQYExHGRIQxEWFMRBgTEcZEhDERYUxEGBMRxkSEMRFhTEQYExHGRIQxEWFMRBgTEcZEhDERYUxEGBMRxkSEMRFhTEQYExHGRIQxEWFMRBgTEcZEhDERYUxEGBMRxkSEMRFhTEQYExHGRIQxEWFMRBgTEcZEhDGZWpjRTW9BdWOfMrUw1SumOO4V1XtcMKzsDmOmJVmMf9DVfmbue9h+lzdXYb2i9kwcbaYjN9T5M/cZ1scwa0XZrEGMyu8iuytsNxknZhdn3e4K2+PlshfMR1ivlD1YFreT6YUNk9Ira4i4YS+507hz97DbxPyF7bM9axCZYUxEGBMRxmTvhA15at6JTC2MPfZ98jCYbYYV1nrtDZocds0dzPyWJAnplTOY3y1629kDphc2qpPDynvLigHOGkSRDjKqfA5ML2zSPWmnwU3LbZBFzG9JjoLEFrEP2H1h+wwRxkSEMRFhTEQYExHGRIQxEWFMRBgTEcZEhDERYUxEGBMRxkSEMRFhTEQYExHGRIQxEWFMRBgTEcZEhDERYUxEGBMRxkSEMZle2C7/0cfnlemFdf+4xMC07+9MigylfSfmzC1153dQFw+em2M/ZluSRUcoHYxRDLt2miD68nmhKs4VDOZnhC9MQeC5LpSqLlSdEiwaAVQrPlQWPCgvulBeyKOCx0HVgVLF1mmwQOGCj3m/bOXpDEH1lsp4jOFRlCzwAirHlI59G1xMddCx7UCmlN8dxdSw/X/vqVM/qq04b5z4STn8+pMPJCvWEVhtrsOl9jrciBugMgWGaeqlura2Bo3NBlSrVRxEAJABXLu2Cp12S18zK1RFFCpobaSw/s8QFo84sHTUhat/j6C1FueL1EkhvVT24j8uK9Wwfv7Op++9rV88JWxhzz33nL+yUvNP/BDgxIkVWIEaXIA61OsY+LNNDeoX9Bmo1Wo6T9TrWNZ72TzA+i5coHawlRVql9rpaaSOJ35bAzdebr31t7eibumeMOcd4bawH8ZwpwDwf1CUNKSGzc2tAAAAAElFTkSuQmCC;opacity=40;" vertex="1" parent="1">
          <mxGeometry x="520.47" y="91" width="29.53" height="83.92" as="geometry" />
        </mxCell>
        <mxCell id="fn3hpe5vCrqdeOl8oa49-69" value="" style="endArrow=none;html=1;fillColor=#dae8fc;strokeColor=#6c8ebf;strokeWidth=1;" edge="1" parent="1">
          <mxGeometry width="50" height="50" relative="1" as="geometry">
            <mxPoint x="393.1100000000001" y="257.5000000000002" as="sourcePoint" />
            <mxPoint x="503.1100000000001" y="258" as="targetPoint" />
          </mxGeometry>
        </mxCell>
        <mxCell id="fn3hpe5vCrqdeOl8oa49-70" value="" style="shape=image;imageAspect=0;aspect=fixed;verticalLabelPosition=bottom;verticalAlign=top;image=data:image/png,iVBORw0KGgoAAAANSUhEUgAAAEwAAACSCAYAAADvoyx0AAAAAXNSR0IArs4c6QAAAARnQU1BAACxjwv8YQUAAAAJcEhZcwAAFxEAABcRAcom8z8AAArJSURBVHhe7ZxLjxxXFcf/9a6u7p7uGc8kzsPBgtjZgJXYIRFIoGySWE6iKBEbBEiQKMOKBZ8g4jOwchAPCdixDFIEG5BjIJEcjSCCBUGxE5LYcTLTPf2uJ+fc6hr3tGc8fbp7Bj/ub3T63nuq+tap/z33VrmqZWhkGMPyhrxw6ptPZqn9mGG4gzQ1MsRAmiZIh9thWjCH1Z0otvH+pnmjPeeDRYdItoIjqG0VbT68CiGifSKjmQ28yEjePr/21h/ZuxcTCvbELwOv9P3IArI0Q5qQUQAZ/TGGYVBHO3RFrmJLluX7wtxl37mQ5bFQ93w4dUgaX+VTh6cNJlW4QeeRxAk6WYxW2PvV+bW//YD32IuJIn/h5NM/L9Wsl5LlJjInRpYMN2xjuwwspvJMdIT5og5JIhWDlIcwjIXF4rLjIN500OkZaPcGv3hz7c2X1W57kPe1By88cuast5yuZscuwwhCyveJvjY38tPO4SOPtneH97oWJ+ukvscZR1MyWw8QXQ7Qadpod6PXzq+d+6HacQ8mOvPnT5w5W74/XfW+dhlOPYGV0NykryaUanE2XBxoNFNqp7R4cGbZjkPTNkWSUDrStu3hyylEKgS7cX8US8xGM9AxaN0kD4WR0jRUWcftK2WEH1TR+dxFuxW/dv7vcxTszPEnzx4+4a8eX01x5GgNi0aNjmliPWzhSn9DrRlxFKHb7aLT7cC2bKwsr6DX66HZbCKOw63pMS3jgu3IcCNdj9C5GqH9aYTafS78BQuDVorueoxBJ4FhkXBXKlMJxqmyJw/Wvvjc4gPeqWPPVXHs+GEcPXQv7lpahF21EAUJqvUS/IoL06VArBjBgof7HrgHlkdZiAFML4PjG3ADa2pzyLyx9uh2Nt7u+BZsz0TUzdBvJKjd4yJYstVFKuykiHs0A+jCg7aLZNND1LMQhumFD6988PrwdG+IusDuCacwZUgU0ukPIvQHIfphiJDq8SBGNKCpSWVM25OIpmFIdx5UV201NfiKVEyT6W2vvpSfr+BU8tWcKa7qXM6Y5IrJBLuOYTDbP3KuC+o6x/6yy+HmFcWUgjHDENQqyB+81NMfVZVri7zF/nmxW1fKv7WxqIyXsyEWjGUqjBnKNBIO1ZQ6I55hO7+pnN3o4zqf8qs4inZx3NzLy1bemo0ZMmxn5hHU1PDBtwLIK/OOZ+6CzWutmJ39iWTugt0yTJl6d65gUybgnSsYM4Vod7ZgU6AFE6IFEzKxYDfP7cL/l7ln2LxvFG829JQUMrlg9O8yfuNjGRZsfktkmPkjnzS5ZkmEARmXcRori5IQg5j8MZdyC4d98VuqJImVL6aSn+buaAlbgjiieEKKIc59iSoz2me2xWWiB4jHlr70XPUe69TK4xlqix5ceEosJQ6djG87sElAg4KxaFIGXoBDC4sw+ek1+VzLQcn1yEpk/kQWDM1zXNi2DdOy4FK9Sn04tgvTpoEjH28bN9O0kUYGsthC7W4fftmhOhCHuWgsWdZ2kTblDxAnWnKePf702eUT1urRV1q493gNK/5dqHhlCj5AYPnqyUBCoxtRJrFx9pX8Eo0qZUQ0QEYjnIc5+QrHe/LThlbUxdVBg8oeak4ZX6jchSu9BvmaNBZFv2PQQEW9FCGZX6WcoJHrbHbR3Gih8WkHjY8oSz8IEH+0gM667BH1ZFPSMpFSSrfX+9igA179rIX1jY56Tu72PTg9yro+ZURUwUJWRzVdgEs+PwqwkNaxYCyiZiyRcTm51ek7lawGL6nAjkvw0wpqWEIpq6q2tYvZCe1r04BWqvDMMixq2/BVZlqWTWpalHF06pn8EjXRN54/cfq16hHjlYVvbKB62EfVr6NMGbRM5bJbU/sUGVR0WIy7ao86J46R1kwylWH9JlpxBzWXMqx8N2XYhsq6hJ8536DP/HGYod5c9fs9dHpttGigmx/FSD71kKyX0GmZ6Hajn51bO7eqvrQHE4X/4mNP/7paDb6b+iGtHepxHAVB0yE2MiM2jeJHA/yDgeKhHcPnw83i5wG8KOcP97iPiQ6tpl3Mr++o5KnuGg61aTEfe5vM7xrVyw2C1ymGY1WwrhRMasb8aZgJrbQJnUNsoEPrcLPX/s25C+e/l+98YyaK+ltfP/2dNDZOJ32jl/QxgJPUKbGeWXjAWaweMbFi1ZU4G2kLEZ1Msa7wCfKVrdVu01Sw4Hu+Ei2MQkRke6IE56elucDcL6+V3C/7GC7Ipd4G8VshFqu8Yqv3kN3PKRYKTA0OiWRulpF0zA3Dsn5PF/pGasTeZtYthUn8xrl3/vJb1eEeTCTYOC//+Kklo+H+6cGnKl956JkAXw0eogANvDt4H+2kq0afT8Smq1Wv38elS+/D5yl8aAWDcEACbmJzs6kEGM3IaeCsSgYZ2ldibH48QNRPcf+jZcTk+2Stm2d1Rmtw14H577vR+4/3DzPMnvjdP/+wPuxCxOT3YSO4nqOuT+pNMgWUWlR38ra611HGI8/byXgi8LaiLPy0z8w27Cvv91pb+eh4nPlUVTEoo/h7FgU7JVMJ1v0k8yggI41ofaGRDEmdMKYbxUHe5hFn47pqhwbdF9G0UXU6EZqN6dA3s3FfXPJPsCjLM16b6B6MffwbEM78wlgtujAagZ95+ZnImUqwLUamE9e2FvLRWTZSz3ffYZ85UXQ53vVoe7YTnv37dxxaMCFaMCFaMCFaMCFaMCFaMCFaMCFaMCFaMCFaMCFaMCFaMCFaMCFaMCFaMCFaMCFaMCFaMCFaMCFaMCFaMCFaMCFaMCFaMCFaMCFaMCFaMCFaMCFaMCFaMCFaMCFaMCFaMCFaMCFaMCFaMCFaMCFaMCFaMCFaMCFaMCFaMCFaMCFaMCFaMCFaMCFaMCFaMCFaMCFaMCFaMCFaMCFaMCFaMCFaMCFaMCFaMCFaMCFaMCFaMCFaMCFaMCFaMCFaMCFaMCFaMCFaMCFaMCFaMCFaMCFaMCFaMCFaMCH7L9jU/032zclsgrEYhSA71cm2/b/QI/5blbll2JYOY2Jsa97CQhXMLNi4BtwetW3sw/9wftAc3KK/k7JFOauNs5NvTuyPYKMB73ZSzLxObKd+5tX3GLMLNhoY14v2aH2EXdy3DAc3JW8TtGBCtGBCZhJs6vXoFl7EDjbDbvUVn5hNsEKAQoTR9qgdBOPH2qeb5IPLsHHh9lvIfer/YATbLXj2z8tGGW/PkYNdw24DtGBCtGBCtGBCtGBCtGBCtGBCtGBCtGBCtGBCtGBCtGBCtGBCtGBCtGBCtGBCtGBCphLMsmzTzFALKi4qSx7qVoC6G6BKdW5XFtloG5VlKoOaraxcd8kcqjsoLVgoka+0MKMN+/ArFryyBTcw4VPfftVWdS8gX4nKEpWuww9ja4M4nDpRpnpVsPrtZ5cTJ/3p4cedk19+sdZ8dOU4kBh4d/0SOnEPCf0xtm2j3+/hww8vwfdKOLS0jH4Uot3aRKu9CWQpDGPGJKevp2GK1tUEmx9HiAcJ7nskQBxmuPxuFxmHkhnIeg7ify3Wkv9W34mt/o9ev/Dnz/IOZEwl2Kuvvmq+995blQdPVuyHXyqnD9cfVv61xkX6bNBfTp2sQY2LjTWq01+dPeyjfXjDHOHuGhf5Azj6RD1vr40eo47OX0tmu1GPH3/7jfZPSOfhhn3nNviVl+J2OQ/NbQTwP4Ihl+ZlR7qqAAAAAElFTkSuQmCC;opacity=20;" vertex="1" parent="1">
          <mxGeometry x="370.00000000000006" y="91" width="25.51" height="49" as="geometry" />
        </mxCell>
        <mxCell id="fn3hpe5vCrqdeOl8oa49-71" value="" style="shape=image;imageAspect=0;aspect=fixed;verticalLabelPosition=bottom;verticalAlign=top;image=data:image/png,iVBORw0KGgoAAAANSUhEUgAAAEwAAACQCAYAAACia41/AAAAAXNSR0IArs4c6QAAAARnQU1BAACxjwv8YQUAAAAJcEhZcwAAFxEAABcRAcom8z8AAArPSURBVHhe7Z3JjxxXHce/tfTeM9Mz3sYkColDHGcytkfEMkJckKIkSiYKRJCIE+LABQ6IC8qJf4Bbrkg5cOGAhFgSCcMIpJhDIBJRhASCBGETO4vHPT29V1d1Lfx+r6o6bXvG079e7Mz4fdqvq96vqt979XlLj6usMTR3DiPZ7mfE1zDRRb+08lK2+IhXXPshsLb2IPhVp9fl+mV6Z/i9Eu/V6QjFKxXOD8fonDg7EVwEF8VVXr5cp3ootlZB/d24ngF1OvAuxS+j9+b/3uwl0ZGZSNjXzj/99bnj1o/PfL9gnP/q59yT9oPYdBr40Kmi7rXgRwEsw4BhWKhtb6FWr6FUmqNUhGlaqFY/QavVpnPMpMQxoavgC/E9wNn2cf19B4VFG8srBVT/66H5UR+IQkRWhLCWt/tvH8uF9dyrv/nHhdfiAkZnImEvfOmpHyw/VH713I9KOPfF4ziFE9ikLr4SbKLmNZUwk2SYpomtrSq2alsol1lYCZZl4drmJ2i3mur4hE2hTiFhboRuzcfmvxwUl2wcP1PE9fd6aFwlk0Rkh8BWEcFf7kP74/Anv/7nhVfUAQETda0Jo+d6HrpN6kWvh+2wi0bXQXO7h/a2S8lLti46jT6cpo8ubTt1Th4cFQuS5E+eWj567QCeE8DtxmW6nO+GKu9RcumY16cRB3TVRQiZcC58SpRsDzpTEzbZhNo/TE3YvYIWJkQLE6KFCdHChGhhQrQwIVqYEC1MiBYmRAsTooUJ0cKEaGFCtDAhWpgQLUyIFiZECxOihQnRwoRoYUK0MCFamBAtTIgWJkQLE6KFCdHChGhhQrQwIVqYEC1MiBYmRAsTooUJ0cKEaGFCtDAhWpgQLUyIFiZECxOihQnRwoRoYUK0MCFamBAtTIgWJkQLE6KFCdHChGhhQrQwIVqYEC1MiBYmRAsTooUJ0cKEaGFCtDAhWpgQLUyIFiZECxOihQnRwoRoYUK0MCGzE3ZAf7GrHmFCZidsr9+1vE9/F/PUhKXXP/DAO2najdsd+4wyFWHRsJih/cEyNnx8nzOTKZn6SR3t6Wr45EnYrYwpfgHNbA1LHezpYfiE4Q+Nk3Ziyt/WMxPG/4PC7Rp7u2ucCnuJHJOZCbuhsVNu9N1kOsJ2EzIs7YAwuxF2QLl7wvbpyLu7I2wfSpuKMLVUDV+8CsS7ijSfxm4+vo+Y3aKfSkmPDefT2D5kdlNyt5/BUlnp8ZtFTiOlDO9PiTu/hu3xA+1nnTsnbJ+LSrnzI2yfo4UJ0cKEaGFCtDAhWpgQLUyIFiZECxOihQnRwoRoYUK0MCFamBAtTMiowna8k2UZpqsO8R9+1K22vKE3Qu0n8QG8n+SHwxORFjRUtrrdOogP3XpNYkZkqP9/X8qowtIa+fzBZ/wwyKeHInpxWzjH+2pLb9ENT0eI+ITB7lRIC7qhwIE5ig/tJ4QIs8kuc+sJuzDylFxZeeKBx8+svbZy+uyFldNrv3p05cwvan3ne1HI7SRZpkmjyYRJ2zgZMC2qwKLxRvtcU0Q9TaeokaeaqPTTVartZClKtqpsZnjL9ao8vVEHhkGIhuF869HTZ3+5snp249HVs9/hownpJ3fktgeHOb92/ixNr7/m8/mcH/YRUsUlI4ujhwt48NlcdOKxReM++yiaXhdbbgNt36FzQjUlTbLUarfQ7rSQzxeQy+ZVvNmqo9dz1PGJoSsJ/QheJ0Tz4z6yRQuV+7NoXeuju+3H51DnRK0sgvcXolYvNNqWB5t61Xf7F48VKq8c6dl//+nf3ujGJ+/MyMJe/PL6qhEFG5mCseyZPYrEU5B7zsyQFBpF8doVT8hbZyIFODaokXboJBWfJlwNjXouXvUDz4C0irh5FDPUhuNGQK0OMuh7qJLQb/z2rY2LfOpuDJq/Fy+fW1+lVX7DPtZd7lWqiCwfAa8EAYkLTES0DagZZjKiOEXUcl7D1CjjKUsplkRwYynOwlV+CqiLUaJICBcaRrCyvFTQbkB5bgtPW1q9eLmAT21sZSKzMW90qzYCL3jmjXc2/sDF7MbIwl48QyMsE27MrznL9uNbyOQNGs7UGFo83NBDwNOPXrRCIKA1IvAD2LYFy7IQhCyW9Kquv4OQNN+jN/pjZrgT45EfUIzXUxYWVgvAR4voflBw4FvPv/7O7/6UfHpHRha2fuqpVeqtjcdeLi6f/GYWywtLOJKvIIcM3mtdRc1rwjYs9H1PrVe12hYOLx1BpbKIRrOOVqsJx+nGFY5c663QZQ4+zvu7weewmM1/95S0pYeopQUTXjtA7RJ1cD+gzrYQbtEX/Sck7Ep+JGGjr7Yej+gImZyNUqWAymIZhysLOEpC5hdLKC0UUKZ4aSGPQjmLbMFCYS6LMsUL5RxyJZtiJjJFUx2baaIFn1Mmb8XrGNnL5KjuvBlPUQqpKTsGowsjeC3g6eb2fBotLrpuDx2vR3kPntuH1+Pko+8G1IMhLaS+inPed2ma9mmdo95W21mmpA7+1kzF8Bqm8rTW8o9lvH6Og0jYToxX7Z1h10E05uhiJhaW1h3/SBFvufPifBqjRME0zZq4irgd8V6KakkSH8/aRMLiKvnnsbhJ6VY1jOWofHosfh8WN6sU16PeP82rl9pVadxBNvEI252dmjRuMz87zFAYc/CkzVjYwePeFsaDfZDUCrcneoQxglVCCxOihQnRwoRoYUJEwtIvlHsZ8Qgb7cv3VqJE9X4XPsaUNOhD8S1oK/m7Gz8Q4bupgxQGCDjRfpw4T1uOBQE/nhMn/mxIZfBt77QsznN9fJ8uvh2eJmpPmLQpSJI6l87jeEDdxj03Ru/zne2ROHns4aOmZX770IpdXjwFFLIZ5KwsCTPR8R1Vf97KwOY+4DvR1KjFuQXMF8q0H6qeyZgWfS4/VsraWVi2BdOyUExitmWrW+Bx4v0k2TZsSibfAe4YsDM25o7kkM3ZJMyA2wmUOPgGIscG2gX0mxmffnj9+Xsf/+cSX+9ujOx4/dT6qpUNNh5+0Vr+/AsBjiwt4lCpgvn8XNxz1JuMTyOoxzcWnTbmimUU8iU4rkMxB/2+R2dQlYKe5XsMPGJ6gYd230E3cHEoO48CdU7d66AXevBpBO9UKN8s5MdsfOOweNiGYUVw2i6qHzbQuu7CrdE56S3qqwUHgTnNe/rrq3Y+3Lj/OW/52HMdLC5VsLhQwaHyIh4oHsOcXVRTj65tMPXspPfVQ5BkCsWMbiye8iGa/Q42nW1UvQYembsflUwZH3SuoU5xlqnu4twMDyKXO5OmUpbKoTZ0u1TOteu4fqmNxiUSvV0kYUvoXslN9yEIPzWK7HDj0BPecmmthdJcCcVSCQuleZwoHcdCpqTWKwWVqkYGt5j+pPlxYGE8wlp+F1W3gZrbwom546qDPupW0eh34YXxP5O4pQaul4NcBq9dJMzpOai36ti+2kHzSgijnYPRmIOzaTuRH5GwjSkJO/fUqmEZG9lsZtkHNTBpjHoOSS9V0MilCWDhyYY7gJZ0Wnj5WWM88jiWnLI3qv/oxVtew7h/6S/dJq2tnh84tLQ8//rbUxK2/pWnz0aW+VbBLhX4QUf8zRSntOGzhAXxizuIRzLXxt0UxyVwGfRJ+rpT/+bDoA6wTfT8Ho1A/5kLf57Sg9wnn3z2JPXGz2hwf4GyzTh6MKBOL1Gnb5mh8d0/Xvz9W0l4B4D/A4EARQUv/LPpAAAAAElFTkSuQmCC;opacity=80;" vertex="1" parent="1">
          <mxGeometry x="421.25000000000006" y="204.35" width="28.16" height="53.36" as="geometry" />
        </mxCell>
        <mxCell id="fn3hpe5vCrqdeOl8oa49-72" value="" style="shape=image;imageAspect=0;aspect=fixed;verticalLabelPosition=bottom;verticalAlign=top;image=data:image/png,iVBORw0KGgoAAAANSUhEUgAAAEwAAADXCAYAAACwNrerAAAAAXNSR0IArs4c6QAAAARnQU1BAACxjwv8YQUAAAAJcEhZcwAAFxEAABcRAcom8z8AAAviSURBVHhe7ZtbjxxHFYBPX+fSsztre+31xheIDZYdASIyCZcIgaIYKyEBRQIeIBIElEXiL0T8ECcC5wVekEAgXiK/BDlGCVIusuABEHFuvsSxvTs7O9O3qm7Oqe6xx5vx7py5bLT2+VZnqqu6u7rq66pq7/QaRsAq0+3OSP0Y6aRnnjkRVH3vh/sf8fc9+KMd0UPBUcgygH+GF2AtC0FhxsbjbNeFJArhwrsXoFqrwc6d8xDHMbQ7bei0VgBPMceNhQuQJQDtywpWLsWg4gz2PxSACgGunO+AxrY42gYduqD/tbuavRdcXMmzP5w5f6ZT1sBiJGHPPXdyMVfu2QeebB4+9r0AHnaPQY5VnVfvwJrugsq1qdh1XAhR2LskrFqD+fndECcxrLZb0G618Bw8yxpvwFpoXMU5tK8oaF1MII01HHy4ASrK4NJbXch1DpBbkHd9sP+9F9r/cf+X2fDNP7358uWyChaj3eAutiEDleDdjLsaQkhN0HbcwaC0W+xLME2x8QlFiPkQ82GOZWXQ9jgRoTCsh6RpHGkUVK6wXKe472bgfp2hO0uVvRiJkYQlrpNneZ6qhERoiDIFUaIgjpTJp0ZMGZRHsXTHSVqKedpOsYPUyfGD7hymJAQjIzlUjm0zZYoC5WFKSwUqS13HwWE3GqMvITST+mYTzSyrV0Dbvf2miArKstu2i+xY0U+Z79Xd292fjrtmjnv+PYcIYyLCmIgwJiKMiQhjIsKYiDAmIoyJCGMiwpiIMCYijIkIYyLCmIgwJiKMiQhjIsKYiDAmIoyJCGMiwpiIMCYijIkIYyLCmIgwJiKMiQhjIsKYiDAmIoyJCGMiwpiIMCYijIkIYyLCmIgwJiKMiQhjIsKYiDAmIoyJCGMiwpiIMCYijIkIYyLCmIgwJiKMiQhjIsKYiDAmIoyJCGMiwpiIMCYijIkIYyLCmIgwJiKMiQhjIsKYiDAmIoyJCGMiwpiIMCYijIkIYyLCmIgwJiKMiQhjIsKYiDAmIoyJCGMiwpiIMCYijIkIYyLCmIgwJiKMiQhjIsKYiDAmIoyJCGMiwpiIMCYijIkIYyLCmIgwJiKMiQhjIsKYiDAmIoyJCGMiwpiIMCYijIkIYyLCmIgwJiKMiQhjIsKYiDAmIoyJCGMiwpiIMCYijIkIYyLCmExHWF6mxJ22tynTG2EkZ5CgO5VvE8YT1t/59WmJVaZ3CxMbYcbdOlnEgKJtzdjC1gsx4vribmN6a9iwrDc8SmwhWydsUMcm1dktlLY1wqYpaxBTrHs6wqjBvUYPaPw0Xd1kSheZ7gj7tGRNkfGF9Rug7e1uZBO2btG/SxBhTEQYExHGRIQxGUvYyA/Fbfwknc4I20jINv9nx/SmZG/4bXNB65mMsH4pGwkatK8ndZwgeumUGU9Yf4OJjRq9/lhio+M59OpZn06B6U3JfgZ1YIqdmiZbI+wuYmuF3QVvRGSEMRFhTEQYExHGRIQxEWFMRBgTEcZEhDERYUxEGBMRxkSEMRFhTEQYExHGRIQxEWFMRBgTEcZEhDERYUxEGBMRxkSEMRFhTMYTRq/++1//323/OXIAkxlho0hbL3ubsJmwgV16/vmTy3iitnBvERZYNm3gzl7gARbVTsV2frPclPXKy7Jxolffzbro76jK+m9F7/rmAP3s8uFl2ujD7BgGp0w35IvIzsXFRxYWFj7nu3P3vfLKf7++o1n77s77/eauIz7c15jHNlnwcbgCaa6wyblpge04oLSG1dUWeJ4L9Vrd5JMkNkF/Ikayb3VstMg1QNLNIG5ryHQOs4u+SdeuYluMKxvy1AbregDJspP8xX/nij8/t3dx797PXjtw9UO4DFjDcNC92BTbdn5Vs70/Opbz5+Zc9UwcqdNJrA8kocZGZtBpJSYS3DaxVgZ2IMVUdS1IOxaWAaYACrepTIdFOk5oSrEeHZEUx4ihejPKJzgesAywjFKtsC22PqBBnZ71qy97tnv6C/Hxw2U3h4Lu0aY89pVvvVSrVn6qIIEsz1CgBY26B409bj6z6Fo7Kg28zRasJh1QeLvz8j9/0zTNdAbdsAuObYPvVyDLMkhVCgpjEtAIzbMcVJxDGmU42nKozbmmLGphW+gY/MkVdnXNz1XoWLGlsNQGlaBAnf1N5fDi2TfP/s5UuAlDCfvBQ0+c8gNrSTVbkDk4zDNcCLDjGV43x36TJMK1nGKKITelYd5GWQTJpsabNa88blwKIcUHrWdUP01H2rYdFFU0A3dgmUOB5XTt0Mt1x7NCHH2tTvf3r7716k/KIzdkqFY//eUnT1X2pEv6gfchr0XYoKKcTu7veLGNgY3MoZBDebMwbzE0umkmUFvp5tEzyTwcaAPl5VdxPfuwAZ0bHqx11Ivn3j67VJy5MVTNpjx57OSpXUfdpf0/DmFhXw0aEOC1LWinXVhO2lgLriG4mMdRCFEc4fRzoNmcgziOodvFaapp8e3d6uGhxrHOKk+gERa1MghXFATzHvh1G9Jusd7StAUcafmVBiTvzUDnWgXW2uqFc+fP/rKoZGOGEnby0GOnDn4tWPrqrxvwwNFFWITd+Hi14XJ8Ay6sXcK7hg1COa3VFVjB8D0fDhz4DLRXV+HatasQ4xMxw1s96jTsl7apRNyp0xxW3k/gxrsx7Dlag/q8C+F1Ba1LCYTLCiwXD/sIR9gHKOy6zxI21GQxB+EIUSnepTiBKI0hUgmKSCFN8EkYK0hThQt5ZhqrUlxMY3wWYUr5DNPMpFMOXL01BqW0zppm4+KfUxmmvOE6mOFWFzqKrkcXx6AnHT39TEpl2LreviLIb7lNKZ07RphrDxMkyVwbo7RTXL/cNp/jMZywfnqzqpxeRdI31XCzL7e10IVvXrzYmHRb2MLoLhVR3C96Et5qWpnrPS0NWIL5UQM/TAza94no/Zg8nVa0g34onQT8ETaQolGTadLtsOq8zUux0d8qVl13YELCiEmsEIMZraO99pQzYRK2kAkK22aMKPDeFTbihLh3hREjSLu3hY2ACGMiwpgMLWx6/2jYXsgIYyLCmDCE4S8Zvd/XTFqQ5bn56vlW2gvKF2Xm62wqM99uMKOsq/etg8a8+Xakr2xgZPStShFFHpcVXFcoxoEhjC7e60Qhg6Q5ln1buLZjwuRtCsw7VOYWKTPofHonQF9SUuqZfFH2icBrWhhm28Fwy9SU4022KYrejMpQ7yU/v/PwU429zvG54wnUZrETuQOozdw5D0UEXhWqjm8icKswV5+F+ZkdULM9UzZbDaBZn4Fm0MR0duigeuqVunmn6WI0agEsNObB932wPAc8TGn7VlRM6nk+3iDP7J9bqEOt4WMvbNNeuuH0pWbe9iFbrUAaOpAk2RsffPT+X4vebsxQv1E9ceTkqT1fcpbuX1qDfUeaMF/bDY1KAA2vDoFTNcfoTBevz9LU3OFatQapVtiYxOwrnrO8X+Do7U476cK1qAVt1YWmH8DBYAGuhsvwcdwy03MQNB3TCKObQWXGwVGVwdpqCK3lVVi52oHWxQTUB3VQF2fZX1EPNcKO7TnylL8zP+4eWgHwNd4heilqQcMKYJc1BxWNdzbzoYY/gdOAuh2YfDWvQoDbM87MSNF0Z8HKXYg1dh7d7PDn4FCwH2KVQZgqFOphB3AkWRVwLRxVZXg2tserQK2OI9+vmjpIos6U+Tq9ew37sOxDvlbFEWZPfoQ9/eDJU7U5e8nZ1wU/cMB3sUGuZ6ZfHYMq6a2lvQpvz+PnUFfqAyugU+Isha6OTVq1fWh6AXRUBB0dmSl2x5FLl8SgQ3KchjTaUxz9SZSaPynIOy7oyIVOkkE3Sl44+/a5yb01+v43Tvym4tR+HuMQ1/rWU4rWMXqKTQ2Shr2mRZumJz1o6Ilr8rSAl4dtSOmzeLLTwwM/XXpniU94C2VZCXTj7m9ffePvvyhO2Jihrvmdbz9+ulKt/Uyp9e8X+7enSX8zSwNjQCOP6qAbn2gUFnVeeu21c8+anZsw1JUfffTxE3jow3hXYky3ytLUwEFqRpjW2orTbkWn+h+vv37uTLlbED41AP4PdT9s8rw1WZ4AAAAASUVORK5CYII=;base64,iVBORw0KGgoAAAANSUhEUgAAAEwAAACSCAYAAADvoyx0AAAAAXNSR0IArs4c6QAAAARnQU1BAACxjwv8YQUAAAAJcEhZcwAAFxEAABcRAcom8z8AAArJSURBVHhe7ZxLjxxXFcf/9a6u7p7uGc8kzsPBgtjZgJXYIRFIoGySWE6iKBEbBEiQKMOKBZ8g4jOwchAPCdixDFIEG5BjIJEcjSCCBUGxE5LYcTLTPf2uJ+fc6hr3tGc8fbp7Bj/ub3T63nuq+tap/z33VrmqZWhkGMPyhrxw6ptPZqn9mGG4gzQ1MsRAmiZIh9thWjCH1Z0otvH+pnmjPeeDRYdItoIjqG0VbT68CiGifSKjmQ28yEjePr/21h/ZuxcTCvbELwOv9P3IArI0Q5qQUQAZ/TGGYVBHO3RFrmJLluX7wtxl37mQ5bFQ93w4dUgaX+VTh6cNJlW4QeeRxAk6WYxW2PvV+bW//YD32IuJIn/h5NM/L9Wsl5LlJjInRpYMN2xjuwwspvJMdIT5og5JIhWDlIcwjIXF4rLjIN500OkZaPcGv3hz7c2X1W57kPe1By88cuast5yuZscuwwhCyveJvjY38tPO4SOPtneH97oWJ+ukvscZR1MyWw8QXQ7Qadpod6PXzq+d+6HacQ8mOvPnT5w5W74/XfW+dhlOPYGV0NykryaUanE2XBxoNFNqp7R4cGbZjkPTNkWSUDrStu3hyylEKgS7cX8US8xGM9AxaN0kD4WR0jRUWcftK2WEH1TR+dxFuxW/dv7vcxTszPEnzx4+4a8eX01x5GgNi0aNjmliPWzhSn9DrRlxFKHb7aLT7cC2bKwsr6DX66HZbCKOw63pMS3jgu3IcCNdj9C5GqH9aYTafS78BQuDVorueoxBJ4FhkXBXKlMJxqmyJw/Wvvjc4gPeqWPPVXHs+GEcPXQv7lpahF21EAUJqvUS/IoL06VArBjBgof7HrgHlkdZiAFML4PjG3ADa2pzyLyx9uh2Nt7u+BZsz0TUzdBvJKjd4yJYstVFKuykiHs0A+jCg7aLZNND1LMQhumFD6988PrwdG+IusDuCacwZUgU0ukPIvQHIfphiJDq8SBGNKCpSWVM25OIpmFIdx5UV201NfiKVEyT6W2vvpSfr+BU8tWcKa7qXM6Y5IrJBLuOYTDbP3KuC+o6x/6yy+HmFcWUgjHDENQqyB+81NMfVZVri7zF/nmxW1fKv7WxqIyXsyEWjGUqjBnKNBIO1ZQ6I55hO7+pnN3o4zqf8qs4inZx3NzLy1bemo0ZMmxn5hHU1PDBtwLIK/OOZ+6CzWutmJ39iWTugt0yTJl6d65gUybgnSsYM4Vod7ZgU6AFE6IFEzKxYDfP7cL/l7ln2LxvFG829JQUMrlg9O8yfuNjGRZsfktkmPkjnzS5ZkmEARmXcRori5IQg5j8MZdyC4d98VuqJImVL6aSn+buaAlbgjiieEKKIc59iSoz2me2xWWiB4jHlr70XPUe69TK4xlqix5ceEosJQ6djG87sElAg4KxaFIGXoBDC4sw+ek1+VzLQcn1yEpk/kQWDM1zXNi2DdOy4FK9Sn04tgvTpoEjH28bN9O0kUYGsthC7W4fftmhOhCHuWgsWdZ2kTblDxAnWnKePf702eUT1urRV1q493gNK/5dqHhlCj5AYPnqyUBCoxtRJrFx9pX8Eo0qZUQ0QEYjnIc5+QrHe/LThlbUxdVBg8oeak4ZX6jchSu9BvmaNBZFv2PQQEW9FCGZX6WcoJHrbHbR3Gih8WkHjY8oSz8IEH+0gM667BH1ZFPSMpFSSrfX+9igA179rIX1jY56Tu72PTg9yro+ZURUwUJWRzVdgEs+PwqwkNaxYCyiZiyRcTm51ek7lawGL6nAjkvw0wpqWEIpq6q2tYvZCe1r04BWqvDMMixq2/BVZlqWTWpalHF06pn8EjXRN54/cfq16hHjlYVvbKB62EfVr6NMGbRM5bJbU/sUGVR0WIy7ao86J46R1kwylWH9JlpxBzWXMqx8N2XYhsq6hJ8536DP/HGYod5c9fs9dHpttGigmx/FSD71kKyX0GmZ6Hajn51bO7eqvrQHE4X/4mNP/7paDb6b+iGtHepxHAVB0yE2MiM2jeJHA/yDgeKhHcPnw83i5wG8KOcP97iPiQ6tpl3Mr++o5KnuGg61aTEfe5vM7xrVyw2C1ymGY1WwrhRMasb8aZgJrbQJnUNsoEPrcLPX/s25C+e/l+98YyaK+ltfP/2dNDZOJ32jl/QxgJPUKbGeWXjAWaweMbFi1ZU4G2kLEZ1Msa7wCfKVrdVu01Sw4Hu+Ei2MQkRke6IE56elucDcL6+V3C/7GC7Ipd4G8VshFqu8Yqv3kN3PKRYKTA0OiWRulpF0zA3Dsn5PF/pGasTeZtYthUn8xrl3/vJb1eEeTCTYOC//+Kklo+H+6cGnKl956JkAXw0eogANvDt4H+2kq0afT8Smq1Wv38elS+/D5yl8aAWDcEACbmJzs6kEGM3IaeCsSgYZ2ldibH48QNRPcf+jZcTk+2Stm2d1Rmtw14H577vR+4/3DzPMnvjdP/+wPuxCxOT3YSO4nqOuT+pNMgWUWlR38ra611HGI8/byXgi8LaiLPy0z8w27Cvv91pb+eh4nPlUVTEoo/h7FgU7JVMJ1v0k8yggI41ofaGRDEmdMKYbxUHe5hFn47pqhwbdF9G0UXU6EZqN6dA3s3FfXPJPsCjLM16b6B6MffwbEM78wlgtujAagZ95+ZnImUqwLUamE9e2FvLRWTZSz3ffYZ85UXQ53vVoe7YTnv37dxxaMCFaMCFaMCFaMCFaMCFaMCFaMCFaMCFaMCFaMCFaMCFaMCFaMCFaMCFaMCFaMCFaMCFaMCFaMCFaMCFaMCFaMCFaMCFaMCFaMCFaMCFaMCFaMCFaMCFaMCFaMCFaMCFaMCFaMCFaMCFaMCFaMCFaMCFaMCFaMCFaMCFaMCFaMCFaMCFaMCFaMCFaMCFaMCFaMCFaMCFaMCFaMCFaMCFaMCFaMCFaMCFaMCFaMCFaMCFaMCFaMCFaMCFaMCFaMCFaMCFaMCFaMCFaMCFaMCFaMCFaMCFaMCFaMCH7L9jU/032zclsgrEYhSA71cm2/b/QI/5blbll2JYOY2Jsa97CQhXMLNi4BtwetW3sw/9wftAc3KK/k7JFOauNs5NvTuyPYKMB73ZSzLxObKd+5tX3GLMLNhoY14v2aH2EXdy3DAc3JW8TtGBCtGBCZhJs6vXoFl7EDjbDbvUVn5hNsEKAQoTR9qgdBOPH2qeb5IPLsHHh9lvIfer/YATbLXj2z8tGGW/PkYNdw24DtGBCtGBCtGBCtGBCtGBCtGBCtGBCtGBCtGBCtGBCtGBCtGBCtGBCtGBCtGBCtGBCphLMsmzTzFALKi4qSx7qVoC6G6BKdW5XFtloG5VlKoOaraxcd8kcqjsoLVgoka+0MKMN+/ArFryyBTcw4VPfftVWdS8gX4nKEpWuww9ja4M4nDpRpnpVsPrtZ5cTJ/3p4cedk19+sdZ8dOU4kBh4d/0SOnEPCf0xtm2j3+/hww8vwfdKOLS0jH4Uot3aRKu9CWQpDGPGJKevp2GK1tUEmx9HiAcJ7nskQBxmuPxuFxmHkhnIeg7ify3Wkv9W34mt/o9ev/Dnz/IOZEwl2Kuvvmq+995blQdPVuyHXyqnD9cfVv61xkX6bNBfTp2sQY2LjTWq01+dPeyjfXjDHOHuGhf5Azj6RD1vr40eo47OX0tmu1GPH3/7jfZPSOfhhn3nNviVl+J2OQ/NbQTwP4Ihl+ZlR7qqAAAAAElFTkSuQmCC;base64,iVBORw0KGgoAAAANSUhEUgAAAEwAAADYCAYAAABBYAV+AAAAAXNSR0IArs4c6QAAAARnQU1BAACxjwv8YQUAAAAJcEhZcwAAFxEAABcRAcom8z8AAAwTSURBVHhe7ZrbjxtXGcC/uY/H9q6zCZs2vW0SWi6iVVpKK5DaQtqU5iFCpUWV+oTECw9I/QeQQsVfwTOPfaAVyUNbKvEAL7SAChUVFEEEJNkkuxsnXl/mevi+M55d27G9/mzvptl8v823Z86Z8bn85pwzjr0wBqOb3g1MPNaxF7725DMPJIb7ssqsIAMrghggyyjw1xZmN9kuM4uyQUyrezBf8tZSDKyfmqDDIo/Q+QwPdWpiOfY/NRJPqeS6bdtvvf3hB+v6wgkYK+z7Tz7/gmHA+57vQ6wyUJnSwpRSOggtB2vJc4TCLBbof3n1+lo8NI18aPhqnc4L3UrRHv7DriJ5m1RGP4qODRwDladK96UZtm4YWfrsr//8u7/QKyYBqxnNK9946Xkw1XveF1IzKTexhJrDBvvGm3eyqKg4leeHl+4KPX0gqMVbWjOxNMXSlgNGuwTNG+mGmapvv/OnD/7avWJHxo7g1SfOnFROes472iily9d1gzjj+ujrWE+mUEQH+jWYbpXtAd0m+yFhsQWq7oGxsQita/Yqbi+nzn/0/ifdK3ZkYPj9vPzYmZOml5yrPLFZso5fB8s2wMKpTFM8yhKgCa47hkuO9jUK27LAMA1I8ZiWMMX4VnaGBl5UsaN07Esa5TfWxP7S62gbyRJ8JQmLLMjWSgCXl6B10VnFXs5P2JlHTp20q9a5h3/glO77jglLQRWWvCq2a8C/m6vQSjoo0IA4TmCzuanj4IElKJUC2NxsQKvVhCiMdCtjGxoDCZpEmD6Pv5Iwg40Lob5pi/e6Wlq4mULjcgwZbm5G0iPsfy5b2NjH1vHF40ct33j9oWcqzrFv1eChew7DscNH4PBBbCyIwF6wYOFAGfwK7glOCqkZwT33L8Oh5RoYNt5WOwHDTcErW+AGs4U3pGwwqB3LMqFxJdaiFu/1wK3gEsQHY2sj0bPdwMelwj0MGgHEDWsTb8AvP7v0r6vdIe9I/tjagTTNII5SCMMYwiiCDkaMx0mY5oHnkhiXJEaKx3QtRUpluBT2NPAJqMEkoy0B85RqBjfgKZhIGDWev40YfEpuHfQdzhNutX3XY0bn6VcRMzKZsAG2292+Y7Pfu+HMWq9+/RxmVgFLGD0Tc1n0O38C5W8L8Qg7ZeiOFaXdc93yaQN/3VI2UfT+bHVr9ik21QzbhnoxhDlM/YIRLYxk6/rBF3IrGsGMwkYwp859HtkdYfuYu1wYfyncncJoj93aZ91uOhmyJJmIMCYijIkIY7KjML0/7uP3VVyYM2yOb+H3gl240RMJo/+PmaYFFoaNYeJ/zujT1SRLeyKBKI0hxrQ3HyYUEURTRJzmdVFbMdZF9VG9xae7wyJN6aOmPNIEg8pTjBhv9/YXW1MzkbAMOxHHNIh88IlKwbUcKNke+BiUlt0SLPgVKDs+lCwXAsxX/DKWlaHKjopOy34JfNcDx3Gg7AVQwfBdHxzX0WV9UZR5LpQq2K+yBy4eO44Ntovh4023Zp9yY2s4/cjpk14Vzh17LS3d90IKS4sHYKlag5q/AGXbB9uwcJEqfVcjFBpHkf542rYdiKJQS05xlnDXBs3gFKdDM2nDRtjAtAMPVpbBMWy42rmh84miegfAZlSioF1P9ScWbsXE3mWw2WjBtUsbUL/YgfYVvG49ALh8MP9M37BPnf/o/Hw+ov7K4YePmi68HqyEjnmojVPewCWBCzSz4JBZgwoEYCUWOKkLvvIgsHAGKB/czAEX8yWjBGUTZ4qFM8+idNKo6NeCsnFG03IEeDA4AhUsb9FSo6WlcHsABwfQE8rBm4gzy/GAvkt1caYbeF2GSzPEG9hBkeEGWm3ju/vNEiSb9BF1wvqIeuytP/PY6ZO42s4f+mbHr3ytA0GlDEG5DAeCRThaPoyCfL08810up3gs8OZUPzQ7aIY1YpwZnTps4kz7YvU+cEwbLrXWMN/Re+V2qwNgMZ2hD4lTvK7daUK9fh2u/7cDzct4oumDcX0B2mvGapbN8VujV5566UXLsd8NlnAi+rHe+PVbjBTvfewa9KUCbsm4EeL+0P36rRf65oaWV/5NeV5mYtkOzebQYPFmxLj0Ety4aZ+kukLc+Kk8/8gcW+xWR/tT8c08/UUCSdfgdTgn8RURLg8sS3DbTk0wMxduNlphquDp83947+P84p0Z2/NXnz39aJaon2ahuZh2oAWZSpWpHvUWjC9VjgEsVksQqBJ0VISBexYOrjsM/fp8H4vBxs2YnrBEGIb6ro+cHUheRz5ofRswpRlHjuhrvS0ZCD350lBB2EzB8U1wyyaEDVQUUS0IXmpEDsANH681PjYd8x/4jHdSMytnZnYxs7Kz537/m//kF+/M6F7nGGfhrL7mTXhTP5Rfefq7Pzv0Zf/s42+U4PGv3g8ryf1wKV2Dy8k61JMGOs3/boFmw7VrV+HmzRtQWViEAB8GpOLK1VVotdsokPkWcBjYs6SjoLmewNpnHVg84sDB4z5c/bQNzTV8KJBhB+NKFaIPlyG5afz4V5+8+wt6KY4LO4CjwjcBuq4JGddrEqVIVCGLwD0/ojMm3jTbM8DBO2oHJlgeluFeSoF7rU4NN++wSYHHugyP6TvLmcPpObZoHeJe2i3H3R/zOCOxXFFKf4SC8nCGdbrD0BOgR9ZOE2eLccK6c7ofbNah7/5ivLMhPn3aCt+bdfBNagufZi185mBQqvNtWi64dWA34zaWY+DShqyDSwzLZwqqo6gHtyeF+5OK83yGaUZ53K8o1cf5aPC2DmXoWIcx+7rQTfXcIDrsZvtv28A186Cvne1Ke6un4978rMxhI7m7EGFMRBgTEcZEhDERYUxEGBMRxkSEMRFhTEQYExHGRIQxEWFMRBgTEcZEhDERYUxEGBMRxkSEMRFhTEQYExHGRIQxEWFMRBgTEcZEhDERYUxEGBMRxkSEMRFhTEQYExHGRIQxEWFMRBgTEcZEhDERYUxEGBMRxkSEMRFhTEQYExHGRIQxEWFMRBgTEcZEhDERYUxEGBMRxkSEMRFhTEQYExHGRIQxEWFMRBgTEcZEhDERYUxEGBMRxkSEMRFhTEQYExHGRIQxEWFMRBgTEcZEhDERYUxEGBMRxkSEMRFhTEQYExHGRIQxEWFMRBgTEcZEhDERYUxEGBMRxkSEMRFhTEQYExHGRIQxEWFMRBgTEcZEhDERYUxEGBMRxkSEMRFhTEQYExHGRIQxEWFMRBgTEcZEhDERYUxEGBMRxkSEMRFhTEQYExHGRIQxEWFMRBgTEcZEhDGZWpjRTW9BdWOfMrUw1SumOO4V1XtcMKzsDmOmJVmMf9DVfmbue9h+lzdXYb2i9kwcbaYjN9T5M/cZ1scwa0XZrEGMyu8iuytsNxknZhdn3e4K2+PlshfMR1ivlD1YFreT6YUNk9Ira4i4YS+507hz97DbxPyF7bM9axCZYUxEGBMRxmTvhA15at6JTC2MPfZ98jCYbYYV1nrtDZocds0dzPyWJAnplTOY3y1629kDphc2qpPDynvLigHOGkSRDjKqfA5ML2zSPWmnwU3LbZBFzG9JjoLEFrEP2H1h+wwRxkSEMRFhTEQYExHGRIQxEWFMRBgTEcZEhDERYUxEGBMRxkSEMRFhTEQYExHGRIQxEWFMRBgTEcZEhDERYUxEGBMRxkSEMZle2C7/0cfnlemFdf+4xMC07+9MigylfSfmzC1153dQFw+em2M/ZluSRUcoHYxRDLt2miD68nmhKs4VDOZnhC9MQeC5LpSqLlSdEiwaAVQrPlQWPCgvulBeyKOCx0HVgVLF1mmwQOGCj3m/bOXpDEH1lsp4jOFRlCzwAirHlI59G1xMddCx7UCmlN8dxdSw/X/vqVM/qq04b5z4STn8+pMPJCvWEVhtrsOl9jrciBugMgWGaeqlura2Bo3NBlSrVRxEAJABXLu2Cp12S18zK1RFFCpobaSw/s8QFo84sHTUhat/j6C1FueL1EkhvVT24j8uK9Wwfv7Op++9rV88JWxhzz33nL+yUvNP/BDgxIkVWIEaXIA61OsY+LNNDeoX9Bmo1Wo6T9TrWNZ72TzA+i5coHawlRVql9rpaaSOJ35bAzdebr31t7eibumeMOcd4bawH8ZwpwDwf1CUNKSGzc2tAAAAAElFTkSuQmCC;base64,iVBORw0KGgoAAAANSUhEUgAAAEwAAACQCAYAAACia41/AAAAAXNSR0IArs4c6QAAAARnQU1BAACxjwv8YQUAAAAJcEhZcwAAFxEAABcRAcom8z8AAArPSURBVHhe7Z3JjxxXHce/tfTeM9Mz3sYkColDHGcytkfEMkJckKIkSiYKRJCIE+LABQ6IC8qJf4Bbrkg5cOGAhFgSCcMIpJhDIBJRhASCBGETO4vHPT29V1d1Lfx+r6o6bXvG079e7Mz4fdqvq96vqt979XlLj6usMTR3DiPZ7mfE1zDRRb+08lK2+IhXXPshsLb2IPhVp9fl+mV6Z/i9Eu/V6QjFKxXOD8fonDg7EVwEF8VVXr5cp3ootlZB/d24ngF1OvAuxS+j9+b/3uwl0ZGZSNjXzj/99bnj1o/PfL9gnP/q59yT9oPYdBr40Kmi7rXgRwEsw4BhWKhtb6FWr6FUmqNUhGlaqFY/QavVpnPMpMQxoavgC/E9wNn2cf19B4VFG8srBVT/66H5UR+IQkRWhLCWt/tvH8uF9dyrv/nHhdfiAkZnImEvfOmpHyw/VH713I9KOPfF4ziFE9ikLr4SbKLmNZUwk2SYpomtrSq2alsol1lYCZZl4drmJ2i3mur4hE2hTiFhboRuzcfmvxwUl2wcP1PE9fd6aFwlk0Rkh8BWEcFf7kP74/Anv/7nhVfUAQETda0Jo+d6HrpN6kWvh+2wi0bXQXO7h/a2S8lLti46jT6cpo8ubTt1Th4cFQuS5E+eWj567QCeE8DtxmW6nO+GKu9RcumY16cRB3TVRQiZcC58SpRsDzpTEzbZhNo/TE3YvYIWJkQLE6KFCdHChGhhQrQwIVqYEC1MiBYmRAsTooUJ0cKEaGFCtDAhWpgQLUyIFiZECxOihQnRwoRoYUK0MCFamBAtTIgWJkQLE6KFCdHChGhhQrQwIVqYEC1MiBYmRAsTooUJ0cKEaGFCtDAhWpgQLUyIFiZECxOihQnRwoRoYUK0MCFamBAtTIgWJkQLE6KFCdHChGhhQrQwIVqYEC1MiBYmRAsTooUJ0cKEaGFCtDAhWpgQLUyIFiZECxOihQnRwoRoYUK0MCGzE3ZAf7GrHmFCZidsr9+1vE9/F/PUhKXXP/DAO2najdsd+4wyFWHRsJih/cEyNnx8nzOTKZn6SR3t6Wr45EnYrYwpfgHNbA1LHezpYfiE4Q+Nk3Ziyt/WMxPG/4PC7Rp7u2ucCnuJHJOZCbuhsVNu9N1kOsJ2EzIs7YAwuxF2QLl7wvbpyLu7I2wfSpuKMLVUDV+8CsS7ijSfxm4+vo+Y3aKfSkmPDefT2D5kdlNyt5/BUlnp8ZtFTiOlDO9PiTu/hu3xA+1nnTsnbJ+LSrnzI2yfo4UJ0cKEaGFCtDAhWpgQLUyIFiZECxOihQnRwoRoYUK0MCFamBAtTMiowna8k2UZpqsO8R9+1K22vKE3Qu0n8QG8n+SHwxORFjRUtrrdOogP3XpNYkZkqP9/X8qowtIa+fzBZ/wwyKeHInpxWzjH+2pLb9ENT0eI+ITB7lRIC7qhwIE5ig/tJ4QIs8kuc+sJuzDylFxZeeKBx8+svbZy+uyFldNrv3p05cwvan3ne1HI7SRZpkmjyYRJ2zgZMC2qwKLxRvtcU0Q9TaeokaeaqPTTVartZClKtqpsZnjL9ao8vVEHhkGIhuF869HTZ3+5snp249HVs9/hownpJ3fktgeHOb92/ixNr7/m8/mcH/YRUsUlI4ujhwt48NlcdOKxReM++yiaXhdbbgNt36FzQjUlTbLUarfQ7rSQzxeQy+ZVvNmqo9dz1PGJoSsJ/QheJ0Tz4z6yRQuV+7NoXeuju+3H51DnRK0sgvcXolYvNNqWB5t61Xf7F48VKq8c6dl//+nf3ujGJ+/MyMJe/PL6qhEFG5mCseyZPYrEU5B7zsyQFBpF8doVT8hbZyIFODaokXboJBWfJlwNjXouXvUDz4C0irh5FDPUhuNGQK0OMuh7qJLQb/z2rY2LfOpuDJq/Fy+fW1+lVX7DPtZd7lWqiCwfAa8EAYkLTES0DagZZjKiOEXUcl7D1CjjKUsplkRwYynOwlV+CqiLUaJICBcaRrCyvFTQbkB5bgtPW1q9eLmAT21sZSKzMW90qzYCL3jmjXc2/sDF7MbIwl48QyMsE27MrznL9uNbyOQNGs7UGFo83NBDwNOPXrRCIKA1IvAD2LYFy7IQhCyW9Kquv4OQNN+jN/pjZrgT45EfUIzXUxYWVgvAR4voflBw4FvPv/7O7/6UfHpHRha2fuqpVeqtjcdeLi6f/GYWywtLOJKvIIcM3mtdRc1rwjYs9H1PrVe12hYOLx1BpbKIRrOOVqsJx+nGFY5c663QZQ4+zvu7weewmM1/95S0pYeopQUTXjtA7RJ1cD+gzrYQbtEX/Sck7Ep+JGGjr7Yej+gImZyNUqWAymIZhysLOEpC5hdLKC0UUKZ4aSGPQjmLbMFCYS6LMsUL5RxyJZtiJjJFUx2baaIFn1Mmb8XrGNnL5KjuvBlPUQqpKTsGowsjeC3g6eb2fBotLrpuDx2vR3kPntuH1+Pko+8G1IMhLaS+inPed2ma9mmdo95W21mmpA7+1kzF8Bqm8rTW8o9lvH6Og0jYToxX7Z1h10E05uhiJhaW1h3/SBFvufPifBqjRME0zZq4irgd8V6KakkSH8/aRMLiKvnnsbhJ6VY1jOWofHosfh8WN6sU16PeP82rl9pVadxBNvEI252dmjRuMz87zFAYc/CkzVjYwePeFsaDfZDUCrcneoQxglVCCxOihQnRwoRoYUJEwtIvlHsZ8Qgb7cv3VqJE9X4XPsaUNOhD8S1oK/m7Gz8Q4bupgxQGCDjRfpw4T1uOBQE/nhMn/mxIZfBt77QsznN9fJ8uvh2eJmpPmLQpSJI6l87jeEDdxj03Ru/zne2ROHns4aOmZX770IpdXjwFFLIZ5KwsCTPR8R1Vf97KwOY+4DvR1KjFuQXMF8q0H6qeyZgWfS4/VsraWVi2BdOyUExitmWrW+Bx4v0k2TZsSibfAe4YsDM25o7kkM3ZJMyA2wmUOPgGIscG2gX0mxmffnj9+Xsf/+cSX+9ujOx4/dT6qpUNNh5+0Vr+/AsBjiwt4lCpgvn8XNxz1JuMTyOoxzcWnTbmimUU8iU4rkMxB/2+R2dQlYKe5XsMPGJ6gYd230E3cHEoO48CdU7d66AXevBpBO9UKN8s5MdsfOOweNiGYUVw2i6qHzbQuu7CrdE56S3qqwUHgTnNe/rrq3Y+3Lj/OW/52HMdLC5VsLhQwaHyIh4oHsOcXVRTj65tMPXspPfVQ5BkCsWMbiye8iGa/Q42nW1UvQYembsflUwZH3SuoU5xlqnu4twMDyKXO5OmUpbKoTZ0u1TOteu4fqmNxiUSvV0kYUvoXslN9yEIPzWK7HDj0BPecmmthdJcCcVSCQuleZwoHcdCpqTWKwWVqkYGt5j+pPlxYGE8wlp+F1W3gZrbwom546qDPupW0eh34YXxP5O4pQaul4NcBq9dJMzpOai36ti+2kHzSgijnYPRmIOzaTuRH5GwjSkJO/fUqmEZG9lsZtkHNTBpjHoOSS9V0MilCWDhyYY7gJZ0Wnj5WWM88jiWnLI3qv/oxVtew7h/6S/dJq2tnh84tLQ8//rbUxK2/pWnz0aW+VbBLhX4QUf8zRSntOGzhAXxizuIRzLXxt0UxyVwGfRJ+rpT/+bDoA6wTfT8Ho1A/5kLf57Sg9wnn3z2JPXGz2hwf4GyzTh6MKBOL1Gnb5mh8d0/Xvz9W0l4B4D/A4EARQUv/LPpAAAAAElFTkSuQmCC;opacity=20;" vertex="1" parent="1">
          <mxGeometry x="369.00000000000006" y="176" width="28.88" height="81.71" as="geometry" />
        </mxCell>
        <mxCell id="fn3hpe5vCrqdeOl8oa49-73" value="" style="shape=image;imageAspect=0;aspect=fixed;verticalLabelPosition=bottom;verticalAlign=top;image=data:image/png,iVBORw0KGgoAAAANSUhEUgAAAEwAAADYCAYAAABBYAV+AAAAAXNSR0IArs4c6QAAAARnQU1BAACxjwv8YQUAAAAJcEhZcwAAFxEAABcRAcom8z8AAAwTSURBVHhe7ZrbjxtXGcC/uY/H9q6zCZs2vW0SWi6iVVpKK5DaQtqU5iFCpUWV+oTECw9I/QeQQsVfwTOPfaAVyUNbKvEAL7SAChUVFEEEJNkkuxsnXl/mevi+M55d27G9/mzvptl8v823Z86Z8bn85pwzjr0wBqOb3g1MPNaxF7725DMPJIb7ssqsIAMrghggyyjw1xZmN9kuM4uyQUyrezBf8tZSDKyfmqDDIo/Q+QwPdWpiOfY/NRJPqeS6bdtvvf3hB+v6wgkYK+z7Tz7/gmHA+57vQ6wyUJnSwpRSOggtB2vJc4TCLBbof3n1+lo8NI18aPhqnc4L3UrRHv7DriJ5m1RGP4qODRwDladK96UZtm4YWfrsr//8u7/QKyYBqxnNK9946Xkw1XveF1IzKTexhJrDBvvGm3eyqKg4leeHl+4KPX0gqMVbWjOxNMXSlgNGuwTNG+mGmapvv/OnD/7avWJHxo7g1SfOnFROes472iily9d1gzjj+ujrWE+mUEQH+jWYbpXtAd0m+yFhsQWq7oGxsQita/Yqbi+nzn/0/ifdK3ZkYPj9vPzYmZOml5yrPLFZso5fB8s2wMKpTFM8yhKgCa47hkuO9jUK27LAMA1I8ZiWMMX4VnaGBl5UsaN07Esa5TfWxP7S62gbyRJ8JQmLLMjWSgCXl6B10VnFXs5P2JlHTp20q9a5h3/glO77jglLQRWWvCq2a8C/m6vQSjoo0IA4TmCzuanj4IElKJUC2NxsQKvVhCiMdCtjGxoDCZpEmD6Pv5Iwg40Lob5pi/e6Wlq4mULjcgwZbm5G0iPsfy5b2NjH1vHF40ct33j9oWcqzrFv1eChew7DscNH4PBBbCyIwF6wYOFAGfwK7glOCqkZwT33L8Oh5RoYNt5WOwHDTcErW+AGs4U3pGwwqB3LMqFxJdaiFu/1wK3gEsQHY2sj0bPdwMelwj0MGgHEDWsTb8AvP7v0r6vdIe9I/tjagTTNII5SCMMYwiiCDkaMx0mY5oHnkhiXJEaKx3QtRUpluBT2NPAJqMEkoy0B85RqBjfgKZhIGDWev40YfEpuHfQdzhNutX3XY0bn6VcRMzKZsAG2292+Y7Pfu+HMWq9+/RxmVgFLGD0Tc1n0O38C5W8L8Qg7ZeiOFaXdc93yaQN/3VI2UfT+bHVr9ik21QzbhnoxhDlM/YIRLYxk6/rBF3IrGsGMwkYwp859HtkdYfuYu1wYfyncncJoj93aZ91uOhmyJJmIMCYijIkIY7KjML0/7uP3VVyYM2yOb+H3gl240RMJo/+PmaYFFoaNYeJ/zujT1SRLeyKBKI0hxrQ3HyYUEURTRJzmdVFbMdZF9VG9xae7wyJN6aOmPNIEg8pTjBhv9/YXW1MzkbAMOxHHNIh88IlKwbUcKNke+BiUlt0SLPgVKDs+lCwXAsxX/DKWlaHKjopOy34JfNcDx3Gg7AVQwfBdHxzX0WV9UZR5LpQq2K+yBy4eO44Ntovh4023Zp9yY2s4/cjpk14Vzh17LS3d90IKS4sHYKlag5q/AGXbB9uwcJEqfVcjFBpHkf542rYdiKJQS05xlnDXBs3gFKdDM2nDRtjAtAMPVpbBMWy42rmh84miegfAZlSioF1P9ScWbsXE3mWw2WjBtUsbUL/YgfYVvG49ALh8MP9M37BPnf/o/Hw+ov7K4YePmi68HqyEjnmojVPewCWBCzSz4JBZgwoEYCUWOKkLvvIgsHAGKB/czAEX8yWjBGUTZ4qFM8+idNKo6NeCsnFG03IEeDA4AhUsb9FSo6WlcHsABwfQE8rBm4gzy/GAvkt1caYbeF2GSzPEG9hBkeEGWm3ju/vNEiSb9BF1wvqIeuytP/PY6ZO42s4f+mbHr3ytA0GlDEG5DAeCRThaPoyCfL08810up3gs8OZUPzQ7aIY1YpwZnTps4kz7YvU+cEwbLrXWMN/Re+V2qwNgMZ2hD4lTvK7daUK9fh2u/7cDzct4oumDcX0B2mvGapbN8VujV5566UXLsd8NlnAi+rHe+PVbjBTvfewa9KUCbsm4EeL+0P36rRf65oaWV/5NeV5mYtkOzebQYPFmxLj0Ety4aZ+kukLc+Kk8/8gcW+xWR/tT8c08/UUCSdfgdTgn8RURLg8sS3DbTk0wMxduNlphquDp83947+P84p0Z2/NXnz39aJaon2ahuZh2oAWZSpWpHvUWjC9VjgEsVksQqBJ0VISBexYOrjsM/fp8H4vBxs2YnrBEGIb6ro+cHUheRz5ofRswpRlHjuhrvS0ZCD350lBB2EzB8U1wyyaEDVQUUS0IXmpEDsANH681PjYd8x/4jHdSMytnZnYxs7Kz537/m//kF+/M6F7nGGfhrL7mTXhTP5Rfefq7Pzv0Zf/s42+U4PGv3g8ryf1wKV2Dy8k61JMGOs3/boFmw7VrV+HmzRtQWViEAB8GpOLK1VVotdsokPkWcBjYs6SjoLmewNpnHVg84sDB4z5c/bQNzTV8KJBhB+NKFaIPlyG5afz4V5+8+wt6KY4LO4CjwjcBuq4JGddrEqVIVCGLwD0/ojMm3jTbM8DBO2oHJlgeluFeSoF7rU4NN++wSYHHugyP6TvLmcPpObZoHeJe2i3H3R/zOCOxXFFKf4SC8nCGdbrD0BOgR9ZOE2eLccK6c7ofbNah7/5ivLMhPn3aCt+bdfBNagufZi185mBQqvNtWi64dWA34zaWY+DShqyDSwzLZwqqo6gHtyeF+5OK83yGaUZ53K8o1cf5aPC2DmXoWIcx+7rQTfXcIDrsZvtv28A186Cvne1Ke6un4978rMxhI7m7EGFMRBgTEcZEhDERYUxEGBMRxkSEMRFhTEQYExHGRIQxEWFMRBgTEcZEhDERYUxEGBMRxkSEMRFhTEQYExHGRIQxEWFMRBgTEcZEhDERYUxEGBMRxkSEMRFhTEQYExHGRIQxEWFMRBgTEcZEhDERYUxEGBMRxkSEMRFhTEQYExHGRIQxEWFMRBgTEcZEhDERYUxEGBMRxkSEMRFhTEQYExHGRIQxEWFMRBgTEcZEhDERYUxEGBMRxkSEMRFhTEQYExHGRIQxEWFMRBgTEcZEhDERYUxEGBMRxkSEMRFhTEQYExHGRIQxEWFMRBgTEcZEhDERYUxEGBMRxkSEMRFhTEQYExHGRIQxEWFMRBgTEcZEhDERYUxEGBMRxkSEMRFhTEQYExHGRIQxEWFMRBgTEcZEhDERYUxEGBMRxkSEMRFhTEQYExHGRIQxEWFMRBgTEcZEhDGZWpjRTW9BdWOfMrUw1SumOO4V1XtcMKzsDmOmJVmMf9DVfmbue9h+lzdXYb2i9kwcbaYjN9T5M/cZ1scwa0XZrEGMyu8iuytsNxknZhdn3e4K2+PlshfMR1ivlD1YFreT6YUNk9Ira4i4YS+507hz97DbxPyF7bM9axCZYUxEGBMRxmTvhA15at6JTC2MPfZ98jCYbYYV1nrtDZocds0dzPyWJAnplTOY3y1629kDphc2qpPDynvLigHOGkSRDjKqfA5ML2zSPWmnwU3LbZBFzG9JjoLEFrEP2H1h+wwRxkSEMRFhTEQYExHGRIQxEWFMRBgTEcZEhDERYUxEGBMRxkSEMRFhTEQYExHGRIQxEWFMRBgTEcZEhDERYUxEGBMRxkSEMZle2C7/0cfnlemFdf+4xMC07+9MigylfSfmzC1153dQFw+em2M/ZluSRUcoHYxRDLt2miD68nmhKs4VDOZnhC9MQeC5LpSqLlSdEiwaAVQrPlQWPCgvulBeyKOCx0HVgVLF1mmwQOGCj3m/bOXpDEH1lsp4jOFRlCzwAirHlI59G1xMddCx7UCmlN8dxdSw/X/vqVM/qq04b5z4STn8+pMPJCvWEVhtrsOl9jrciBugMgWGaeqlura2Bo3NBlSrVRxEAJABXLu2Cp12S18zK1RFFCpobaSw/s8QFo84sHTUhat/j6C1FueL1EkhvVT24j8uK9Wwfv7Op++9rV88JWxhzz33nL+yUvNP/BDgxIkVWIEaXIA61OsY+LNNDeoX9Bmo1Wo6T9TrWNZ72TzA+i5coHawlRVql9rpaaSOJ35bAzdebr31t7eibumeMOcd4bawH8ZwpwDwf1CUNKSGzc2tAAAAAElFTkSuQmCC;opacity=80;" vertex="1" parent="1">
          <mxGeometry x="422.6800000000001" y="90" width="28.15" height="80" as="geometry" />
        </mxCell>
        <mxCell id="fn3hpe5vCrqdeOl8oa49-74" value="" style="html=1;shadow=0;dashed=0;align=center;verticalAlign=middle;shape=mxgraph.arrows2.jumpInArrow;dy=15;dx=38;arrowHead=55;gradientColor=none;opacity=30;rotation=60;direction=south;strokeColor=#A9C4EB;fillColor=#A9C4EB;" vertex="1" parent="1">
          <mxGeometry x="520" y="-220" width="165.14" height="154.5" as="geometry" />
        </mxCell>
        <mxCell id="fn3hpe5vCrqdeOl8oa49-75" value="" style="html=1;shadow=0;dashed=0;align=center;verticalAlign=middle;shape=mxgraph.arrows2.jumpInArrow;dy=15;dx=38;arrowHead=55;gradientColor=none;opacity=30;rotation=60;direction=south;strokeColor=#A9C4EB;fillColor=#A9C4EB;" vertex="1" parent="1">
          <mxGeometry x="520" y="37.25" width="165.14" height="154.5" as="geometry" />
        </mxCell>
      </root>
    </mxGraphModel>
  </diagram>
</mxfile>
